<svg width="140" height="140" viewBox="0 0 140 140" fill="none" xmlns="http://www.w3.org/2000/svg">
<g filter="url(#filter0_d_1330_6334)">
<rect x="40" y="35" width="60" height="60" rx="30" fill="white"/>
<path d="M75.625 60.3005H76.563C81.25 60.3005 85 64.4445 85 69.2055C85 73.9665 81.25 78.1115 76.562 78.1115H66.25C65.215 78.1115 64.375 77.2715 64.375 76.2365V69.6735H73.75C74.2473 69.6735 74.7242 69.4759 75.0758 69.1243C75.4274 68.7727 75.625 68.2957 75.625 67.7985V60.2985V60.3005Z" fill="#555DF6"/>
<path d="M75.625 53.7383C75.625 52.7023 74.785 51.8633 73.75 51.8633H63.437C58.75 51.8633 55 56.0083 55 60.7693C55 65.5313 58.75 69.6753 63.438 69.6753H64.375V62.1753C64.375 61.1403 65.215 60.3013 66.25 60.3013H75.625V53.7383Z" fill="#111539"/>
</g>
<defs>
<filter id="filter0_d_1330_6334" x="0" y="0" width="140" height="140" filterUnits="userSpaceOnUse" color-interpolation-filters="sRGB">
<feFlood flood-opacity="0" result="BackgroundImageFix"/>
<feColorMatrix in="SourceAlpha" type="matrix" values="0 0 0 0 0 0 0 0 0 0 0 0 0 0 0 0 0 0 127 0" result="hardAlpha"/>
<feOffset dy="5"/>
<feGaussianBlur stdDeviation="20"/>
<feComposite in2="hardAlpha" operator="out"/>
<feColorMatrix type="matrix" values="0 0 0 0 0.0666667 0 0 0 0 0.0823529 0 0 0 0 0.223529 0 0 0 0.14 0"/>
<feBlend mode="normal" in2="BackgroundImageFix" result="effect1_dropShadow_1330_6334"/>
<feBlend mode="normal" in="SourceGraphic" in2="effect1_dropShadow_1330_6334" result="shape"/>
</filter>
</defs>
</svg>
