<svg width="24" height="24" viewBox="0 0 24 24" fill="none" xmlns="http://www.w3.org/2000/svg">
<path fill-rule="evenodd" clip-rule="evenodd" d="M11.5657 6.43451C11.8781 6.74693 11.8781 7.25346 11.5657 7.56588L7.93137 11.2002L18 11.2002C18.4418 11.2002 18.8 11.5584 18.8 12.0002C18.8 12.442 18.4418 12.8002 18 12.8002L7.93137 12.8002L11.5657 16.4345C11.8781 16.7469 11.8781 17.2535 11.5657 17.5659C11.2533 17.8783 10.7467 17.8783 10.4343 17.5659L5.43431 12.5659C5.28428 12.4159 5.2 12.2124 5.2 12.0002C5.2 11.788 5.28428 11.5845 5.43431 11.4345L10.4343 6.43451C10.7467 6.12209 11.2533 6.12209 11.5657 6.43451Z" fill="#818C99"/>
</svg>
