<svg width="24" height="24" viewBox="0 0 24 24" fill="none" xmlns="http://www.w3.org/2000/svg">
<path d="M12.1615 9.34075C12.4963 9.00602 13.039 9.00602 13.3737 9.34075C13.7085 9.67549 13.7085 10.2182 13.3737 10.5529L9.79778 14.1289C9.3118 14.6149 9.28359 15.433 9.79778 15.9471C10.312 16.4613 11.1301 16.4331 11.6161 15.9471L18.2831 9.28014C19.6559 7.90732 19.5808 5.72912 18.2831 4.43141C16.9853 3.1337 14.8072 3.05859 13.4343 4.43141L6.76732 11.0984C4.58098 13.2848 4.62176 16.832 6.76732 18.9776C8.91289 21.1232 12.4602 21.1639 14.6465 18.9776L18.2225 15.4017C18.5572 15.0669 19.0999 15.0669 19.4346 15.4017C19.7694 15.7364 19.7694 16.2791 19.4346 16.6139L15.8587 20.1898C12.9966 23.0519 8.36402 22.9987 5.55514 20.1898C2.74626 17.3809 2.69301 12.7484 5.55514 9.88623L12.2221 3.21923C14.2838 1.15753 17.546 1.27002 19.4952 3.21923C21.4445 5.16843 21.5569 8.43063 19.4952 10.4923L12.8282 17.1593C11.6908 18.2968 9.78866 18.3624 8.5856 17.1593C7.38253 15.9563 7.44812 14.0542 8.5856 12.9167L12.1615 9.34075Z" fill="currentColor"/>
</svg>
