<svg width="20" height="21" viewBox="0 0 20 21" fill="none" xmlns="http://www.w3.org/2000/svg">
<path d="M9.99996 2.16699C5.39996 2.16699 1.66663 5.90033 1.66663 10.5003C1.66663 15.1003 5.39996 18.8337 9.99996 18.8337C14.6 18.8337 18.3333 15.1003 18.3333 10.5003C18.3333 5.90033 14.6 2.16699 9.99996 2.16699ZM9.99996 17.167C6.31663 17.167 3.33329 14.1837 3.33329 10.5003C3.33329 8.95866 3.85829 7.54199 4.74163 6.41699L14.0833 15.7587C12.9583 16.642 11.5416 17.167 9.99996 17.167ZM15.2583 14.5837L5.91663 5.24199C7.04163 4.35866 8.45829 3.83366 9.99996 3.83366C13.6833 3.83366 16.6666 6.81699 16.6666 10.5003C16.6666 12.042 16.1416 13.4587 15.2583 14.5837Z" fill="CurrentColor"/>
</svg>
