<svg width="36" height="36" viewBox="0 0 37 37" fill="none" xmlns="http://www.w3.org/2000/svg">
<path fill-rule="evenodd" clip-rule="evenodd" d="M7.22834 4.10397C8.73216 3.29971 10.214 3 13.5956 3H22.4044C25.786 3 27.2678 3.29971 28.7717 4.10397C30.1151 4.82247 31.1775 5.88485 31.896 7.22834C32.7003 8.73216 33 10.214 33 13.5956V22.4044C33 25.786 32.7003 27.2678 31.896 28.7717C31.1775 30.1151 30.1151 31.1775 28.7717 31.896C27.2678 32.7003 25.786 33 22.4044 33H13.5956C10.214 33 8.73216 32.7003 7.22834 31.896C5.88485 31.1775 4.82247 30.1151 4.10397 28.7717C3.29971 27.2678 3 25.786 3 22.4044V13.5956C3 10.214 3.29971 8.73216 4.10397 7.22834C4.82247 5.88485 5.88485 4.82247 7.22834 4.10397ZM21.5467 18.2431C21.7523 17.969 22.1338 17.9192 22.3987 18.1319C22.4415 18.1663 22.4797 18.2064 22.5122 18.2513L28.5928 26.6378C28.794 26.9154 28.7396 27.3091 28.4714 27.5172C28.3662 27.5988 28.2384 27.6429 28.107 27.6429H8.96438C8.62901 27.6429 8.35714 27.3616 8.35714 27.0147C8.35714 26.875 8.40215 26.7393 8.48506 26.6291L12.9265 20.722C13.1324 20.4482 13.5139 20.3989 13.7787 20.6118C13.8133 20.6397 13.8449 20.6714 13.873 20.7063L16.9286 24.4286L21.5467 18.2431ZM11.5714 13.7143C12.7549 13.7143 13.7143 12.7549 13.7143 11.5714C13.7143 10.388 12.7549 9.42857 11.5714 9.42857C10.388 9.42857 9.42857 10.388 9.42857 11.5714C9.42857 12.7549 10.388 13.7143 11.5714 13.7143Z" fill="#B2B6BE"/>
</svg>
