<svg width="18" height="18" viewBox="0 0 18 18" fill="none" xmlns="http://www.w3.org/2000/svg">
<path d="M4.5 11.2445C2.84315 11.2445 1.5 9.90134 1.5 8.24448C1.5 6.58763 2.84315 5.24448 4.5 5.24448H9.26927C9.43643 5.24448 9.49705 5.26189 9.55816 5.29457C9.61927 5.32725 9.66723 5.37521 9.69991 5.43632C9.7326 5.49743 9.75 5.55805 9.75 5.72521V10.7638C9.75 10.9309 9.7326 10.9915 9.69991 11.0526C9.66723 11.1138 9.61927 11.1617 9.55816 11.1944C9.49705 11.2271 9.43643 11.2445 9.26927 11.2445H7.5C7.5 11.8315 7.72702 12.4596 7.98925 12.7743C8.38701 13.2516 8.32252 13.961 7.84521 14.3587C7.3679 14.7565 6.65851 14.692 6.26075 14.2147C5.66128 13.4953 5.25 12.3574 5.25 11.2445H4.5ZM15.6039 3.3875C15.6992 3.53042 15.75 3.69833 15.75 3.87009V12.6189C15.75 13.0994 15.3605 13.4889 14.88 13.4889C14.7082 13.4889 14.5403 13.438 14.3974 13.3428L11.4868 11.4024C11.3922 11.3393 11.3618 11.3119 11.3324 11.2764C11.3031 11.2409 11.2824 11.2024 11.2692 11.1582C11.2586 11.1229 11.2527 11.09 11.2507 11.0199L11.25 5.52911C11.25 5.41534 11.2559 5.37487 11.2692 5.33074C11.2824 5.28661 11.3031 5.24811 11.3324 5.2126C11.3618 5.17708 11.3922 5.1497 11.4868 5.0866L14.3974 3.14621C14.7972 2.87968 15.3374 2.98771 15.6039 3.3875Z" fill="#818C99"/>
</svg>
