<svg width="18" height="18" viewBox="0 0 18 18" fill="none" xmlns="http://www.w3.org/2000/svg">
<path d="M12.75 9.375C14.4706 9.375 17.625 10.0179 17.625 12.5893C17.625 13.7143 17.3382 13.875 16.7647 13.875L12.1971 13.8756C12.3156 13.5088 12.375 13.0786 12.375 12.5893C12.375 11.2972 11.9015 10.2892 11.1212 9.54291C11.7084 9.42252 12.2822 9.375 12.75 9.375ZM6 9.375C7.72059 9.375 10.875 10.0179 10.875 12.5893C10.875 13.7143 10.5882 13.875 10.0147 13.875H1.98529C1.41176 13.875 1.125 13.7143 1.125 12.5893C1.125 10.0179 4.27941 9.375 6 9.375ZM6 3.75C7.24312 3.75 8.25 4.75688 8.25 6C8.25 7.24312 7.24312 8.25 6 8.25C4.75688 8.25 3.75 7.24312 3.75 6C3.75 4.75688 4.75688 3.75 6 3.75ZM12.75 3.75C13.9931 3.75 15 4.75688 15 6C15 7.24312 13.9931 8.25 12.75 8.25C11.5069 8.25 10.5 7.24312 10.5 6C10.5 4.75688 11.5069 3.75 12.75 3.75Z" fill="#818C99"/>
</svg>
