<svg width="18" height="18" viewBox="0 0 18 18" fill="none" xmlns="http://www.w3.org/2000/svg">
<mask id="mask0_1627_3787" style="mask-type:alpha" maskUnits="userSpaceOnUse" x="1" y="1" width="16" height="16">
<path fill-rule="evenodd" clip-rule="evenodd" d="M13.1933 15.2192C11.9963 16.0278 10.5533 16.5 9 16.5C7.31159 16.5 5.75349 15.9421 4.5 15.0005C2.67832 13.6322 1.5 11.4537 1.5 9C1.5 4.85786 4.85786 1.5 9 1.5C13.1421 1.5 16.5 4.85786 16.5 9C16.5 11.5889 15.1883 13.8713 13.1933 15.2192ZM9 9.375C10.2427 9.375 11.25 8.28368 11.25 6.9375C11.25 5.5913 10.2427 4.5 9 4.5C7.75733 4.5 6.75 5.5913 6.75 6.9375C6.75 8.28368 7.75733 9.375 9 9.375ZM9 15C10.6215 15 12.0927 14.3568 13.1726 13.3116C12.5048 11.663 10.8882 10.5 9 10.5C7.11181 10.5 5.49524 11.663 4.82747 13.3116C5.90726 14.3568 7.37852 15 9 15Z" fill="white"/>
</mask>
<g mask="url(#mask0_1627_3787)">
<path fill-rule="evenodd" clip-rule="evenodd" d="M13.1933 15.2192C11.9963 16.0278 10.5533 16.5 9 16.5C7.31159 16.5 5.75349 15.9421 4.5 15.0005C2.67832 13.6322 1.5 11.4537 1.5 9C1.5 4.85786 4.85786 1.5 9 1.5C13.1421 1.5 16.5 4.85786 16.5 9C16.5 11.5889 15.1883 13.8713 13.1933 15.2192ZM9 9.375C10.2427 9.375 11.25 8.28368 11.25 6.9375C11.25 5.5913 10.2427 4.5 9 4.5C7.75733 4.5 6.75 5.5913 6.75 6.9375C6.75 8.28368 7.75733 9.375 9 9.375ZM9 15C10.6215 15 12.0927 14.3568 13.1726 13.3116C12.5048 11.663 10.8882 10.5 9 10.5C7.11181 10.5 5.49524 11.663 4.82747 13.3116C5.90726 14.3568 7.37852 15 9 15Z" fill="#818C99"/>
</g>
</svg>
