<svg width="16" height="16" viewBox="0 0 16 16" fill="none" xmlns="http://www.w3.org/2000/svg">
<path d="M7.11443 8.00033L4.85047 5.73636C4.60583 5.49173 4.60583 5.0951 4.85047 4.85047C5.0951 4.60583 5.49173 4.60583 5.73636 4.85047L8.00033 7.11443L10.2643 4.85047C10.5089 4.60583 10.9055 4.60583 11.1502 4.85047C11.3948 5.0951 11.3948 5.49173 11.1502 5.73636L8.88622 8.00033L11.1502 10.2643C11.3948 10.5089 11.3948 10.9055 11.1502 11.1502C10.9055 11.3948 10.5089 11.3948 10.2643 11.1502L8.00033 8.88622L5.73636 11.1502C5.49173 11.3948 5.0951 11.3948 4.85047 11.1502C4.60583 10.9055 4.60583 10.5089 4.85047 10.2643L7.11443 8.00033Z" fill="#818C99"/>
</svg>
