<svg width="18" height="18" viewBox="0 0 18 18" fill="none" xmlns="http://www.w3.org/2000/svg">
<circle cx="9" cy="9" r="8.5" fill="white" stroke="#ED4D60"/>
<path fill-rule="evenodd" clip-rule="evenodd" d="M13.0137 4.9935C12.7652 4.74504 12.3639 4.74504 12.1154 4.9935L9.00005 8.10249L5.88469 4.98713C5.63623 4.73867 5.23486 4.73867 4.9864 4.98713C4.73793 5.23559 4.73793 5.63696 4.9864 5.88542L8.10175 9.00078L4.9864 12.1161C4.73793 12.3646 4.73793 12.766 4.9864 13.0144C5.23486 13.2629 5.63623 13.2629 5.88469 13.0144L9.00005 9.89907L12.1154 13.0144C12.3639 13.2629 12.7652 13.2629 13.0137 13.0144C13.2622 12.766 13.2622 12.3646 13.0137 12.1161L9.89834 9.00078L13.0137 5.88542C13.2558 5.64333 13.2558 5.23559 13.0137 4.9935Z" fill="#ED4D60"/>
</svg>
