<?xml version="1.0" encoding="UTF-8"?>
<svg xmlns="http://www.w3.org/2000/svg" xmlns:xlink="http://www.w3.org/1999/xlink" width="40px" height="40px" viewBox="0 0 40 40" version="1.1">
<g id="surface1">
<path style=" stroke:none;fill-rule:evenodd;fill:rgb(81.568627%,84.705882%,89.019608%);fill-opacity:1;" d="M 31.183594 36.585938 C 27.992188 38.742188 24.140625 40 20 40 C 15.496094 40 11.34375 38.511719 8 36 C 3.140625 32.351562 0 26.542969 0 20 C 0 8.953125 8.953125 0 20 0 C 31.046875 0 40 8.953125 40 20 C 40 26.902344 36.503906 32.992188 31.183594 36.585938 Z M 20 21 C 23.3125 21 26 18.089844 26 14.5 C 26 10.910156 23.3125 8 20 8 C 16.6875 8 14 10.910156 14 14.5 C 14 18.089844 16.6875 21 20 21 Z M 20 36 C 24.324219 36 28.246094 34.285156 31.125 31.496094 C 29.347656 27.101562 25.035156 24 20 24 C 14.964844 24 10.652344 27.101562 8.875 31.496094 C 11.753906 34.285156 15.675781 36 20 36 Z M 20 36 "/>
</g>
</svg>
