<svg width="24" height="24" viewBox="0 0 25 25" fill="none" xmlns="http://www.w3.org/2000/svg">
<path d="M13.9201 6.76761L17.2321 10.0796L9.29834 18.0054C8.5765 18.7273 7.68838 19.2607 6.71207 19.5587L4.00259 20.386C3.83803 20.4362 3.66391 20.3435 3.61367 20.1789C3.59557 20.1197 3.59557 20.0563 3.61367 19.997L4.44076 17.2876C4.73886 16.3111 5.27236 15.4228 5.99433 14.7008L13.9201 6.76761ZM18.666 4.00973L19.9899 5.33377C20.5026 5.84642 20.5347 6.65774 20.0861 7.20776L19.9899 7.31411L18.5761 8.72361L15.2761 5.42361L16.6857 4.00969C17.2326 3.4629 18.1191 3.46292 18.666 4.00973Z" fill="CurrentColor"/>
</svg>
