<svg width="15" height="14" viewBox="0 0 15 14" fill="none" xmlns="http://www.w3.org/2000/svg">
<path fill-rule="evenodd" clip-rule="evenodd" d="M10.7803 0.559854C11.1386 0.201464 11.6245 7.86516e-05 12.1313 2.30333e-08C12.6381 -7.86055e-05 13.1241 0.201156 13.4825 0.559434C13.8409 0.917713 14.0423 1.40369 14.0423 1.91045C14.0424 2.41721 13.8412 2.90325 13.4829 3.26164L7.53933 9.20606C7.46433 9.28092 7.37266 9.33696 7.27183 9.36957L5.97209 9.7922L5.45555 9.95991C5.26436 10.022 5.05973 10.03 4.86427 9.98309C4.66881 9.93615 4.49013 9.83608 4.34799 9.69394C4.20585 9.5518 4.10578 9.37312 4.05884 9.17766C4.0119 8.9822 4.01992 8.77756 4.08202 8.58638L4.24973 8.06983L4.67319 6.77009C4.70592 6.66956 4.76195 6.5782 4.83671 6.50344L10.7803 0.559854ZM5.5109 8.53187L5.55785 8.51678L6.70414 8.14363L10.9614 3.88551L10.1564 3.08051L5.89914 7.33862L5.52599 8.48491L5.5109 8.53187ZM11.0461 2.19166L11.8511 2.99666L12.5345 2.31324C12.5873 2.26045 12.6292 2.19777 12.6578 2.12878C12.6864 2.05979 12.7011 1.98584 12.7011 1.91116C12.7011 1.83649 12.6864 1.76254 12.6578 1.69355C12.6292 1.62456 12.5873 1.56188 12.5345 1.50908H12.5337C12.4809 1.45614 12.4181 1.41414 12.3491 1.38548C12.28 1.35683 12.206 1.34208 12.1312 1.34208C12.0564 1.34208 11.9824 1.35683 11.9133 1.38548C11.8442 1.41414 11.7815 1.45614 11.7287 1.50908L11.0461 2.19166ZM7.01692 1.77406H2.34792C1.72521 1.77406 1.12801 2.02143 0.687689 2.46175C0.247369 2.90207 0 3.49927 0 4.12198V11.6521C0 12.2748 0.247369 12.872 0.687689 13.3123C1.12801 13.7526 1.72521 14 2.34792 14H9.9015C10.5242 14 11.1214 13.7526 11.5617 13.3123C12.002 12.872 12.2494 12.2748 12.2494 11.6521V7.00405L10.9077 8.34571V11.6529C10.9077 11.9198 10.8017 12.1757 10.613 12.3644C10.4243 12.5532 10.1684 12.6592 9.9015 12.6592H2.34792C2.08104 12.6592 1.8251 12.5532 1.63639 12.3644C1.44768 12.1757 1.34167 11.9198 1.34167 11.6529V4.12282C1.34167 3.85594 1.44768 3.6 1.63639 3.41129C1.8251 3.22258 2.08104 3.11657 2.34792 3.11657H5.67525L7.01692 1.7749V1.77406Z" fill="currentColor"/>
</svg>
