<svg width="24" height="24" viewBox="0 0 24 24" fill="currentColor" xmlns="http://www.w3.org/2000/svg">
<path d="M19.1 4.00008C19.5683 4.02305 20.0303 4.11748 20.47 4.28008C21.1998 4.56956 21.8286 5.06689 22.2783 5.71039C22.728 6.3539 22.979 7.11527 23 7.90008C23.03 10.6301 23.03 13.3701 23 16.1001C22.9638 17.0259 22.6189 17.913 22.02 18.6201C21.6552 19.0395 21.2073 19.3787 20.7047 19.6162C20.2021 19.8537 19.6557 19.9844 19.1 20.0001C14.37 20.0601 9.63004 20.0601 4.90004 20.0001C4.43171 19.9776 3.96964 19.8831 3.53004 19.7201C2.80101 19.4295 2.17297 18.9319 1.72339 18.2886C1.27381 17.6454 1.02236 16.8846 1.00004 16.1001C0.970039 13.3701 0.970039 10.6301 1.00004 7.90008C1.02781 6.8745 1.44761 5.89857 2.17307 5.17311C2.89853 4.44765 3.87446 4.02785 4.90004 4.00008C9.63004 3.94008 14.37 3.94008 19.1 4.00008ZM5.00004 6.00008C4.47968 6.00492 3.98126 6.21039 3.60867 6.57367C3.23607 6.93695 3.01805 7.43001 3.00004 7.95008C2.96587 10.65 2.96587 13.3502 3.00004 16.0501C3.01748 16.5617 3.22853 17.0476 3.59051 17.4096C3.95249 17.7716 4.43841 17.9826 4.95004 18.0001C9.65004 18.0601 14.35 18.0601 19.05 18.0001C19.5617 17.9826 20.0476 17.7716 20.4096 17.4096C20.7716 17.0476 20.9826 16.5617 21 16.0501C21.0342 13.3502 21.0342 10.65 21 7.95008C20.9826 7.43845 20.7716 6.95253 20.4096 6.59055C20.0476 6.22857 19.5617 6.01752 19.05 6.00008C14.37 5.94008 9.68004 6.00008 5.00004 6.00008ZM7.00004 13.8801C7.14712 13.8801 7.29276 13.909 7.42864 13.9653C7.56453 14.0216 7.688 14.1041 7.792 14.2081C7.896 14.3121 7.9785 14.4356 8.03478 14.5715C8.09107 14.7074 8.12004 14.853 8.12004 15.0001C8.12004 15.1472 8.09107 15.2928 8.03478 15.4287C7.9785 15.5646 7.896 15.688 7.792 15.792C7.688 15.896 7.56453 15.9785 7.42864 16.0348C7.29276 16.0911 7.14712 16.1201 7.00004 16.1201C6.703 16.1201 6.41812 16.0021 6.20808 15.792C5.99804 15.582 5.88004 15.2971 5.88004 15.0001C5.88004 14.703 5.99804 14.4182 6.20808 14.2081C6.41812 13.9981 6.703 13.8801 7.00004 13.8801ZM11 13.9101C11.1526 13.8955 11.3066 13.9129 11.452 13.9613C11.5975 14.0097 11.7312 14.088 11.8447 14.1911C11.9581 14.2942 12.0487 14.4198 12.1107 14.56C12.1728 14.7002 12.2048 14.8518 12.2048 15.0051C12.2048 15.1584 12.1728 15.31 12.1107 15.4501C12.0487 15.5903 11.9581 15.716 11.8447 15.8191C11.7312 15.9222 11.5975 16.0004 11.452 16.0488C11.3066 16.0972 11.1526 16.1147 11 16.1001C10.7083 16.1001 10.4285 15.9842 10.2222 15.7779C10.0159 15.5716 9.90004 15.2918 9.90004 15.0001C9.90004 14.7083 10.0159 14.4286 10.2222 14.2223C10.4285 14.016 10.7083 13.9001 11 13.9001V13.9101ZM17.44 10.1101L17.67 8.93008C17.73 8.63008 17.77 8.47008 17.94 8.31008C18.04 8.21008 18.19 8.16008 18.36 8.16008C18.54 8.16008 18.73 8.23008 18.86 8.36008C19.09 8.58008 19.04 8.89008 18.98 9.19008L18.79 10.1101H18.99C19.31 10.1101 19.44 10.1201 19.57 10.1901C19.76 10.2901 19.88 10.4901 19.88 10.7501C19.88 11.0201 19.76 11.2101 19.58 11.3101C19.44 11.3801 19.31 11.3901 18.99 11.3901H18.54L18.28 12.6601H18.61C18.93 12.6601 19.05 12.6801 19.19 12.7501C19.37 12.8501 19.49 13.0401 19.49 13.3001C19.49 13.5701 19.37 13.7701 19.19 13.8601C19.05 13.9301 18.93 13.9401 18.61 13.9401H18.03L17.76 15.2701C17.7 15.5701 17.66 15.7301 17.5 15.8901C17.39 15.9901 17.25 16.0401 17.08 16.0401C16.8942 16.0386 16.7157 15.9672 16.58 15.8401C16.35 15.6201 16.4 15.3101 16.46 15.0101L16.67 13.9401H15.37L15.1 15.2701C15.04 15.5701 15 15.7301 14.83 15.8901C14.73 15.9901 14.58 16.0401 14.41 16.0401C14.2276 16.0361 14.0531 15.9649 13.92 15.8401C13.68 15.6201 13.74 15.3101 13.8 15.0101L14 13.9401H13.8C13.49 13.9401 13.36 13.9401 13.23 13.8601C13.04 13.7601 12.92 13.5701 12.92 13.3001C12.92 13.0401 13.04 12.8401 13.22 12.7501C13.36 12.6801 13.49 12.6601 13.81 12.6601H14.26L14.52 11.3901H14.19C13.87 11.3901 13.75 11.3801 13.61 11.3101C13.43 11.2101 13.31 11.0101 13.31 10.7501C13.31 10.4801 13.43 10.2901 13.61 10.1901C13.75 10.1201 13.87 10.1101 14.19 10.1101H14.77L15.01 8.93008C15.07 8.63008 15.11 8.47008 15.28 8.31008C15.38 8.21008 15.53 8.16008 15.69 8.16008C15.87 8.16008 16.06 8.23008 16.19 8.36008C16.43 8.58008 16.37 8.89008 16.31 9.19008L16.13 10.1101H17.43H17.44ZM9.30004 9.91008C9.30004 8.58008 8.25004 7.73008 6.94004 7.73008C6.26004 7.73008 5.59004 7.96008 5.16004 8.33008C4.71004 8.73008 4.52004 9.33008 4.52004 9.67008C4.52004 9.90008 4.62004 10.0901 4.74004 10.2001C4.86004 10.3201 5.04004 10.4001 5.24004 10.4001C5.45004 10.4001 5.60004 10.3301 5.74004 10.2201C6.08004 9.97008 6.16004 9.59008 6.29004 9.45008C6.37393 9.35996 6.4764 9.28914 6.59036 9.24252C6.70431 9.1959 6.82704 9.1746 6.95004 9.18008C7.50004 9.18008 7.71004 9.45008 7.71004 9.93008C7.71004 10.2301 7.47004 10.6001 7.28004 10.8201L6.63004 11.6501C6.35004 12.0501 6.23004 12.3501 6.25004 12.6801C6.27004 13.0401 6.53004 13.3501 6.82004 13.3801C7.06004 13.4001 7.42004 13.3801 7.61004 13.0001C7.74004 12.7501 8.14004 12.2701 8.34004 11.9301L8.81004 11.3101C9.15004 10.8801 9.30004 10.5101 9.30004 9.91008ZM11.84 8.74008C11.84 8.38008 11.83 8.25008 11.73 8.06008C11.6 7.84008 11.33 7.69008 11 7.69008C10.67 7.69008 10.4 7.84008 10.27 8.06008C10.17 8.25008 10.16 8.38008 10.16 8.74008V12.1901C10.16 12.5501 10.16 12.6901 10.27 12.8701C10.4 13.0901 10.67 13.2401 11 13.2401C11.33 13.2401 11.6 13.0901 11.73 12.8701C11.83 12.6801 11.84 12.5501 11.84 12.1901V8.74008ZM16.93 12.6601L17.18 11.3901H15.88L15.62 12.6601H16.92H16.93Z" fill="currentColor"/>
</svg>
