<svg width="24" height="24" viewBox="0 0 24 24" fill="currentColor" xmlns="http://www.w3.org/2000/svg">
<path fill-rule="evenodd" clip-rule="evenodd" d="M14.0682 3.40513C14.6268 2.84435 15.4128 2.45516 16.2804 2.60119C17.1526 2.74801 17.7614 3.37726 18.0903 4.09747C18.4203 4.81986 18.5136 5.70705 18.3491 6.59723C18.1846 7.48776 17.78 8.28598 17.2175 8.85068C16.6589 9.41146 15.8729 9.80065 15.0053 9.65462C14.133 9.5078 13.5243 8.87855 13.1954 8.15834C12.8654 7.43595 12.7721 6.54876 12.9366 5.65858C13.101 4.76805 13.5056 3.96983 14.0682 3.40513ZM15.2827 4.61496C14.9916 4.90724 14.7314 5.37954 14.6223 5.96994C14.5132 6.56069 14.5895 7.08444 14.7547 7.44607C14.9208 7.80987 15.133 7.93771 15.2898 7.96411C15.4514 7.9913 15.7079 7.93705 16.003 7.64085C16.2941 7.34857 16.5543 6.87627 16.6634 6.28587C16.7725 5.69512 16.6962 5.17137 16.531 4.80974C16.3648 4.44594 16.1527 4.3181 15.9958 4.2917C15.8343 4.26451 15.5778 4.31876 15.2827 4.61496Z" fill="currentColor"/>
<path fill-rule="evenodd" clip-rule="evenodd" d="M9.26374 11.6795C9.8963 10.9008 10.7626 10.285 12 10.285C13.2397 10.285 14.1059 10.9063 14.737 11.6851C15.2603 12.3309 15.6743 13.1535 16.0415 13.883C16.0927 13.9847 16.143 14.0846 16.1925 14.182C16.4915 14.7696 16.7796 15.2276 17.0492 15.6564C17.1488 15.8148 17.2461 15.9695 17.3403 16.1249C17.6617 16.6553 18.0002 17.2734 18 17.9964C17.9999 18.583 17.8565 19.096 17.5596 19.5127C17.2649 19.9265 16.8696 20.1743 16.4873 20.3219C15.8263 20.5772 15.0739 20.5732 14.6665 20.5711C14.6323 20.5709 14.6005 20.5707 14.5715 20.5707C14.1083 20.5707 13.7393 20.5062 13.4128 20.4492L13.3016 20.4298C12.9525 20.37 12.5762 20.3136 12 20.3136C11.4238 20.3136 11.0475 20.37 10.6984 20.4298L10.5873 20.4491C10.2608 20.5062 9.89172 20.5707 9.42861 20.5707L9.42621 20.5707L9.24412 20.5702L9.2397 20.5702C8.79279 20.5666 8.02355 20.5446 7.35144 20.2289C6.99734 20.0626 6.64576 19.8044 6.38711 19.4088C6.12714 19.0112 6.00004 18.5343 6.00003 17.9962C6.00003 17.3006 6.3443 16.68 6.65755 16.157C6.74712 16.0074 6.83989 15.8574 6.93532 15.7031C7.20808 15.262 7.50256 14.7859 7.80635 14.1843C7.85215 14.0936 7.89856 14.0009 7.94571 13.9067C8.31662 13.1655 8.73366 12.3321 9.26374 11.6795ZM9.47518 14.6817C9.42987 14.7719 9.38374 14.8637 9.33657 14.9571C8.99598 15.6315 8.64554 16.1979 8.36651 16.6489C8.2793 16.7898 8.19901 16.9196 8.12824 17.0378C7.79862 17.5881 7.71432 17.8317 7.71432 17.9962C7.71432 18.2596 7.77389 18.3972 7.82192 18.4706C7.87126 18.5461 7.94902 18.6156 8.08026 18.6772C8.37833 18.8172 8.80287 18.8523 9.25117 18.8559L9.25333 18.856L9.42861 18.8564H9.42976C9.73737 18.8563 9.96577 18.8168 10.2994 18.7591L10.4088 18.7402C10.8096 18.6715 11.2905 18.5993 12 18.5993C12.7095 18.5993 13.1904 18.6715 13.5913 18.7402L13.7007 18.7591C14.0347 18.8169 14.2633 18.8564 14.5715 18.8564L14.6053 18.8564C15.0747 18.8565 15.5231 18.8566 15.8697 18.7227C16.0231 18.6635 16.1099 18.5932 16.1634 18.5181C16.2147 18.446 16.2857 18.2993 16.2857 17.9961C16.2858 17.7964 16.1957 17.5439 15.8742 17.0133C15.8021 16.8945 15.7196 16.7632 15.6294 16.6199C15.3521 16.179 15.0024 15.6231 14.6647 14.9595C14.6112 14.8543 14.559 14.751 14.5078 14.6498C14.1269 13.8961 13.8033 13.2558 13.4051 12.7644C12.9883 12.2501 12.5688 11.9993 12 11.9993C11.4291 11.9993 11.0097 12.2491 10.5943 12.7604C10.191 13.2569 9.86319 13.9094 9.47518 14.6817Z" fill="currentColor"/>
<path fill-rule="evenodd" clip-rule="evenodd" d="M11.0634 5.65858C10.8989 4.76805 10.4943 3.96983 9.9318 3.40513C9.37319 2.84435 8.58719 2.45516 7.71959 2.60119C6.84733 2.74801 6.23863 3.37726 5.90964 4.09747C5.57967 4.81986 5.48643 5.70705 5.65085 6.59723C5.81533 7.48776 6.21993 8.28598 6.78246 8.85068C7.34107 9.41146 8.12707 9.80065 8.99468 9.65462C9.86693 9.5078 10.4756 8.87855 10.8046 8.15834C11.1346 7.43595 11.2278 6.54876 11.0634 5.65858ZM8.00413 4.2917C8.16565 4.26451 8.42222 4.31876 8.71728 4.61496C9.00842 4.90724 9.2686 5.37954 9.37765 5.96994C9.48676 6.56069 9.4105 7.08444 9.24531 7.44607C9.07913 7.80987 8.86701 7.93771 8.71013 7.96411C8.54861 7.9913 8.29204 7.93705 7.99698 7.64085C7.70584 7.34857 7.44567 6.87627 7.33662 6.28587C7.22751 5.69512 7.30377 5.17137 7.46895 4.80974C7.63513 4.44594 7.84726 4.3181 8.00413 4.2917Z" fill="currentColor"/>
<path fill-rule="evenodd" clip-rule="evenodd" d="M4.82997 8.94865C5.47754 9.31578 6.04415 9.9242 6.4182 10.6719C6.79172 11.4185 6.93554 12.2297 6.8162 12.9575C6.6965 13.6875 6.28974 14.4024 5.51839 14.7377C4.76137 15.0667 3.95315 14.8988 3.31286 14.5358C2.66529 14.1686 2.09869 13.5602 1.72464 12.8125C1.35112 12.0659 1.20729 11.2547 1.32663 10.5269C1.44634 9.79689 1.8531 9.08201 2.62445 8.74674C3.38147 8.41771 4.18969 8.58564 4.82997 8.94865ZM3.98449 10.4399C3.65282 10.2519 3.4235 10.2687 3.3078 10.3189C3.20642 10.363 3.0705 10.4861 3.01832 10.8043C2.96578 11.1248 3.02086 11.572 3.25777 12.0456C3.49416 12.5181 3.83395 12.8606 4.15834 13.0445C4.49002 13.2325 4.71933 13.2158 4.83504 13.1655C4.93642 13.1214 5.07234 12.9983 5.12451 12.6801C5.17706 12.3597 5.12198 11.9125 4.88506 11.4389C4.64867 10.9664 4.30889 10.6238 3.98449 10.4399Z" fill="currentColor"/>
<path fill-rule="evenodd" clip-rule="evenodd" d="M21.4067 8.7725C20.6196 8.39236 19.7804 8.59251 19.136 8.99849C18.486 9.40791 17.9301 10.0774 17.5669 10.8842C17.2033 11.6916 17.0689 12.5558 17.1817 13.3206C17.2928 14.0733 17.672 14.8499 18.4506 15.2259C19.2377 15.606 20.0768 15.4059 20.7213 14.9999C21.3713 14.5905 21.9272 13.921 22.2904 13.1142C22.654 12.3068 22.7884 11.4426 22.6755 10.6778C22.5644 9.92506 22.1853 9.14849 21.4067 8.7725ZM19.13 11.588C19.3772 11.0389 19.7277 10.6518 20.0497 10.449C20.3772 10.2427 20.5756 10.2749 20.6612 10.3162C20.7553 10.3617 20.9188 10.5162 20.9796 10.9281C21.0387 11.3281 20.9742 11.8621 20.7273 12.4104C20.4801 12.9594 20.1296 13.3466 19.8076 13.5494C19.4801 13.7557 19.2817 13.7235 19.1961 13.6822C19.1019 13.6367 18.9384 13.4822 18.8777 13.0703C18.8186 12.6703 18.8831 12.1363 19.13 11.588Z" fill="currentColor"/>
</svg>
