<svg width="25" height="24" viewBox="0 0 25 24" fill="none" xmlns="http://www.w3.org/2000/svg">
<path d="M12.5001 1.71387C18.1807 1.71387 22.7858 6.31894 22.7858 11.9996C22.7858 17.6802 18.1807 22.2853 12.5001 22.2853C6.81943 22.2853 2.21436 17.6802 2.21436 11.9996C2.21436 6.31894 6.81943 1.71387 12.5001 1.71387ZM12.5001 3.42815C7.7662 3.42815 3.92864 7.26571 3.92864 11.9996C3.92864 16.7335 7.7662 20.571 12.5001 20.571C17.2339 20.571 21.0715 16.7335 21.0715 11.9996C21.0715 7.26571 17.2339 3.42815 12.5001 3.42815ZM12.5001 15.0853C13.1628 15.0853 13.7001 15.6226 13.7001 16.2853C13.7001 16.948 13.1628 17.4853 12.5001 17.4853C11.8373 17.4853 11.3001 16.948 11.3001 16.2853C11.3001 15.6226 11.8373 15.0853 12.5001 15.0853ZM12.5632 6.85672C12.7668 6.85672 12.8947 6.88855 13.0064 6.94831C13.1182 7.00808 13.2059 7.09577 13.2656 7.20752C13.3254 7.31927 13.3572 7.44711 13.3572 7.65076V12.9198C13.3572 13.1235 13.3254 13.2513 13.2656 13.3631C13.2059 13.4748 13.1182 13.5625 13.0064 13.6223C12.8947 13.682 12.7668 13.7139 12.5632 13.7139H12.437C12.2333 13.7139 12.1055 13.682 11.9937 13.6223C11.882 13.5625 11.7943 13.4748 11.7345 13.3631C11.6748 13.2513 11.6429 13.1235 11.6429 12.9198V7.65076C11.6429 7.44711 11.6748 7.31927 11.7345 7.20752C11.7943 7.09577 11.882 7.00808 11.9937 6.94831C12.1055 6.88855 12.2333 6.85672 12.437 6.85672H12.5632Z" fill="#FFB73D"/>
</svg>
