<svg width="18" height="18" viewBox="0 0 18.01 18.01" fill="none" xmlns="http://www.w3.org/2000/svg">
<path fill-rule="evenodd" clip-rule="evenodd" d="M14.7637 7.1193C14.7637 6.64459 14.3788 6.25977 13.9041 6.25977H6.27328C3.77067 6.25977 1.79961 8.36069 1.79961 10.8798C1.79961 13.3989 3.77067 15.4998 6.27328 15.4998H7.95979C8.4345 15.4998 8.81933 15.1149 8.81933 14.6402C8.81933 14.1655 8.4345 13.7807 7.95979 13.7807H6.27328C4.78377 13.7807 3.51868 12.5144 3.51868 10.8798C3.51868 9.24515 4.78377 7.97884 6.27328 7.97884H13.9041C14.3788 7.97884 14.7637 7.59401 14.7637 7.1193Z" fill="CurrentColor"/>
<path fill-rule="evenodd" clip-rule="evenodd" d="M11.1594 2.75077C10.8232 3.0859 10.8223 3.63012 11.1574 3.96633L14.339 7.15818L11.1574 10.3501C10.8223 10.6863 10.8232 11.2305 11.1594 11.5656C11.4956 11.9008 12.0398 11.8999 12.375 11.5637L16.1613 7.76497C16.4957 7.42953 16.4957 6.88682 16.1613 6.55138L12.375 2.75274C12.0398 2.41652 11.4956 2.41564 11.1594 2.75077Z" fill="CurrentColor"/>
</svg>
