<svg width="20" height="20" viewBox="0 0 21 21" fill="none" xmlns="http://www.w3.org/2000/svg">
<path d="M9.99967 2.5C12.3009 2.5 14.1663 4.36548 14.1663 6.66667L14.1655 8.33333H14.5298C15.2727 8.33333 15.5421 8.41069 15.8137 8.55594C16.0853 8.7012 16.2985 8.91436 16.4437 9.18596C16.589 9.45757 16.6663 9.72697 16.6663 10.4699V15.3634C16.6663 16.1064 16.589 16.3758 16.4437 16.6474C16.2985 16.919 16.0853 17.1321 15.8137 17.2774C15.5421 17.4226 15.2727 17.5 14.5298 17.5H5.46958C4.72665 17.5 4.45724 17.4226 4.18564 17.2774C3.91403 17.1321 3.70087 16.919 3.55562 16.6474C3.41036 16.3758 3.33301 16.1064 3.33301 15.3634V10.4699C3.33301 9.72697 3.41036 9.45757 3.55562 9.18596C3.70087 8.91436 3.91403 8.7012 4.18564 8.55594C4.45724 8.41069 4.72665 8.33333 5.46958 8.33333H5.83217L5.83301 6.66667C5.83301 4.36548 7.69849 2.5 9.99967 2.5ZM9.99967 4.16667C8.61896 4.16667 7.49967 5.28595 7.49967 6.66667L7.49884 8.33333H12.4988L12.4997 6.66667C12.4997 5.28595 11.3804 4.16667 9.99967 4.16667Z" fill="CurrentColor"/>
</svg>
