<?xml version="1.0" encoding="UTF-8"?>
<svg xmlns="http://www.w3.org/2000/svg" xmlns:xlink="http://www.w3.org/1999/xlink" width="20px" height="20px" viewBox="0 0 20 20" version="1.1">
<g id="surface1">
<path fill="CurrentColor" style=" stroke:none;fill-rule:evenodd;fill-opacity:1;" d="M 8.53125 15.953125 C 8.46875 16.109375 8.4375 16.269531 8.4375 16.449219 C 8.4375 17.273438 9.136719 17.9375 10 17.9375 C 10.863281 17.9375 11.5625 17.273438 11.5625 16.449219 C 11.5625 16.269531 11.519531 16.109375 11.46875 15.953125 Z M 8.53125 15.953125 "/>
<path fill="CurrentColor" style=" stroke:none;fill-rule:evenodd;fill-opacity:1;" d="M 16.34375 13.222656 C 15.71875 12.875 15.207031 12.292969 15.207031 11.386719 L 15.207031 8.015625 C 15.207031 5.277344 12.75 3.054688 10 3.054688 C 7.25 3.054688 4.792969 5.277344 4.792969 8.015625 L 4.792969 11.386719 C 4.792969 12.28125 4.269531 12.875 3.65625 13.222656 C 3.238281 13.460938 2.707031 13.789062 2.707031 14.1875 C 2.707031 14.640625 3.011719 14.949219 3.636719 14.949219 L 16.363281 14.949219 C 16.988281 14.949219 17.292969 14.632812 17.292969 14.1875 C 17.292969 13.789062 16.769531 13.460938 16.34375 13.222656 Z M 16.34375 13.222656 "/>
<path fill="CurrentColor" style=" stroke:none;fill-rule:nonzero;fill-opacity:1;" d="M 10 4.046875 C 10.574219 4.046875 11.042969 3.605469 11.042969 3.054688 C 11.042969 2.507812 10.574219 2.0625 10 2.0625 C 9.425781 2.0625 8.957031 2.507812 8.957031 3.054688 C 8.957031 3.605469 9.425781 4.046875 10 4.046875 Z M 10 4.046875 "/>
</g>
</svg>
