<svg width="32" height="32" viewBox="0 0 33 33" fill="none" xmlns="http://www.w3.org/2000/svg">
<circle cx="16" cy="16" r="16" fill="#0DBD8B"/>
<path d="M13.7213 10.375C14.1224 10.375 14.2679 10.4168 14.4146 10.4952C14.5612 10.5736 14.6764 10.6888 14.7548 10.8354C14.8332 10.9821 14.875 11.1276 14.875 11.5287V20.4713C14.875 20.8724 14.8332 21.0179 14.7548 21.1646C14.6764 21.3112 14.5612 21.4264 14.4146 21.5048C14.2679 21.5832 14.1224 21.625 13.7213 21.625H12.6537C12.2526 21.625 12.1071 21.5832 11.9604 21.5048C11.8138 21.4264 11.6986 21.3112 11.6202 21.1646C11.5418 21.0179 11.5 20.8724 11.5 20.4713V11.5287C11.5 11.1276 11.5418 10.9821 11.6202 10.8354C11.6986 10.6888 11.8138 10.5736 11.9604 10.4952C12.1071 10.4168 12.2526 10.375 12.6537 10.375H13.7213ZM19.3463 10.375C19.7474 10.375 19.8929 10.4168 20.0396 10.4952C20.1862 10.5736 20.3014 10.6888 20.3798 10.8354C20.4582 10.9821 20.5 11.1276 20.5 11.5287V20.4713C20.5 20.8724 20.4582 21.0179 20.3798 21.1646C20.3014 21.3112 20.1862 21.4264 20.0396 21.5048C19.8929 21.5832 19.7474 21.625 19.3463 21.625H18.2787C17.8776 21.625 17.7321 21.5832 17.5854 21.5048C17.4388 21.4264 17.3236 21.3112 17.2452 21.1646C17.1668 21.0179 17.125 20.8724 17.125 20.4713V11.5287C17.125 11.1276 17.1668 10.9821 17.2452 10.8354C17.3236 10.6888 17.4388 10.5736 17.5854 10.4952C17.7321 10.4168 17.8776 10.375 18.2787 10.375H19.3463Z" fill="white"/>
</svg>
