<svg width="20" height="20" viewBox="0 0 20 20" fill="none" xmlns="http://www.w3.org/2000/svg">
<path d="M12.2527 2.66255C12.4805 2.43475 12.8498 2.43475 13.0776 2.66255L17.336 6.92093C17.4454 7.03033 17.5069 7.1787 17.5069 7.33341C17.5069 7.65557 17.2457 7.91674 16.9235 7.91674H15.4152L12.9152 10.4167V15.6349C12.9152 15.794 12.8519 15.9466 12.7394 16.0591C12.5051 16.2935 12.1252 16.2935 11.8909 16.0591L8.65163 12.8192L4.69486 16.7771C4.28807 17.1839 3.62852 17.1839 3.22172 16.7771C2.81493 16.3703 2.81493 15.7107 3.22172 15.3039L7.17829 11.3459L3.93943 8.10767C3.84941 8.01765 3.79095 7.90198 3.77117 7.77783L3.76369 7.68341C3.76369 7.35204 4.03232 7.08341 4.36369 7.08341H9.58183L12.0818 4.58341V3.07503C12.0818 2.92032 12.1433 2.77195 12.2527 2.66255Z" fill="#B2B6BE"/>
</svg>
