<svg width="20" height="20" viewBox="0 0 20 20" fill="none" xmlns="http://www.w3.org/2000/svg">
<path d="M15.9128 3V7.17393" stroke="currentColor" stroke-width="1.3" stroke-linecap="round" stroke-linejoin="round"/>
<path d="M13.826 5.08789H17.9999" stroke="currentColor" stroke-width="1.3" stroke-linecap="round" stroke-linejoin="round"/>
<path d="M6.17384 11.3477C6.17384 11.3477 7.21733 13.0868 8.95647 13.0868C10.6956 13.0868 11.7391 11.3477 11.7391 11.3477" stroke="currentColor" stroke-width="1.3" stroke-linecap="round" stroke-linejoin="round"/>
<path d="M6.86929 7.86914H6.87629" stroke="currentColor" stroke-width="2" stroke-linecap="round" stroke-linejoin="round"/>
<path d="M11.0434 7.86914H11.0504" stroke="currentColor" stroke-width="2" stroke-linecap="round" stroke-linejoin="round"/>
<path d="M15.9131 9.95655C15.9131 11.4301 15.4452 12.8655 14.5769 14.056C13.7085 15.2465 12.4846 16.1305 11.0815 16.5806C9.67843 17.0307 8.16865 17.0237 6.76983 16.5605C5.371 16.0973 4.15538 15.2019 3.2982 14.0034C2.44101 12.8048 1.98654 11.3651 2.0003 9.8916C2.01406 8.41814 2.49534 6.98711 3.37475 5.80479C4.25417 4.62247 5.4863 3.74993 6.89353 3.31294C8.30077 2.87596 9.81041 2.8971 11.2049 3.37333" stroke="currentColor" stroke-width="1.3" stroke-linecap="round"/>
</svg>
