<svg width="24" height="24" viewBox="0 0 24.01 24.01" fill="none" xmlns="http://www.w3.org/2000/svg">
<path fill-rule="evenodd" clip-rule="evenodd" d="M19.7802 12L12.8216 5.95471L12.8216 8.78409C12.8216 9.2372 12.4756 9.65438 11.9752 9.68351C11.6567 9.70205 10.4814 9.78642 9.16604 10.0723C7.81619 10.3656 6.47324 10.84 5.69526 11.5507C4.75607 12.4085 4.23731 13.9907 3.99049 15.6793C3.89519 16.3312 3.8445 16.9687 3.81996 17.5384C3.95275 17.3872 4.09201 17.2329 4.23647 17.0782C4.98866 16.2729 5.95202 15.3808 6.92426 14.9177C7.84146 14.4808 9.01032 14.3337 9.94491 14.2871C10.902 14.2393 11.721 14.293 11.9959 14.3149C12.4835 14.3536 12.8216 14.7627 12.8216 15.2107L12.8216 18.0453L19.7802 12ZM21.4378 11.3206C21.8508 11.6794 21.8508 12.3206 21.4378 12.6794L12.7118 20.2601C12.1292 20.7662 11.2216 20.3524 11.2216 19.5806L11.2216 15.8754C10.8913 15.8652 10.474 15.8626 10.0247 15.8851C9.14009 15.9292 8.23352 16.0663 7.61233 16.3622C6.92614 16.6891 6.13299 17.3918 5.40574 18.1704C4.69536 18.9309 4.11466 19.6904 3.84913 20.0506C3.36646 20.7055 2.27219 20.4403 2.22692 19.5651C2.19322 18.9137 2.14505 17.2421 2.40731 15.4479C2.66329 13.6967 3.24193 11.6246 4.61618 10.3693C5.72612 9.35545 7.43094 8.81201 8.82625 8.50878C9.76519 8.30473 10.634 8.19546 11.2216 8.13856L11.2216 4.41932C11.2216 3.64759 12.1292 3.23378 12.7118 3.7399L21.4378 11.3206Z" fill="currentColor"/>
</svg>
