<svg width="20" height="21" viewBox="0 0 20 21" fill="none" xmlns="http://www.w3.org/2000/svg">
<path d="M9.09629 10.4018C9.09629 9.91449 9.49133 9.51945 9.97865 9.51945C10.466 9.51945 10.861 9.91449 10.861 10.4018V14.0293C10.861 14.5166 10.466 14.9116 9.97865 14.9116C9.49133 14.9116 9.09629 14.5166 9.09629 14.0293V10.4018Z" fill="CurrentColor"/>
<path d="M9.97865 6.08808C9.43719 6.08808 8.99825 6.52701 8.99825 7.06847C8.99825 7.60993 9.43719 8.04886 9.97865 8.04886C10.5201 8.04886 10.959 7.60993 10.959 7.06847C10.959 6.52701 10.5201 6.08808 9.97865 6.08808Z" fill="CurrentColor"/>
<path fill-rule="evenodd" clip-rule="evenodd" d="M9.99996 17.2707C13.7394 17.2707 16.7708 14.2393 16.7708 10.4998C16.7708 6.76041 13.7394 3.729 9.99996 3.729C6.26053 3.729 3.22913 6.76041 3.22913 10.4998C3.22913 14.2393 6.26053 17.2707 9.99996 17.2707ZM9.99996 18.8332C14.6023 18.8332 18.3333 15.1022 18.3333 10.4998C18.3333 5.89746 14.6023 2.1665 9.99996 2.1665C5.39759 2.1665 1.66663 5.89746 1.66663 10.4998C1.66663 15.1022 5.39759 18.8332 9.99996 18.8332Z" fill="CurrentColor"/>
</svg>
