<svg width="32" height="32" viewBox="0 0 32 32" fill="none" xmlns="http://www.w3.org/2000/svg">
<circle cx="16" cy="16" r="16" fill="currentColor"/>
<path d="M10.9532 18.9445C10.4079 20.4045 10.0654 21.4301 9.92547 22.0213C9.48631 23.8773 9.16698 24.2953 10.8038 23.4133C12.4406 22.5312 20.3646 18.1619 22.1325 17.1909C24.437 15.9251 24.4678 16.024 22.0088 14.68C20.136 13.6564 12.3049 9.40103 10.8038 8.56548C9.30266 7.72994 9.48631 8.10149 9.92547 9.95747C10.0672 10.5564 10.4147 11.5911 10.9681 13.0618C11.3533 14.0857 12.2433 14.8355 13.3177 15.0416L17.9125 15.9227C17.9554 15.9312 17.9833 15.9726 17.9747 16.0151C17.9684 16.0462 17.9439 16.0705 17.9125 16.0768L13.3073 16.957C12.2294 17.1631 11.3371 17.9164 10.9532 18.9445Z" fill="white"/>
</svg>
