<svg width="20" height="20" viewBox="0 0 20 20" fill="currentColor" xmlns="http://www.w3.org/2000/svg">
<path fill-rule="evenodd" clip-rule="evenodd" d="M19.0721 10.2057C19.3318 10.4609 19.3551 10.8659 19.1397 11.148L19.0809 11.2158L14.179 16.2158C13.9211 16.4782 13.511 16.4989 13.2291 16.2775L13.1614 16.2171L10.2062 13.2259C9.92891 12.9452 9.93165 12.493 10.2123 12.2157C10.4713 11.9598 10.8766 11.9424 11.1555 12.162L11.2224 12.2218L13.6679 14.6973L18.062 10.2144C18.3385 9.93309 18.7908 9.92917 19.0721 10.2057ZM6.78571 12.1437C7.1802 12.1437 7.5 12.4635 7.5 12.858C7.5 13.2525 7.1802 13.5723 6.78571 13.5723H3.21429C2.8198 13.5723 2.5 13.2525 2.5 12.858C2.5 12.4635 2.8198 12.1437 3.21429 12.1437H6.78571ZM15.3571 7.85798C15.7516 7.85798 16.0714 8.17778 16.0714 8.57227C16.0714 8.96675 15.7516 9.28655 15.3571 9.28655H3.21429C2.8198 9.28655 2.5 8.96675 2.5 8.57227C2.5 8.17778 2.8198 7.85798 3.21429 7.85798H15.3571ZM15.3571 3.57227C15.7516 3.57227 16.0714 3.89206 16.0714 4.28655C16.0714 4.68104 15.7516 5.00084 15.3571 5.00084H3.21429C2.8198 5.00084 2.5 4.68104 2.5 4.28655C2.5 3.89206 2.8198 3.57227 3.21429 3.57227H15.3571Z"/>
</svg>
