<svg width="16" height="16" viewBox="0 0 16 16" fill="none" xmlns="http://www.w3.org/2000/svg">
<path fill-rule="evenodd" clip-rule="evenodd" d="M10.9831 3.74762C11.312 4.07649 11.312 4.60968 10.9831 4.93854L4.24625 11.6754C3.91739 12.0042 3.3842 12.0042 3.05534 11.6754L0.246647 8.86669C-0.0822156 8.53783 -0.0822157 8.00464 0.246647 7.67578C0.575509 7.34691 1.1087 7.34691 1.43756 7.67578L3.6508 9.88901L9.79218 3.74762C10.121 3.41876 10.6542 3.41876 10.9831 3.74762Z" fill="currentColor"/>
<path fill-rule="evenodd" clip-rule="evenodd" d="M15.7534 3.74763C16.0822 4.07649 16.0822 4.60968 15.7534 4.93855L9.01651 11.6754C8.68765 12.0042 8.15446 12.0042 7.82559 11.6754C7.49673 11.3465 7.49673 10.8133 7.82559 10.4845L14.5624 3.74763C14.8913 3.41877 15.4245 3.41877 15.7534 3.74763Z" fill="currentColor"/>
</svg>
