<svg width="16" height="16" viewBox="0 0 16 16" fill="none" xmlns="http://www.w3.org/2000/svg">
<path d="M1.5 3.89062H2.94444H14.5" stroke="currentColor" stroke-width="1.4" stroke-linecap="round" stroke-linejoin="round"/>
<path d="M5.11112 3.88889V2.44444C5.11112 2.06135 5.26331 1.69395 5.53419 1.42307C5.80508 1.15218 6.17248 1 6.55557 1H9.44446C9.82755 1 10.1949 1.15218 10.4658 1.42307C10.7367 1.69395 10.8889 2.06135 10.8889 2.44444V3.88889M13.0556 3.88889V14C13.0556 14.3831 12.9034 14.7505 12.6325 15.0214C12.3616 15.2923 11.9942 15.4444 11.6111 15.4444H4.3889C4.00581 15.4444 3.63841 15.2923 3.36753 15.0214C3.09664 14.7505 2.94446 14.3831 2.94446 14V3.88889H13.0556Z" stroke="currentColor" stroke-width="1.4" stroke-linecap="round" stroke-linejoin="round"/>
<path d="M6.55554 7.5V11.8333" stroke="currentColor" stroke-width="1.4" stroke-linecap="round" stroke-linejoin="round"/>
<path d="M9.44446 7.5V11.8333" stroke="currentColor" stroke-width="1.4" stroke-linecap="round" stroke-linejoin="round"/>
</svg>
