<svg width="16" height="16" viewBox="0 0 17 17" fill="none" xmlns="http://www.w3.org/2000/svg">
<path d="M5.5 3.5C5.5 2.11929 6.61929 1 8 1C9.38071 1 10.5 2.11929 10.5 3.5V7.5C10.5 8.88071 9.38071 10 8 10C6.61929 10 5.5 8.88071 5.5 7.5V3.5Z" fill="CurrentColor"/>
<path d="M7.375 13.125C7.375 12.7798 7.65482 12.5 8 12.5C8.34518 12.5 8.625 12.7798 8.625 13.125V14.375C8.625 14.7202 8.34518 15 8 15C7.65482 15 7.375 14.7202 7.375 14.375V13.125Z" fill="CurrentColor"/>
<path d="M14 7.125C14 7.47018 13.7202 7.75 13.375 7.75C13.0298 7.75 12.75 7.47018 12.75 7.125C12.75 6.77982 13.0298 6.5 13.375 6.5C13.7202 6.5 14 6.77982 14 7.125Z" fill="CurrentColor"/>
<path d="M3.25 7.125C3.25 7.47018 2.97018 7.75 2.625 7.75C2.27982 7.75 2 7.47018 2 7.125C2 6.77982 2.27982 6.5 2.625 6.5C2.97018 6.5 3.25 6.77982 3.25 7.125Z" fill="CurrentColor"/>
<path d="M8 13C11.3137 13 14 10.3137 14 7H12.75C12.75 9.62335 10.6234 11.75 8 11.75C5.37665 11.75 3.25 9.62335 3.25 7H2C2 10.3137 4.68629 13 8 13Z" fill="CurrentColor"/>
</svg>
