<svg width="18" height="18" viewBox="0 0 18.01 18.01" fill="none" xmlns="http://www.w3.org/2000/svg">
<g id="check-circle">
<path id="Vector (Stroke)" fill-rule="evenodd" clip-rule="evenodd" d="M9 2.6C7.30261 2.6 5.67475 3.27428 4.47452 4.47452C3.27428 5.67475 2.6 7.30261 2.6 9C2.6 9.84046 2.76554 10.6727 3.08717 11.4492C3.4088 12.2257 3.88022 12.9312 4.47452 13.5255C5.06881 14.1198 5.77434 14.5912 6.55083 14.9128C7.32731 15.2345 8.15954 15.4 9 15.4C9.84046 15.4 10.6727 15.2345 11.4492 14.9128C12.2257 14.5912 12.9312 14.1198 13.5255 13.5255C14.1198 12.9312 14.5912 12.2257 14.9128 11.4492C15.2345 10.6727 15.4 9.84046 15.4 9C15.4 7.30261 14.7257 5.67475 13.5255 4.47452C12.3253 3.27428 10.6974 2.6 9 2.6ZM3.34315 3.34315C4.84344 1.84285 6.87827 1 9 1C11.1217 1 13.1566 1.84285 14.6569 3.34315C16.1571 4.84344 17 6.87827 17 9C17 10.0506 16.7931 11.0909 16.391 12.0615C15.989 13.0321 15.3997 13.914 14.6569 14.6569C13.914 15.3997 13.0321 15.989 12.0615 16.391C11.0909 16.7931 10.0506 17 9 17C7.94943 17 6.90914 16.7931 5.93853 16.391C4.96793 15.989 4.08601 15.3997 3.34315 14.6569C2.60028 13.914 2.011 13.0321 1.60896 12.0615C1.20693 11.0909 1 10.0506 1 9C1 6.87827 1.84285 4.84344 3.34315 3.34315ZM11.9657 6.83431C12.2781 7.14673 12.2781 7.65327 11.9657 7.96569L8.76569 11.1657C8.45327 11.4781 7.94673 11.4781 7.63432 11.1657L6.03431 9.56569C5.7219 9.25327 5.7219 8.74673 6.03431 8.43431C6.34673 8.1219 6.85327 8.1219 7.16569 8.43431L8.2 9.46863L10.8343 6.83431C11.1467 6.5219 11.6533 6.5219 11.9657 6.83431Z" fill="CurrentColor"/>
</g>
</svg>
