<svg width="18" height="18" viewBox="0 0 18.01 18.01" fill="none" xmlns="http://www.w3.org/2000/svg">
<path d="M3 13.5C2.17088 13.4959 1.5 12.8226 1.5 11.9925V4.13812C1.5 2.68113 2.68113 1.5 4.13812 1.5H11.9925C12.8226 1.5 13.4959 2.17088 13.5 3H5.07281C3.92803 3 3 3.92803 3 5.07281V13.5ZM6.0075 4.5H14.9925C15.8251 4.5 16.5 5.17493 16.5 6.0075V14.9925C16.5 15.8251 15.8251 16.5 14.9925 16.5H6.0075C5.17493 16.5 4.5 15.8251 4.5 14.9925V6.0075C4.5 5.17493 5.17493 4.5 6.0075 4.5ZM6.75 6C6.33579 6 6 6.33579 6 6.75V14.25C6 14.6642 6.33579 15 6.75 15H14.25C14.6642 15 15 14.6642 15 14.25V6.75C15 6.33579 14.6642 6 14.25 6H6.75Z" fill="CurrentColor"/>
</svg>
