<svg width="21" height="20" viewBox="0 0 21 20" fill="none" xmlns="http://www.w3.org/2000/svg">
<g id="Frame 3">
<g id="Group 6">
<g id="Vector">
<path d="M10.5 15.3182C13.4372 15.3182 15.8182 12.9371 15.8182 10C15.8182 7.06284 13.4372 4.68181 10.5 4.68181C7.56286 4.68181 5.18183 7.06284 5.18183 10C5.18183 12.9371 7.56286 15.3182 10.5 15.3182Z" fill="#5159F6"/>
<path fill-rule="evenodd" clip-rule="evenodd" d="M10.5 1C10.9519 1 11.3182 1.36631 11.3182 1.81818V1.88364C11.3182 2.33551 10.9519 2.70182 10.5 2.70182C10.0481 2.70182 9.68182 2.33551 9.68182 1.88364V1.81818C9.68182 1.36631 10.0481 1 10.5 1ZM4.07964 3.57964C4.39916 3.26012 4.9172 3.26012 5.23672 3.57964L5.34309 3.686C5.66261 4.00552 5.66261 4.52357 5.34309 4.84309C5.02357 5.16261 4.50552 5.16261 4.186 4.84309L4.07964 4.73672C3.76012 4.4172 3.76012 3.89916 4.07964 3.57964ZM16.9204 3.57964C17.2399 3.89916 17.2399 4.4172 16.9204 4.73672L16.814 4.84309C16.4945 5.16261 15.9764 5.16261 15.6569 4.84309C15.3374 4.52357 15.3374 4.00552 15.6569 3.686L15.7633 3.57964C16.0828 3.26012 16.6008 3.26012 16.9204 3.57964ZM1.5 10C1.5 9.54813 1.86631 9.18182 2.31818 9.18182H2.38364C2.83551 9.18182 3.20182 9.54813 3.20182 10C3.20182 10.4519 2.83551 10.8182 2.38364 10.8182H2.31818C1.86631 10.8182 1.5 10.4519 1.5 10ZM17.7982 10C17.7982 9.54813 18.1645 9.18182 18.6164 9.18182H18.6818C19.1337 9.18182 19.5 9.54813 19.5 10C19.5 10.4519 19.1337 10.8182 18.6818 10.8182H18.6164C18.1645 10.8182 17.7982 10.4519 17.7982 10ZM5.34309 15.1569C5.66261 15.4764 5.66261 15.9945 5.34309 16.314L5.23672 16.4204C4.9172 16.7399 4.39916 16.7399 4.07964 16.4204C3.76012 16.1008 3.76012 15.5828 4.07964 15.2633L4.186 15.1569C4.50552 14.8374 5.02357 14.8374 5.34309 15.1569ZM15.6569 15.1569C15.9764 14.8374 16.4945 14.8374 16.814 15.1569L16.9204 15.2633C17.2399 15.5828 17.2399 16.1008 16.9204 16.4204C16.6008 16.7399 16.0828 16.7399 15.7633 16.4204L15.6569 16.314C15.3374 15.9945 15.3374 15.4764 15.6569 15.1569ZM10.5 17.2982C10.9519 17.2982 11.3182 17.6645 11.3182 18.1164V18.1818C11.3182 18.6337 10.9519 19 10.5 19C10.0481 19 9.68182 18.6337 9.68182 18.1818V18.1164C9.68182 17.6645 10.0481 17.2982 10.5 17.2982Z" fill="#5159F6"/>
</g>
</g>
</g>
</svg>
