<svg width="18" height="18" viewBox="0 0 18 18" fill="none" xmlns="http://www.w3.org/2000/svg">
<path fill-rule="evenodd" clip-rule="evenodd" d="M3.448 7.1193C3.448 6.64459 3.83283 6.25977 4.30753 6.25977H11.9384C14.441 6.25977 16.4121 8.36069 16.4121 10.8798C16.4121 13.3989 14.441 15.4998 11.9384 15.4998H10.2519C9.77717 15.4998 9.39234 15.1149 9.39234 14.6402C9.39234 14.1655 9.77717 13.7807 10.2519 13.7807H11.9384C13.4279 13.7807 14.693 12.5144 14.693 10.8798C14.693 9.24515 13.4279 7.97884 11.9384 7.97884H4.30753C3.83283 7.97884 3.448 7.59401 3.448 7.1193Z" fill="currentColor"/>
<path fill-rule="evenodd" clip-rule="evenodd" d="M7.05276 2.75077C7.38897 3.0859 7.38985 3.63012 7.05472 3.96633L3.87319 7.15818L7.05473 10.3501C7.38985 10.6863 7.38897 11.2305 7.05275 11.5656C6.71654 11.9008 6.17231 11.8999 5.83719 11.5637L2.05082 7.76497C1.71646 7.42953 1.71646 6.88682 2.05082 6.55138L5.83719 2.75274C6.17232 2.41652 6.71654 2.41564 7.05276 2.75077Z" fill="currentColor"/>
</svg>
