<svg width="18" height="18" viewBox="0 0 18.01 18.01" fill="none" xmlns="http://www.w3.org/2000/svg">
<path d="M4.5 14.25C4.5 15.075 5.175 15.75 6 15.75H12C12.825 15.75 13.5 15.075 13.5 14.25V6.75C13.5 5.925 12.825 5.25 12 5.25H6C5.175 5.25 4.5 5.925 4.5 6.75V14.25ZM13.5 3H11.625L11.0925 2.4675C10.9575 2.3325 10.7625 2.25 10.5675 2.25H7.4325C7.2375 2.25 7.0425 2.3325 6.9075 2.4675L6.375 3H4.5C4.0875 3 3.75 3.3375 3.75 3.75C3.75 4.1625 4.0875 4.5 4.5 4.5H13.5C13.9125 4.5 14.25 4.1625 14.25 3.75C14.25 3.3375 13.9125 3 13.5 3Z" fill="CurrentColor"/>
</svg>
