<svg width="24" height="24" viewBox="0 0 24 24" fill="currentColor" xmlns="http://www.w3.org/2000/svg">
<path d="M8.43787 14.2968C8.8235 13.9883 9.38506 14.0485 9.69683 14.4299C9.69864 14.432 9.70343 14.4375 9.7112 14.446C9.7281 14.4645 9.75879 14.4968 9.80315 14.5383C9.89222 14.6218 10.0338 14.7406 10.2271 14.8614C10.6101 15.1008 11.197 15.3496 12.0001 15.3496C12.8032 15.3496 13.3901 15.1008 13.7731 14.8614C13.9664 14.7406 14.108 14.6218 14.1971 14.5383C14.2414 14.4968 14.2721 14.4645 14.289 14.446L14.3009 14.4327L14.3034 14.4299C14.6151 14.0485 15.1767 13.9883 15.5623 14.2968C15.9505 14.6073 16.0134 15.1737 15.7029 15.5618L15.0001 14.9996C15.7029 15.5618 15.7032 15.5615 15.7029 15.5618L15.7018 15.5632L15.7005 15.5648L15.6978 15.5681L15.6911 15.5763L15.673 15.5979C15.6588 15.6145 15.6403 15.6357 15.6175 15.6606C15.5719 15.7105 15.5088 15.7759 15.4281 15.8515C15.2672 16.0024 15.0338 16.1961 14.7271 16.3878C14.1101 16.7735 13.197 17.1496 12.0001 17.1496C10.8032 17.1496 9.89015 16.7735 9.2731 16.3878C8.96636 16.1961 8.73298 16.0024 8.57205 15.8515C8.49141 15.7759 8.42835 15.7105 8.38275 15.6606C8.35993 15.6357 8.34142 15.6145 8.3272 15.5979L8.30907 15.5763L8.3024 15.5681L8.29966 15.5648L8.29844 15.5632C8.29816 15.5629 8.29732 15.5618 9.0001 14.9996L8.29732 15.5618C7.98681 15.1737 8.04974 14.6073 8.43787 14.2968Z" fill="currentColor"/>
<path d="M10.2501 10.2496C10.2501 10.94 9.69045 11.4996 9.00009 11.4996C8.30974 11.4996 7.75009 10.94 7.75009 10.2496C7.75009 9.55925 8.30974 8.9996 9.00009 8.9996C9.69045 8.9996 10.2501 9.55925 10.2501 10.2496Z" fill="currentColor"/>
<path d="M15.0001 11.4996C15.6904 11.4996 16.2501 10.94 16.2501 10.2496C16.2501 9.55925 15.6904 8.9996 15.0001 8.9996C14.3097 8.9996 13.7501 9.55925 13.7501 10.2496C13.7501 10.94 14.3097 11.4996 15.0001 11.4996Z" fill="currentColor"/>
<path fill-rule="evenodd" clip-rule="evenodd" d="M12.0001 2.09961C6.53248 2.09961 2.1001 6.53199 2.1001 11.9996C2.1001 17.4672 6.53248 21.8996 12.0001 21.8996C17.4677 21.8996 21.9001 17.4672 21.9001 11.9996C21.9001 6.53199 17.4677 2.09961 12.0001 2.09961ZM3.9001 11.9996C3.9001 7.5261 7.52659 3.89961 12.0001 3.89961C16.4736 3.89961 20.1001 7.5261 20.1001 11.9996C20.1001 16.4731 16.4736 20.0996 12.0001 20.0996C7.52659 20.0996 3.9001 16.4731 3.9001 11.9996Z" fill="currentColor"/>
</svg>
