<svg width="17" height="15" viewBox="0 0 17 15" fill="none" xmlns="http://www.w3.org/2000/svg">
<path d="M15.9131 7.42451L8.68354 1.14385C8.61881 1.08761 8.51796 1.13359 8.51796 1.21934L8.51796 4.8041C8.51796 4.8577 8.47651 4.90189 8.423 4.90511C7.80702 4.94217 4.35415 5.21044 2.7964 6.63333C0.894405 8.37067 0.965115 12.6081 1.01931 13.7259C1.02385 13.8195 1.14204 13.8522 1.19782 13.7769C1.6872 13.1169 3.20075 11.1793 4.55688 10.5333C5.82483 9.92936 7.96834 10.0567 8.42906 10.0925C8.48039 10.0965 8.51796 10.1393 8.51796 10.1908L8.51796 13.7807C8.51796 13.8664 8.61881 13.9124 8.68354 13.8562L15.9131 7.57549C15.959 7.53562 15.959 7.46438 15.9131 7.42451Z" stroke="currentColor" stroke-width="1.4"/>
</svg>
