<svg width="64" height="64" viewBox="0 0 64 64" fill="none" xmlns="http://www.w3.org/2000/svg">
<rect width="64" height="64" rx="32" fill="#555DF6"/>
<path d="M32 18.5C40.0772 18.5 46.625 24.3085 46.625 31.4737C46.625 38.639 40.0772 44.4475 32 44.4475C30.6184 44.4475 29.2815 44.2775 28.0145 43.9599C26.3552 45.4753 23.5852 46.7321 19.7072 47.7291C19.5399 47.7722 19.3629 47.7481 19.2123 47.6619C18.8856 47.4748 18.7687 47.0515 18.951 46.7165L19.2329 46.1906C20.4783 43.8339 21.2242 41.9281 21.4706 40.4731C18.9339 38.143 17.375 34.9699 17.375 31.4737C17.375 24.3085 23.9228 18.5 32 18.5Z" fill="white"/>
</svg>
