<svg width="124" height="31" viewBox="0 0 124 31" fill="none" xmlns="http://www.w3.org/2000/svg">
<path fill-rule="evenodd" clip-rule="evenodd" d="M48.2324 16.3374L48.2313 16.3368C47.6636 16.0188 46.7137 15.7834 45.3639 15.6413C43.0461 15.4261 41.2367 14.8513 39.9498 13.9043L39.9486 13.9035L39.9474 13.9025C38.6788 12.9266 38.0399 11.6509 38.0399 10.0859C38.0399 8.98653 38.3706 8.01726 39.0324 7.18389C39.6916 6.35367 40.6042 5.71093 41.7629 5.25227L41.7638 5.2519C42.9468 4.79319 44.2948 4.56542 45.8053 4.56542C48.4363 4.56542 50.7191 5.19908 52.648 6.47167C52.8363 6.59593 52.8865 6.84558 52.7709 7.03431L51.3112 9.41747C51.1882 9.61826 50.9272 9.67581 50.7295 9.5574C49.2517 8.67206 47.6705 8.23017 45.9835 8.23017C44.7339 8.23017 43.7987 8.40763 43.1632 8.7481L43.1614 8.74903L43.1597 8.74991C42.8429 8.90829 42.6141 9.09904 42.4643 9.3184C42.3152 9.53662 42.2392 9.79071 42.2392 10.0859C42.2392 10.5995 42.4799 11.008 42.9886 11.3187C43.5342 11.6132 44.437 11.8362 45.7136 11.978C48.3348 12.264 50.2651 12.8495 51.4829 13.7507C52.7112 14.6596 53.3212 15.975 53.3212 17.6758C53.3212 18.798 52.9912 19.7904 52.3302 20.6473C51.6943 21.4788 50.7812 22.1335 49.5996 22.6158L49.5983 22.6163C48.4384 23.0754 47.1019 23.3032 45.5915 23.3032C42.6829 23.3032 40.0757 22.4787 37.7744 20.8296C37.5932 20.6998 37.5498 20.452 37.6685 20.2672L39.2142 17.8594C39.3487 17.6499 39.6302 17.6065 39.8258 17.7482C40.5442 18.2687 41.3868 18.6875 42.3552 19.0034C43.4341 19.3317 44.5483 19.4959 45.6984 19.4959C46.803 19.4959 47.643 19.331 48.2316 19.0147C48.8106 18.68 49.0863 18.2246 49.0863 17.6402C49.0863 17.0819 48.8132 16.6501 48.2334 16.3379L48.2324 16.3374ZM56.3773 18.8483L56.3767 18.8471C55.6038 17.4222 55.2195 15.7833 55.2195 13.9343C55.2195 12.1082 55.6161 10.4922 56.4135 9.09059C57.2101 7.6665 58.3218 6.56685 59.7464 5.79408C61.195 4.99741 62.8578 4.60105 64.7309 4.60105C67.2408 4.60105 69.4287 5.4542 71.2881 7.15753C71.4595 7.31455 71.4646 7.57863 71.3091 7.74556L69.271 9.93356C69.1078 10.1087 68.8387 10.1082 68.6677 9.95558C68.2025 9.54024 67.6578 9.2112 67.0322 8.96905L67.0304 8.96835L67.0286 8.9676C66.309 8.66581 65.5672 8.51524 64.8021 8.51524C63.22 8.51524 61.9391 9.02566 60.9468 10.041C59.9784 11.0325 59.49 12.3258 59.49 13.9343C59.49 15.5668 59.9786 16.8716 60.9462 17.8626C61.9382 18.8543 63.2193 19.3533 64.8021 19.3533C65.6401 19.3533 66.4298 19.2021 67.1726 18.9004C67.8163 18.6389 68.3709 18.2734 68.8381 17.804C69.0073 17.634 69.2925 17.6249 69.4627 17.8098L71.5272 20.0539C71.6802 20.2202 71.6753 20.4811 71.507 20.638C70.5782 21.5038 69.5842 22.152 68.5248 22.5803C67.3897 23.0392 66.1363 23.2675 64.7665 23.2675C62.8706 23.2675 61.1963 22.8834 59.7477 22.1108C58.2995 21.3384 57.1753 20.2508 56.378 18.8496L56.3773 18.8483ZM77.598 22.2175L77.5968 22.2168C76.1489 21.4205 75.0252 20.309 74.2283 18.8843C73.431 17.4589 73.0346 15.8074 73.0346 13.9343C73.0346 12.1088 73.4191 10.4932 74.1922 9.09187C74.965 7.69125 76.0527 6.60339 77.4532 5.8305C78.8547 5.03323 80.4706 4.63668 82.2965 4.63668C85.1752 4.63668 87.4476 5.46519 89.0952 7.13706C90.7426 8.80872 91.5585 11.1163 91.5585 14.0412C91.5585 14.3103 91.5409 14.6914 91.506 15.1825C91.4905 15.4019 91.3075 15.5707 91.0886 15.5707H77.4337C77.6212 16.7436 78.1771 17.6788 79.103 18.3842C80.0712 19.1219 81.3103 19.4959 82.831 19.4959C83.8129 19.4959 84.759 19.3323 85.6701 19.0052C86.4701 18.7181 87.1101 18.3524 87.5953 17.9114C87.7602 17.7615 88.0218 17.7505 88.1904 17.9142L90.2156 19.8798C90.3781 20.0374 90.3884 20.3003 90.2248 20.4657C89.3616 21.3379 88.2914 22.0304 87.017 22.5446C85.6693 23.098 84.238 23.3744 82.7242 23.3744C80.7813 23.3744 79.0716 22.9905 77.5993 22.2181L77.598 22.2175ZM87.5171 12.191C87.5235 12.2372 87.5294 12.2838 87.5347 12.3308H77.3079C77.3172 12.2838 77.327 12.2372 77.3372 12.191C77.6106 10.952 78.1709 9.98897 79.0183 9.30193C79.8972 8.58926 81.0256 8.23292 82.4034 8.23292C83.8525 8.23292 85.0284 8.60113 85.9312 9.33756C86.8231 10.0465 87.3517 10.9977 87.5171 12.191ZM101.739 17.817L103.633 13.0969L106.876 5.25218C106.941 5.09533 107.094 4.99302 107.263 4.99302H110.928C111.229 4.99302 111.432 5.30107 111.313 5.57782L100.507 30.7461C100.441 30.9001 100.289 31 100.122 31H96.3843C96.0826 31 95.8796 30.6909 95.9995 30.4141L99.3707 22.6266L92.5956 5.56715C92.4862 5.29184 92.6891 4.99302 92.9853 4.99302H96.6571C96.8309 4.99302 96.9867 5.10027 97.0488 5.26265L100.045 13.1018L101.739 17.817ZM119.964 23.1245C118.084 23.1245 116.617 22.5811 115.586 21.4766C114.556 20.3727 114.052 18.7651 114.052 16.6776V8.55424C114.048 8.54162 114.046 8.52828 114.046 8.51449L114.052 5.13231V0.786553C114.052 0.572399 114.213 0.392651 114.426 0.369633L117.822 0.00247652C118.07 -0.0243337 118.287 0.169957 118.287 0.419396V4.99253H122.927C123.159 4.99253 123.347 5.18027 123.347 5.41187V8.23793C123.347 8.46953 123.159 8.65728 122.927 8.65728H118.287V16.6776C118.287 17.5607 118.484 18.2118 118.858 18.6524C119.252 19.0896 119.827 19.3172 120.606 19.3172C121.208 19.3172 121.832 19.1855 122.477 18.9188C122.701 18.8263 122.967 18.9338 123.048 19.1711L123.969 21.8424C124.039 22.0468 123.942 22.2747 123.74 22.3603C123.13 22.6173 122.547 22.8001 121.989 22.9076C121.384 23.0526 120.708 23.1245 119.964 23.1245Z" fill="#111539"/>
<path d="M20.4284 9.19436H21.3576C26.0003 9.19436 29.7148 13.2992 29.7148 18.0152C29.7148 22.7312 26.0003 26.837 21.3566 26.837H11.142C10.1168 26.837 9.28476 26.005 9.28476 24.9798V18.4788H18.5712C19.0637 18.4788 19.5361 18.2831 19.8845 17.9348C20.2328 17.5865 20.4284 17.1141 20.4284 16.6215V9.19238V9.19436Z" fill="#555DF6"/>
<path d="M20.4302 2.69419C20.4302 1.66799 19.5981 0.836914 18.5729 0.836914H8.35736C3.71465 0.836914 8.96454e-05 4.94274 8.96454e-05 9.65875C8.96454e-05 14.3757 3.71465 18.4806 8.35835 18.4806H9.28649V11.0515C9.28649 10.0262 10.1186 9.19517 11.1438 9.19517H20.4302V2.69419Z" fill="#111539"/>
</svg>
