<svg width="36" height="36" viewBox="0 0 36 36" fill="none" xmlns="http://www.w3.org/2000/svg">
<rect width="36" height="36" rx="18" fill="#B463E7"/>
<path d="M18 8.25C13.03 8.25 9 12.28 9 17.25V24C9 25.6569 10.3431 27 12 27H13.5C14.3284 27 15 26.3284 15 25.5V20.5C15 19.6716 14.3284 19 13.5 19H11V17.25C11 13.38 14.13 10.25 18 10.25C21.87 10.25 25 13.38 25 17.25V19H22.5C21.6716 19 21 19.6716 21 20.5V25.5C21 26.3284 21.6716 27 22.5 27H24C25.6569 27 27 25.6569 27 24V17.25C27 12.28 22.97 8.25 18 8.25Z" fill="white"/>
</svg>
