<svg width="24" height="24" viewBox="0 0 24.01 24.01" fill="none" xmlns="http://www.w3.org/2000/svg">
<path d="M12.0001 1.71436C17.6807 1.71436 22.2858 6.31943 22.2858 12.0001C22.2858 17.6807 17.6807 22.2858 12.0001 22.2858C6.31943 22.2858 1.71436 17.6807 1.71436 12.0001C1.71436 6.31943 6.31943 1.71436 12.0001 1.71436ZM12.0001 3.42864C7.2662 3.42864 3.42864 7.2662 3.42864 12.0001C3.42864 16.7339 7.2662 20.5715 12.0001 20.5715C16.7339 20.5715 20.5715 16.7339 20.5715 12.0001C20.5715 7.2662 16.7339 3.42864 12.0001 3.42864ZM12.0001 6.85721C12.4735 6.85721 12.8572 7.24097 12.8572 7.71436V11.1429H16.2858C16.7592 11.1429 17.1429 11.5267 17.1429 12.0001C17.1429 12.4735 16.7592 12.8572 16.2858 12.8572H12.8572V16.2858C12.8572 16.7592 12.4735 17.1429 12.0001 17.1429C11.5267 17.1429 11.1429 16.7592 11.1429 16.2858V12.8572H7.71436C7.24097 12.8572 6.85721 12.4735 6.85721 12.0001C6.85721 11.5267 7.24097 11.1429 7.71436 11.1429H11.1429V7.71436C11.1429 7.24097 11.5267 6.85721 12.0001 6.85721Z" fill="CurrentColor"/>
</svg>
