<svg width="24" height="24" viewBox="0 0 24.01 24.01" fill="none" xmlns="http://www.w3.org/2000/svg">
<path fill-rule="evenodd" clip-rule="evenodd" d="M4.12831 2.17883C5.11674 1.65021 6.0899 1.46647 8.23693 1.46647H15.8962C16.4485 1.46647 16.8962 1.91419 16.8962 2.46647C16.8962 3.01876 16.4485 3.46647 15.8962 3.46647H8.23693C6.19559 3.46647 5.62183 3.64814 5.07151 3.94245C4.55349 4.21949 4.15292 4.62006 3.87588 5.13808C3.58157 5.6884 3.3999 6.26216 3.3999 8.3035V15.9628C3.3999 18.0041 3.58157 18.5779 3.87588 19.1282C4.15292 19.6462 4.55349 20.0468 5.07151 20.3238C5.62183 20.6181 6.19559 20.7998 8.23693 20.7998H15.8962C17.9375 20.7998 18.5113 20.6181 19.0616 20.3238C19.5796 20.0468 19.9802 19.6462 20.2573 19.1282C20.5516 18.5779 20.7332 18.0041 20.7332 15.9628V8.3035C20.7332 7.75121 21.181 7.3035 21.7332 7.3035C22.2855 7.3035 22.7332 7.75121 22.7332 8.3035V15.9628C22.7332 18.1098 22.5495 19.083 22.0209 20.0714C21.5574 20.938 20.8714 21.624 20.0048 22.0875C19.0164 22.6161 18.0432 22.7998 15.8962 22.7998H8.23693C6.0899 22.7998 5.11674 22.6161 4.12831 22.0875C3.26176 21.624 2.5757 20.938 2.11226 20.0714C1.58364 19.083 1.3999 18.1098 1.3999 15.9628V8.3035C1.3999 6.15646 1.58364 5.18331 2.11226 4.19488C2.5757 3.32832 3.26176 2.64227 4.12831 2.17883Z" fill="CurrentColor"/>
<path fill-rule="evenodd" clip-rule="evenodd" d="M20.7688 3.43094C21.1658 3.82801 21.1658 4.47178 20.7688 4.86885L12.2937 13.344C11.9176 13.7201 10.8015 14.3253 9.96114 14.7529C9.62159 14.9257 9.27399 14.5781 9.44678 14.2386C9.87441 13.3982 10.4797 12.2822 10.8558 11.906L19.3309 3.43094C19.7279 3.03387 20.3717 3.03387 20.7688 3.43094Z" fill="CurrentColor"/>
<path d="M23.3999 1.7998C23.3999 2.35209 22.9522 2.7998 22.3999 2.7998C21.8476 2.7998 21.3999 2.35209 21.3999 1.7998C21.3999 1.24752 21.8476 0.799805 22.3999 0.799805C22.9522 0.799805 23.3999 1.24752 23.3999 1.7998Z" fill="CurrentColor"/>
</svg>
