<svg width="40" height="40" viewBox="0 0 40.01 40.01" fill="none" xmlns="http://www.w3.org/2000/svg">
<rect width="40" height="40" rx="20" fill="#F3F5F7"/>
<rect x="0.25" y="0.25" width="39.5" height="39.5" rx="19.75" stroke="black" stroke-opacity="0.08" stroke-width="0.5"/>
<path d="M20 12C20.5523 12 21 12.4477 21 13V19L27 19C27.5523 19 28 19.4477 28 20C28 20.5523 27.5523 21 27 21L21 21L21 27C21 27.5523 20.5523 28 20 28C19.4477 28 19 27.5523 19 27L18.999 21L13 21C12.4477 21 12 20.5523 12 20C12 19.4477 12.4477 19 13 19L18.999 19L19 13C19 12.4477 19.4477 12 20 12Z" fill="CurrentColor"/>
</svg>
