<svg width="32" height="32" viewBox="0 0 32.01 32.01" fill="none" xmlns="http://www.w3.org/2000/svg">
<path fill-rule="evenodd" clip-rule="evenodd" d="M15.489 9.27566C15.8566 9.64322 15.8566 10.2391 15.489 10.6067L11.2134 14.8824L23.0588 14.8824C23.5786 14.8824 24 15.3037 24 15.8235C24 16.3433 23.5786 16.7647 23.0588 16.7647L11.2134 16.7647L15.489 21.0404C15.8566 21.4079 15.8566 22.0038 15.489 22.3714C15.1215 22.7389 14.5256 22.7389 14.158 22.3714L8.27566 16.489C8.09916 16.3125 8 16.0731 8 15.8235C8 15.5739 8.09916 15.3345 8.27566 15.158L14.158 9.27566C14.5256 8.90811 15.1215 8.90811 15.489 9.27566Z" fill="#818C99"/>
</svg>
