<svg width="72" height="72" viewBox="0 0 72 72" fill="none" xmlns="http://www.w3.org/2000/svg">
<g clip-path="url(#clip0_874_7409)">
<mask id="mask0_874_7409" style="mask-type:alpha" maskUnits="userSpaceOnUse" x="0" y="0" width="72" height="72">
<path fill-rule="evenodd" clip-rule="evenodd" d="M56.128 65.8519C50.3824 69.7334 43.456 72 36 72C27.8956 72 20.4168 69.322 14.4 64.8025C5.65596 58.2347 0 47.7778 0 36C0 16.1177 16.1177 0 36 0C55.8821 0 72 16.1177 72 36C72 48.4265 65.704 59.3824 56.128 65.8519ZM36 37.8C41.9648 37.8 46.8 32.5616 46.8 26.1C46.8 19.6383 41.9648 14.4 36 14.4C30.0352 14.4 25.2 19.6383 25.2 26.1C25.2 32.5616 30.0352 37.8 36 37.8ZM36 64.8C43.7832 64.8 50.845 61.7126 56.0282 56.6957C52.8228 48.7822 45.0634 43.2 36 43.2C26.9367 43.2 19.1772 48.7822 15.9718 56.6957C21.1549 61.7126 28.2169 64.8 36 64.8Z" fill="white"/>
</mask>
<g mask="url(#mask0_874_7409)">
<path fill-rule="evenodd" clip-rule="evenodd" d="M56.128 65.8519C50.3824 69.7334 43.456 72 36 72C27.8956 72 20.4168 69.322 14.4 64.8025C5.65596 58.2347 0 47.7778 0 36C0 16.1177 16.1177 0 36 0C55.8821 0 72 16.1177 72 36C72 48.4265 65.704 59.3824 56.128 65.8519ZM36 37.8C41.9648 37.8 46.8 32.5616 46.8 26.1C46.8 19.6383 41.9648 14.4 36 14.4C30.0352 14.4 25.2 19.6383 25.2 26.1C25.2 32.5616 30.0352 37.8 36 37.8ZM36 64.8C43.7832 64.8 50.845 61.7126 56.0282 56.6957C52.8228 48.7822 45.0634 43.2 36 43.2C26.9367 43.2 19.1772 48.7822 15.9718 56.6957C21.1549 61.7126 28.2169 64.8 36 64.8Z" fill="#D0D8E3"/>
<path d="M56.128 65.8517L52.0975 59.8854L56.128 65.8517ZM14.4 64.8023L10.0759 70.5594L14.4 64.8023ZM56.0283 56.6955L61.0359 61.869L64.5243 58.4922L62.7016 53.9926L56.0283 56.6955ZM15.9719 56.6955L9.29849 53.9926L7.47588 58.4922L10.9643 61.869L15.9719 56.6955ZM36 79.1998C44.937 79.1998 53.2602 76.4782 60.1586 71.8176L52.0975 59.8854C47.5046 62.9883 41.9746 64.7998 36 64.7998V79.1998ZM10.0759 70.5594C17.2967 75.9832 26.2831 79.1998 36 79.1998V64.7998C29.5082 64.7998 23.5369 62.6607 18.7242 59.0456L10.0759 70.5594ZM-7.19995 35.9998C-7.19995 50.1381 -0.400703 62.6902 10.0759 70.5594L18.7242 59.0456C11.7128 53.7791 7.20005 45.4174 7.20005 35.9998H-7.19995ZM36 -7.2002C12.1413 -7.2002 -7.19995 12.1411 -7.19995 35.9998H7.20005C7.20005 20.094 20.0942 7.19981 36 7.19981V-7.2002ZM79.2001 35.9998C79.2001 12.1411 59.8587 -7.2002 36 -7.2002V7.19981C51.9059 7.19981 64.8 20.094 64.8 35.9998H79.2001ZM60.1586 71.8176C71.6318 64.0665 79.2001 50.9182 79.2001 35.9998H64.8C64.8 45.9344 59.7763 54.6978 52.0975 59.8854L60.1586 71.8176ZM39.6001 26.0998C39.6001 29.1386 37.4566 30.5998 36 30.5998V44.9998C46.4728 44.9998 54 35.9847 54 26.0998H39.6001ZM36 21.5998C37.4566 21.5998 39.6001 23.061 39.6001 26.0998H54C54 16.2151 46.4728 7.19981 36 7.19981V21.5998ZM32.4001 26.0998C32.4001 23.061 34.5435 21.5998 36 21.5998V7.19981C25.5271 7.19981 18 16.2151 18 26.0998H32.4001ZM36 30.5998C34.5435 30.5998 32.4001 29.1386 32.4001 26.0998H18C18 35.9847 25.5271 44.9998 36 44.9998V30.5998ZM51.0207 51.5223C47.1262 55.2915 41.8403 57.5998 36 57.5998V71.9998C45.7262 71.9998 54.5642 68.1334 61.0359 61.869L51.0207 51.5223ZM36 50.3998C42.0308 50.3998 47.2126 54.1096 49.355 59.3984L62.7016 53.9926C58.4331 43.4543 48.0957 35.9998 36 35.9998V50.3998ZM22.6452 59.3984C24.7875 54.1096 29.9693 50.3998 36 50.3998V35.9998C23.9043 35.9998 13.5669 43.4543 9.29849 53.9926L22.6452 59.3984ZM36 57.5998C30.1598 57.5998 24.8737 55.2915 20.9794 51.5223L10.9643 61.869C17.4361 68.1334 26.2739 71.9998 36 71.9998V57.5998Z" fill="#D0D8E3"/>
</g>
</g>
<defs>
<clipPath id="clip0_874_7409">
<rect width="72" height="72" fill="white"/>
</clipPath>
</defs>
</svg>
