<svg width="18" height="18" viewBox="0 0 18.01 18.01" fill="none" xmlns="http://www.w3.org/2000/svg">
<g id="bold">
<path id="Vector (Stroke)" fill-rule="evenodd" clip-rule="evenodd" d="M6.35 3.02853C6.26969 3.00987 6.18599 3 6.1 3C5.49249 3 5 3.49249 5 4.1V14.1C5 14.7075 5.49249 15.2 6.1 15.2C6.18599 15.2 6.26969 15.1901 6.35 15.1715C6.43031 15.1901 6.51401 15.2 6.6 15.2H10.0286C12.0268 15.2 13.7 13.6172 13.7 11.6C13.7 10.3548 13.0624 9.27511 12.1044 8.6311C12.4836 8.04271 12.7 7.33689 12.7 6.6C12.7 4.69633 11.2556 3 9.29231 3H6.6C6.51401 3 6.43031 3.00987 6.35 3.02853ZM9.7606 10.1671C9.60827 10.1888 9.45201 10.2 9.29231 10.2H7.2V13H10.0286C10.8706 13 11.5 12.3442 11.5 11.6C11.5 10.8558 10.8706 10.2 10.0286 10.2C9.93614 10.2 9.84637 10.1886 9.7606 10.1671ZM7.2 8H9.29231C9.87805 8 10.5 7.45775 10.5 6.6C10.5 5.74225 9.87805 5.2 9.29231 5.2H7.2V8Z" fill="CurrentColor"/>
</g>
</svg>
