<svg width="42" height="42" viewBox="0 0 42 42" fill="none" xmlns="http://www.w3.org/2000/svg">
<path fill-rule="evenodd" clip-rule="evenodd" d="M11.5496 11.5502C12.7562 11.5502 13.6687 11.1217 14.363 10.4551C14.8743 9.9643 15.2615 9.33052 15.5267 8.89648L15.5269 8.89621C15.568 8.82889 15.6062 8.76637 15.6415 8.70994C15.957 8.20516 16.1843 7.90768 16.4627 7.7052C16.6995 7.53298 17.0859 7.3502 17.8496 7.3502H24.1496C24.9134 7.3502 25.2997 7.53298 25.5365 7.7052C25.8149 7.90768 26.0423 8.20516 26.3578 8.70994C26.3931 8.76644 26.4313 8.82905 26.4725 8.89647C26.7377 9.33051 27.1249 9.96429 27.6362 10.4551C28.3306 11.1217 29.2431 11.5502 30.4496 11.5502C31.9888 11.5502 32.5283 11.5578 32.9464 11.641C34.8208 12.0138 36.286 13.479 36.6588 15.3534C36.742 15.7715 36.7496 16.311 36.7496 17.8502V25.0952C36.7496 26.8854 36.7484 28.1332 36.669 29.1048C36.5911 30.0579 36.446 30.6055 36.2346 31.0203C35.7816 31.9094 35.0588 32.6322 34.1697 33.0852C33.7549 33.2965 33.2073 33.4417 32.2542 33.5196C31.2827 33.599 30.0348 33.6002 28.2446 33.6002H13.7517C11.9616 33.6002 10.7137 33.599 9.74217 33.5196C8.78903 33.4417 8.24142 33.2965 7.82663 33.0852C6.93757 32.6322 6.21473 31.9094 5.76173 31.0203C5.55039 30.6055 5.40522 30.0579 5.32734 29.1048C5.24796 28.1332 5.24674 26.8854 5.24674 25.0952V17.8531C5.24674 16.3111 5.2544 15.7705 5.33786 15.3517C5.71113 13.4787 7.17525 12.0146 9.04827 11.6413C9.46709 11.5579 10.0076 11.5502 11.5496 11.5502ZM17.8496 4.2002C16.5134 4.2002 15.456 4.54241 14.61 5.15769C13.8056 5.74272 13.311 6.49523 12.9703 7.04045C12.913 7.1321 12.8605 7.21661 12.812 7.29478C12.5271 7.75374 12.3777 7.99442 12.1815 8.18276C12.0556 8.30368 11.9181 8.4002 11.5496 8.4002L11.367 8.40017C10.0769 8.39985 9.19754 8.39963 8.43263 8.55206C5.31093 9.17417 2.87072 11.6144 2.24861 14.7361C2.09617 15.501 2.09639 16.3803 2.09671 17.6704L2.09674 17.8531V25.0952L2.09674 25.1626C2.09672 26.8696 2.09671 28.2464 2.1878 29.3613C2.28159 30.5092 2.47975 31.5175 2.95506 32.4504C3.71007 33.9321 4.91479 35.1369 6.39656 35.8919C7.32942 36.3672 8.33772 36.5653 9.48566 36.6591C10.6006 36.7502 11.9773 36.7502 13.6843 36.7502H13.7517H28.2446H28.3121C30.019 36.7502 31.3958 36.7502 32.5107 36.6591C33.6586 36.5653 34.6669 36.3672 35.5998 35.8919C37.0816 35.1369 38.2863 33.9321 39.0413 32.4504C39.5166 31.5175 39.7148 30.5092 39.8086 29.3613C39.8997 28.2464 39.8996 26.8696 39.8996 25.1627V25.0952V17.8502L39.8997 17.6678C39.9 16.3801 39.9002 15.5024 39.7483 14.7389C39.1269 11.6149 36.6849 9.1729 33.561 8.55151C32.7974 8.39963 31.9197 8.39985 30.6319 8.40017L30.4496 8.4002C30.0812 8.4002 29.9437 8.30368 29.8177 8.18276C29.6215 7.99443 29.4721 7.75375 29.1873 7.2948C29.1387 7.21663 29.0863 7.13211 29.029 7.04045C28.6882 6.49523 28.1937 5.74272 27.3893 5.15769C26.5433 4.54241 25.4859 4.2002 24.1496 4.2002H17.8496ZM25.7246 21.5252C25.7246 24.1347 23.6092 26.2502 20.9996 26.2502C18.3901 26.2502 16.2746 24.1347 16.2746 21.5252C16.2746 18.9157 18.3901 16.8002 20.9996 16.8002C23.6092 16.8002 25.7246 18.9157 25.7246 21.5252ZM28.8746 21.5252C28.8746 25.8744 25.3489 29.4002 20.9996 29.4002C16.6504 29.4002 13.1246 25.8744 13.1246 21.5252C13.1246 17.176 16.6504 13.6502 20.9996 13.6502C25.3489 13.6502 28.8746 17.176 28.8746 21.5252Z" fill="CurrentColor"/>
</svg>
