<svg width="40" height="40" viewBox="0 0 41 41" fill="none" xmlns="http://www.w3.org/2000/svg">
<path fill-rule="evenodd" clip-rule="evenodd" d="M16.8606 6.66699C14.858 6.66699 13.1625 8.08603 12.7761 10.009C12.7182 10.2971 12.6067 10.5754 12.4129 10.7963L11.5765 11.7496C11.3128 12.0502 10.9323 12.2225 10.5325 12.2225H6.11111C4.57699 12.2225 3.33333 13.4662 3.33333 15.0003V30.2781C3.33333 31.8123 4.57699 33.0559 6.11111 33.0559H33.8889C35.4231 33.0559 36.6667 31.8123 36.6667 30.2781V15.0003C36.6667 13.4662 35.4231 12.2225 33.8889 12.2225H29.4675C29.0676 12.2225 28.6872 12.0502 28.4235 11.7496L27.5871 10.7963C27.3933 10.5754 27.2818 10.2971 27.2239 10.009C26.8375 8.08602 25.1419 6.66699 23.1394 6.66699H16.8606ZM25.5556 21.9448C25.5556 25.013 23.0682 27.5003 20 27.5003C16.9318 27.5003 14.4444 25.013 14.4444 21.9448C14.4444 18.8766 16.9318 16.3892 20 16.3892C23.0682 16.3892 25.5556 18.8766 25.5556 21.9448ZM6.80556 10.1392C6.42203 10.1392 6.11111 10.4501 6.11111 10.8337C6.11111 11.2172 6.42203 11.5281 6.80556 11.5281H9.58333C9.96686 11.5281 10.2778 11.2172 10.2778 10.8337C10.2778 10.4501 9.96686 10.1392 9.58333 10.1392H6.80556Z" fill="white"/>
</svg>
