<svg width="24" height="24" viewBox="0 0 24 24" fill="none" xmlns="http://www.w3.org/2000/svg">
<path fill-rule="evenodd" clip-rule="evenodd" d="M22 12C22 17.5229 17.5398 22 12.0377 22C10.2161 22 8.5087 21.5092 7.03953 20.6522L3.19579 21.8429C2.48646 22.0626 1.82229 21.3941 2.04312 20.6827L3.26572 16.744C2.50647 15.3324 2.0755 13.7168 2.0755 12C2.0755 6.47716 6.53576 2 12.0377 2C17.5398 2 22 6.47716 22 12ZM8.717 12C8.717 12.6137 8.22141 13.1111 7.61008 13.1111C6.99876 13.1111 6.50317 12.6137 6.50317 12C6.50317 11.3864 6.99876 10.8889 7.61008 10.8889C8.22141 10.8889 8.717 11.3864 8.717 12ZM12.0377 13.1111C12.6491 13.1111 13.1447 12.6137 13.1447 12C13.1447 11.3864 12.6491 10.8889 12.0377 10.8889C11.4264 10.8889 10.9308 11.3864 10.9308 12C10.9308 12.6137 11.4264 13.1111 12.0377 13.1111ZM17.5723 12C17.5723 12.6137 17.0768 13.1111 16.4654 13.1111C15.8541 13.1111 15.3584 12.6137 15.3584 12C15.3584 11.3864 15.8541 10.8889 16.4654 10.8889C17.0768 10.8889 17.5723 11.3864 17.5723 12Z" fill="currentColor"/>
</svg>
