<svg width="18" height="18" viewBox="0 0 18 18" fill="none" xmlns="http://www.w3.org/2000/svg">
<path fill-rule="evenodd" clip-rule="evenodd" d="M3 3.75C3 2.50736 4.00736 1.5 5.25 1.5H12.75C13.9927 1.5 15 2.50736 15 3.75V14.25C15 15.4927 13.9927 16.5 12.75 16.5H5.25C4.00736 16.5 3 15.4927 3 14.25V3.75ZM5.25 10.6875C5.25 10.3769 5.50184 10.125 5.8125 10.125H12.1875C12.4981 10.125 12.75 10.3769 12.75 10.6875C12.75 10.9981 12.4981 11.25 12.1875 11.25H5.8125C5.50184 11.25 5.25 10.9981 5.25 10.6875ZM5.8125 12.75C5.50184 12.75 5.25 13.0019 5.25 13.3125C5.25 13.6231 5.50184 13.875 5.8125 13.875H9.1875C9.49815 13.875 9.75 13.6231 9.75 13.3125C9.75 13.0019 9.49815 12.75 9.1875 12.75H5.8125Z" fill="#818C99"/>
</svg>
