<svg width="18" height="18" viewBox="0 0 18 18" fill="none" xmlns="http://www.w3.org/2000/svg">
<path fill-rule="evenodd" clip-rule="evenodd" d="M3.61417 2.05198C4.36608 1.64986 5.107 1.5 6.79782 1.5H11.2022C12.893 1.5 13.6339 1.64986 14.3858 2.05198C15.0576 2.41124 15.5888 2.94243 15.948 3.61417C16.3501 4.36608 16.5 5.107 16.5 6.79782V11.2022C16.5 12.893 16.3501 13.6339 15.948 14.3858C15.5888 15.0576 15.0576 15.5888 14.3858 15.948C13.6339 16.3501 12.893 16.5 11.2022 16.5H6.79782C5.107 16.5 4.36608 16.3501 3.61417 15.948C2.94243 15.5888 2.41124 15.0576 2.05198 14.3858C1.64986 13.6339 1.5 12.893 1.5 11.2022V6.79782C1.5 5.107 1.64986 4.36608 2.05198 3.61417C2.41124 2.94243 2.94243 2.41124 3.61417 2.05198ZM10.7733 9.12153C10.8762 8.9845 11.0669 8.95962 11.1994 9.06597C11.2208 9.08315 11.2398 9.10322 11.2561 9.12564L14.2964 13.3189C14.397 13.4577 14.3698 13.6545 14.2357 13.7586C14.1831 13.7994 14.1192 13.8214 14.0535 13.8214H4.48219C4.31451 13.8214 4.17857 13.6808 4.17857 13.5074C4.17857 13.4375 4.20108 13.3697 4.24253 13.3145L6.46327 10.361C6.56622 10.2241 6.75697 10.1994 6.88933 10.3059C6.90666 10.3199 6.92247 10.3357 6.9365 10.3532L8.46429 12.2143L10.7733 9.12153ZM5.78571 6.85714C6.37745 6.85714 6.85714 6.37745 6.85714 5.78571C6.85714 5.19398 6.37745 4.71429 5.78571 4.71429C5.19398 4.71429 4.71429 5.19398 4.71429 5.78571C4.71429 6.37745 5.19398 6.85714 5.78571 6.85714Z" fill="#818C99"/>
</svg>
