<svg width="24" height="24" viewBox="0 0 24 24" fill="none" xmlns="http://www.w3.org/2000/svg">
<path d="M10.1956 2.67305C11.3879 2.44232 12.6133 2.44232 13.8055 2.67305M13.8055 21.327C12.6133 21.5577 11.3879 21.5577 10.1956 21.327M17.3288 4.13509C18.3371 4.81833 19.2047 5.68912 19.8842 6.70002M2.67353 13.805C2.44281 12.6128 2.44281 11.3874 2.67353 10.1951M19.8654 17.3283C19.1822 18.3367 18.3114 19.2042 17.3005 19.8837M21.3274 10.1951C21.5582 11.3874 21.5582 12.6128 21.3274 13.805M4.13558 6.6715C4.81882 5.66313 5.68961 4.79557 6.70051 4.11607M6.67199 19.8649C5.66362 19.1817 4.79606 18.3109 4.11656 17.3" stroke="#818C99" stroke-width="1.8" stroke-linecap="round" stroke-linejoin="round"/>
</svg>
