<svg width="18" height="18" viewBox="0 0 18 18" fill="none" xmlns="http://www.w3.org/2000/svg">
<path d="M2.25 4.38867H3.69444H15.25" stroke="#676A7C" stroke-width="1.3" stroke-linecap="round" stroke-linejoin="round"/>
<path d="M5.86112 4.38889V2.94444C5.86112 2.56135 6.01331 2.19395 6.28419 1.92307C6.55508 1.65218 6.92248 1.5 7.30557 1.5H10.1945C10.5775 1.5 10.9449 1.65218 11.2158 1.92307C11.4867 2.19395 11.6389 2.56135 11.6389 2.94444V4.38889M13.8056 4.38889V14.5C13.8056 14.8831 13.6534 15.2505 13.3825 15.5214C13.1116 15.7923 12.7442 15.9444 12.3611 15.9444H5.1389C4.75581 15.9444 4.38841 15.7923 4.11753 15.5214C3.84664 15.2505 3.69446 14.8831 3.69446 14.5V4.38889H13.8056Z" stroke="#676A7C" stroke-width="1.3" stroke-linecap="round" stroke-linejoin="round"/>
<path d="M7.30554 8V12.3333" stroke="#676A7C" stroke-width="1.3" stroke-linecap="round" stroke-linejoin="round"/>
<path d="M10.1945 8V12.3333" stroke="#676A7C" stroke-width="1.3" stroke-linecap="round" stroke-linejoin="round"/>
</svg>
