<svg width="20" height="21" viewBox="0 0 20 21" fill="none" xmlns="http://www.w3.org/2000/svg">
<path fill-rule="evenodd" clip-rule="evenodd" d="M10.0003 3.83268C6.31843 3.83268 3.33366 6.81745 3.33366 10.4993C3.33366 14.1812 6.31843 17.166 10.0003 17.166C13.6822 17.166 16.667 14.1812 16.667 10.4993C16.667 6.81745 13.6822 3.83268 10.0003 3.83268ZM1.66699 10.4993C1.66699 5.89698 5.39795 2.16602 10.0003 2.16602C14.6027 2.16602 18.3337 5.89698 18.3337 10.4993C18.3337 15.1017 14.6027 18.8327 10.0003 18.8327C5.39795 18.8327 1.66699 15.1017 1.66699 10.4993ZM6.91107 7.41009C7.23651 7.08466 7.76414 7.08466 8.08958 7.41009L10.0003 9.32084L11.9111 7.41009C12.2365 7.08466 12.7641 7.08466 13.0896 7.41009C13.415 7.73553 13.415 8.26317 13.0896 8.5886L11.1788 10.4993L13.0896 12.4101C13.415 12.7355 13.415 13.2632 13.0896 13.5886C12.7641 13.914 12.2365 13.914 11.9111 13.5886L10.0003 11.6779L8.08958 13.5886C7.76414 13.914 7.23651 13.914 6.91107 13.5886C6.58563 13.2632 6.58563 12.7355 6.91107 12.4101L8.82181 10.4993L6.91107 8.5886C6.58563 8.26317 6.58563 7.73553 6.91107 7.41009Z" fill="CurrentColor"/>
</svg>
