<svg width="24" height="24" viewBox="0 0 24 24" fill="none" xmlns="http://www.w3.org/2000/svg">
<path d="M 12 0 C 5.375 0 0 5.375 0 12 C 0 18.625 5.375 24 12 24 C 18.625 24 24 18.625 24 12 C 24 5.375 18.625 0 12 0 Z M 16.332031 7.609375 C 17.617188 7.609375 18.648438 8.640625 18.648438 9.925781 C 18.648438 11.207031 17.617188 12.238281 16.332031 12.238281 C 15.046875 12.238281 14.015625 11.207031 14.015625 9.925781 C 14.003906 8.640625 15.046875 7.609375 16.332031 7.609375 Z M 9.132812 5.710938 C 10.691406 5.710938 11.964844 6.984375 11.964844 8.542969 C 11.964844 10.105469 10.691406 11.375 9.132812 11.375 C 7.570312 11.375 6.300781 10.105469 6.300781 8.542969 C 6.300781 6.972656 7.558594 5.710938 9.132812 5.710938 Z M 9.132812 16.667969 L 9.132812 21.167969 C 6.253906 20.269531 3.972656 18.046875 2.964844 15.214844 C 4.222656 13.871094 7.367188 13.1875 9.132812 13.1875 C 9.769531 13.1875 10.570312 13.285156 11.410156 13.453125 C 9.445312 14.496094 9.132812 15.875 9.132812 16.667969 Z M 12 21.601562 C 11.675781 21.601562 11.363281 21.589844 11.050781 21.550781 L 11.050781 16.667969 C 11.050781 14.964844 14.578125 14.113281 16.332031 14.113281 C 17.617188 14.113281 19.835938 14.578125 20.941406 15.492188 C 19.535156 19.054688 16.066406 21.601562 12 21.601562 Z M 12 21.601562 " fill="currentColor"/>
</svg>
