<svg width="20" height="20" viewBox="0 0 20.01 20.01" fill="none" xmlns="http://www.w3.org/2000/svg">
<path fill-rule="evenodd" clip-rule="evenodd" d="M14.1213 3.56359C13.624 3.52296 12.9866 3.5224 12.079 3.5224H6.40143C6.00396 3.5224 5.68174 3.20018 5.68174 2.80271C5.68174 2.40523 6.00396 2.08301 6.40143 2.08301L12.1102 2.08301C12.9795 2.083 13.6757 2.083 14.2385 2.12898C14.8164 2.17619 15.3166 2.27546 15.7771 2.51008C16.5144 2.88575 17.1138 3.48518 17.4895 4.22246C17.7241 4.68295 17.8234 5.18319 17.8706 5.76107C17.9166 6.32386 17.9166 7.02011 17.9166 7.8894V13.5982C17.9166 13.9956 17.5944 14.3179 17.1969 14.3179C16.7994 14.3179 16.4772 13.9956 16.4772 13.5982V7.92055C16.4772 7.01297 16.4766 6.37556 16.436 5.87829C16.3961 5.38941 16.321 5.09968 16.207 4.87594C15.9693 4.40949 15.5901 4.03026 15.1237 3.79259C14.8999 3.67859 14.6102 3.60353 14.1213 3.56359ZM5.33357 4.88183H11.8674C12.2912 4.88182 12.652 4.88181 12.9482 4.90601C13.2594 4.93144 13.5621 4.98712 13.8516 5.13459C14.2879 5.35692 14.6427 5.71169 14.865 6.14804C15.0125 6.43746 15.0682 6.74021 15.0936 7.05141C15.1178 7.34763 15.1178 7.70842 15.1178 8.13214V14.666C15.1178 15.0898 15.1178 15.4505 15.0936 15.7468C15.0682 16.058 15.0125 16.3607 14.865 16.6501C14.6427 17.0865 14.2879 17.4412 13.8516 17.6636C13.5621 17.8111 13.2594 17.8667 12.9482 17.8922C12.652 17.9164 12.2912 17.9164 11.8675 17.9163H5.33356C4.90984 17.9164 4.54905 17.9164 4.25283 17.8922C3.94163 17.8667 3.63889 17.8111 3.34946 17.6636C2.91311 17.4412 2.55834 17.0865 2.33601 16.6501C2.18854 16.3607 2.13286 16.058 2.10743 15.7468C2.08323 15.4505 2.08324 15.0897 2.08325 14.666V8.13214C2.08324 7.70842 2.08323 7.34763 2.10743 7.05141C2.13286 6.74021 2.18854 6.43746 2.33601 6.14804C2.55834 5.71169 2.91311 5.35692 3.34946 5.13459C3.63889 4.98712 3.94163 4.93144 4.25283 4.90601C4.54905 4.88181 4.90985 4.88182 5.33357 4.88183ZM4.37004 6.34062C4.14786 6.35878 4.05562 6.39025 4.00293 6.4171C3.83742 6.50143 3.70285 6.636 3.61852 6.80151C3.59167 6.8542 3.5602 6.94644 3.54205 7.16862C3.52321 7.39921 3.52265 7.70072 3.52265 8.16045V14.6377C3.52265 15.0975 3.52321 15.399 3.54205 15.6295C3.5602 15.8517 3.59167 15.944 3.61852 15.9967C3.70285 16.1622 3.83742 16.2967 4.00293 16.3811C4.05562 16.4079 4.14786 16.4394 4.37004 16.4575C4.60063 16.4764 4.90214 16.4769 5.36187 16.4769H11.8391C12.2989 16.4769 12.6004 16.4764 12.831 16.4575C13.0532 16.4394 13.1454 16.4079 13.1981 16.3811C13.3636 16.2967 13.4982 16.1622 13.5825 15.9967C13.6093 15.944 13.6408 15.8517 13.659 15.6295C13.6778 15.399 13.6784 15.0975 13.6784 14.6377V8.16045C13.6784 7.70072 13.6778 7.39921 13.659 7.16862C13.6408 6.94644 13.6093 6.8542 13.5825 6.80151C13.4982 6.636 13.3636 6.50143 13.1981 6.4171C13.1454 6.39025 13.0532 6.35878 12.831 6.34062C12.6004 6.32178 12.2989 6.32122 11.8391 6.32122H5.36187C4.90214 6.32122 4.60063 6.32178 4.37004 6.34062Z" fill="CurrentColor"/>
</svg>
