<svg width="20" height="20" viewBox="0 0 20 20" fill="none" xmlns="http://www.w3.org/2000/svg">
<path fill-rule="evenodd" clip-rule="evenodd" d="M10 3.25C8.20979 3.25 6.4929 3.96116 5.22703 5.22703C3.96116 6.4929 3.25 8.20979 3.25 10C3.25 10.8864 3.42459 11.7642 3.76381 12.5831C3.95324 13.0404 4.19194 13.4744 4.47496 13.8777C6.18887 13.025 8.08031 12.5805 10.0006 12.5833C11.9838 12.5834 13.8603 13.0488 15.5251 13.8776C15.8081 13.4744 16.0468 13.0404 16.2362 12.5831C16.5754 11.7642 16.75 10.8864 16.75 10C16.75 8.20979 16.0388 6.4929 14.773 5.22703C13.5071 3.96116 11.7902 3.25 10 3.25ZM16.3226 15.2997C16.8614 14.6569 17.3 13.9346 17.622 13.1571C18.0366 12.1562 18.25 11.0834 18.25 10C18.25 7.81196 17.3808 5.71354 15.8336 4.16637C14.2865 2.61919 12.188 1.75 10 1.75C7.81196 1.75 5.71354 2.61919 4.16637 4.16637C2.61919 5.71354 1.75 7.81196 1.75 10C1.75 11.0834 1.96339 12.1562 2.37799 13.1571C2.70004 13.9346 3.13859 14.6569 3.67738 15.2997C3.68877 15.3143 3.70063 15.3283 3.71292 15.3418C3.85713 15.5116 4.00838 15.6756 4.16637 15.8336C4.93245 16.5997 5.84193 17.2074 6.84286 17.622C7.8438 18.0366 8.91659 18.25 10 18.25C11.0834 18.25 12.1562 18.0366 13.1571 17.622C14.1581 17.2074 15.0675 16.5997 15.8336 15.8336C15.9916 15.6756 16.1429 15.5116 16.2871 15.3418C16.2994 15.3283 16.3112 15.3143 16.3226 15.2997ZM14.4853 15.0442C13.1176 14.4268 11.5997 14.0833 10 14.0833L9.99886 14.0833C8.4491 14.081 6.92068 14.4102 5.51486 15.0444C6.07721 15.5444 6.71995 15.9475 7.41689 16.2362C8.23583 16.5754 9.11358 16.75 10 16.75C10.8864 16.75 11.7642 16.5754 12.5831 16.2362C13.2801 15.9475 13.9229 15.5443 14.4853 15.0442ZM10.0006 12.5833C10.0008 12.5833 10.0009 12.5833 10.0011 12.5833L10 13.3333V12.5833C10.0002 12.5833 10.0004 12.5833 10.0006 12.5833ZM10 6.58333C9.53587 6.58333 9.09075 6.76771 8.76256 7.0959C8.43437 7.42409 8.25 7.8692 8.25 8.33333C8.25 8.79746 8.43437 9.24258 8.76256 9.57077C9.09075 9.89896 9.53587 10.0833 10 10.0833C10.4641 10.0833 10.9092 9.89896 11.2374 9.57077C11.5656 9.24258 11.75 8.79746 11.75 8.33333C11.75 7.8692 11.5656 7.42409 11.2374 7.0959C10.9092 6.76771 10.4641 6.58333 10 6.58333ZM7.7019 6.03524C8.3114 5.42574 9.13805 5.08333 10 5.08333C10.862 5.08333 11.6886 5.42574 12.2981 6.03524C12.9076 6.64473 13.25 7.47138 13.25 8.33333C13.25 9.19529 12.9076 10.0219 12.2981 10.6314C11.6886 11.2409 10.862 11.5833 10 11.5833C9.13805 11.5833 8.3114 11.2409 7.7019 10.6314C7.09241 10.0219 6.75 9.19529 6.75 8.33333C6.75 7.47138 7.09241 6.64473 7.7019 6.03524Z" fill="#707388"/>
</svg>
