<svg width="20" height="20" viewBox="0 0 20 20" fill="none" xmlns="http://www.w3.org/2000/svg">
<path fill-rule="evenodd" clip-rule="evenodd" d="M15.5825 1.30077C15.8929 1.41726 16.0985 1.714 16.0985 2.04549V4.87762C17.6187 5.23671 18.75 6.60242 18.75 8.23234C18.75 9.86231 17.6187 11.228 16.0985 11.5871V14.4192C16.0985 14.7507 15.8929 15.0474 15.5825 15.1639C15.2722 15.2804 14.9221 15.1922 14.704 14.9426C14.1482 14.3066 13.1727 13.7048 11.8475 13.2627C11.2557 13.0653 10.6059 12.9038 9.9116 12.7858V16.3992C9.9116 17.6975 8.85908 18.75 7.56075 18.75C6.56728 18.75 5.68102 18.1255 5.34686 17.1899L5.34493 17.1845L3.55691 12.0619C2.18593 11.3359 1.25 9.8942 1.25 8.23234C1.25 5.84051 3.18896 3.90155 5.58079 3.90155H7.20006C7.82595 3.90155 8.43404 3.86753 9.01734 3.80349C9.02431 3.80263 9.03131 3.80185 9.03834 3.80117C10.0646 3.68712 11.0137 3.48009 11.8475 3.20196C13.1727 2.75985 14.1482 2.15811 14.704 1.52208C14.9221 1.27246 15.2722 1.18428 15.5825 1.30077ZM8.32069 5.45878C7.95275 5.48104 7.57878 5.49245 7.20006 5.49245H5.58079C4.0676 5.49245 2.84091 6.71914 2.84091 8.23234C2.84091 9.36421 3.52744 10.3376 4.50999 10.7553M8.32069 5.45878V11.0059C7.95275 10.9836 7.57878 10.9722 7.20006 10.9722H5.58078C5.19938 10.9722 4.83795 10.8947 4.50999 10.7553M9.9116 11.1744V5.29034C10.7815 5.15716 11.6014 4.96113 12.3509 4.7111C13.1441 4.44651 13.8753 4.11562 14.5075 3.72305V12.7416C13.8753 12.3491 13.1441 12.0182 12.3509 11.7536C11.6014 11.5036 10.7815 11.3075 9.9116 11.1744ZM16.0985 6.55489V9.9098C16.7255 9.61193 17.1591 8.97279 17.1591 8.23234C17.1591 7.49193 16.7255 6.85278 16.0985 6.55489ZM8.32069 12.6C7.95478 12.5757 7.58071 12.5631 7.20006 12.5631H5.58078C5.52556 12.5631 5.47057 12.5621 5.41582 12.56L6.84508 16.6548C6.84534 16.6555 6.8456 16.6562 6.84587 16.657C6.95447 16.9582 7.24034 17.1591 7.56075 17.1591C7.98046 17.1591 8.32069 16.8189 8.32069 16.3992V12.6Z" fill="#707388"/>
</svg>
