<svg width="20" height="20" viewBox="0 0 20 20" fill="none" xmlns="http://www.w3.org/2000/svg">
<path fill-rule="evenodd" clip-rule="evenodd" d="M14.7158 15.8997H17.7125C17.4423 14.1867 15.9593 12.8767 14.1703 12.8767C14.121 12.8767 14.0719 12.8777 14.0232 12.8797C14.0324 12.9649 14.0544 13.0549 14.0883 13.1386C14.4377 14.0014 14.6548 14.9306 14.7158 15.8997ZM6.02003 7.95692C6.85481 7.95692 7.53153 7.28019 7.53153 6.44541C7.53153 5.61064 6.85481 4.93391 6.02003 4.93391C5.18526 4.93391 4.50853 5.61064 4.50853 6.44541C4.50853 7.28019 5.18526 7.95692 6.02003 7.95692ZM14.1703 7.95692C15.0051 7.95692 15.6818 7.28021 15.6818 6.44541C15.6818 5.61062 15.0051 4.93391 14.1703 4.93391C13.3355 4.93391 12.6588 5.61062 12.6588 6.44541C12.6588 7.28021 13.3355 7.95692 14.1703 7.95692ZM9.56218 15.8997C9.29201 14.1867 7.80899 12.8767 6.02002 12.8767C4.23106 12.8767 2.74804 14.1867 2.47787 15.8997H9.56218ZM6.02003 9.55733C7.73869 9.55733 9.13195 8.16407 9.13195 6.44541C9.13195 4.72675 7.73869 3.3335 6.02003 3.3335C4.30137 3.3335 2.90812 4.72675 2.90812 6.44541C2.90812 8.16407 4.30137 9.55733 6.02003 9.55733ZM13.133 16.4629C13.133 17.0121 13.5509 17.5002 14.1002 17.5002H18.3195C18.8924 17.5002 19.3568 17.0357 19.3568 16.4629C19.3568 13.5984 17.0347 11.2763 14.1703 11.2763C13.9462 11.2763 13.7255 11.2905 13.5089 11.3181C12.4346 11.4548 12.1985 12.7354 12.6049 13.7392C12.9455 14.5803 13.133 15.4997 13.133 16.4629ZM17.2822 6.44541C17.2822 8.16407 15.889 9.55733 14.1703 9.55733C12.4516 9.55733 11.0584 8.16407 11.0584 6.44541C11.0584 4.72675 12.4516 3.3335 14.1703 3.3335C15.889 3.3335 17.2822 4.72675 17.2822 6.44541ZM11.2066 16.4628C11.2066 13.5984 8.88446 11.2763 6.02002 11.2763C3.15559 11.2763 0.833496 13.5984 0.833496 16.4628C0.833496 17.0357 1.29792 17.5001 1.8708 17.5001H10.1692C10.7421 17.5001 11.2066 17.0357 11.2066 16.4628Z" fill="#707388"/>
</svg>
