<svg width="72" height="72" viewBox="0 0 72 72" fill="none" xmlns="http://www.w3.org/2000/svg">
<path fill-rule="evenodd" clip-rule="evenodd" d="M56.128 65.8519C50.3824 69.7334 43.456 72 36 72C27.8956 72 20.4168 69.322 14.4 64.8025C5.65596 58.2347 0 47.7778 0 36C0 16.1177 16.1177 0 36 0C55.8821 0 72 16.1177 72 36C72 48.4265 65.704 59.3824 56.128 65.8519ZM36 37.8C41.9648 37.8 46.8 32.5616 46.8 26.1C46.8 19.6383 41.9648 14.4 36 14.4C30.0352 14.4 25.2 19.6383 25.2 26.1C25.2 32.5616 30.0352 37.8 36 37.8ZM36 64.8C43.7832 64.8 50.845 61.7126 56.0282 56.6957C52.8228 48.7822 45.0634 43.2 36 43.2C26.9367 43.2 19.1772 48.7822 15.9718 56.6957C21.1549 61.7126 28.2169 64.8 36 64.8Z" fill="#D0D8E3"/>
</svg>
