<svg width="51" height="51" viewBox="0 0 51.01 51.01" fill="none" xmlns="http://www.w3.org/2000/svg">
<path fill-rule="evenodd" clip-rule="evenodd" d="M25 50C38.8071 50 50 38.8071 50 25C50 11.1929 38.8071 0 25 0C11.1929 0 0 11.1929 0 25C0 38.8071 11.1929 50 25 50Z" fill="CurrentColor"/>
<path d="M49.75 25C49.75 38.669 38.669 49.75 25 49.75C11.331 49.75 0.25 38.669 0.25 25C0.25 11.331 11.331 0.25 25 0.25C38.669 0.25 49.75 11.331 49.75 25Z" stroke="black" stroke-opacity="0.08" stroke-width="0.5" stroke-linejoin="round"/>
<path d="M25 11.9336C28.2945 11.9336 30.8959 13.0685 33.2978 15.2652C35.6639 17.4292 37 20.3819 37 23.4684L36.9807 33.5488C36.8459 35.3495 35.6061 36.6827 33.8041 36.6827C32.0022 36.6827 31.5255 35.4333 29.9844 35.6885C28.4433 35.9437 27.8647 37.9336 25 37.9336C22.1353 37.9336 21.4997 35.9343 20.0156 35.6885C18.4745 35.4333 17.9978 36.6827 16.1959 36.6827C14.4607 36.6827 13.1096 35.4296 13.0193 33.5488L13 23.4684C13 20.3819 14.3361 17.4292 16.7022 15.2652C19.004 13.16 21.7055 11.9336 25 11.9336ZM29.6333 28.3727C29.1055 27.8282 28.2022 27.784 27.6158 28.2741C26.1388 29.5085 24.6658 29.5085 23.1656 28.7562C22.7793 28.5625 22.5043 28.3744 22.3842 28.2741L22.2436 28.1705C21.6611 27.7938 20.8539 27.8701 20.3667 28.3727C19.8389 28.9173 19.8865 29.7561 20.4729 30.2462C20.7497 30.4775 21.2022 30.7869 21.808 31.0906C24.276 32.3282 27.0358 32.3282 29.5271 30.2462C30.1135 29.7561 30.1611 28.9173 29.6333 28.3727ZM20 20.9336C18.8954 20.9336 18 21.829 18 22.9336C18 24.0382 18.8954 24.9336 20 24.9336C21.1046 24.9336 22 24.0382 22 22.9336C22 21.829 21.1046 20.9336 20 20.9336ZM30 20.9336C28.8954 20.9336 28 21.829 28 22.9336C28 24.0382 28.8954 24.9336 30 24.9336C31.1046 24.9336 32 24.0382 32 22.9336C32 21.829 31.1046 20.9336 30 20.9336Z" fill="white"/>
</svg>
