<svg width="20" height="20" viewBox="0 0 20 20" fill="none" xmlns="http://www.w3.org/2000/svg">
<path d="M15.7143 7.14258V14.6426C15.7143 16.4178 14.2752 17.8569 12.5 17.8569H7.50003C5.72483 17.8569 4.28575 16.4178 4.28575 14.6426V7.14258H3.77874C3.26978 7.14258 2.85718 6.72998 2.85718 6.22101V5.17829C2.85718 4.09345 3.73662 3.21401 4.82146 3.21401H6.00086C6.37493 2.56645 7.07367 2.14258 7.85718 2.14258H12.1429C12.9264 2.14258 13.6251 2.56645 13.9992 3.21401H15.1786C16.2635 3.21401 17.1429 4.09345 17.1429 5.17829V6.22101C17.1429 6.72998 16.7303 7.14258 16.2213 7.14258H15.7143ZM15 5.71401H15.7143V5.17829C15.7143 4.88243 15.4745 4.64258 15.1786 4.64258H13.5265C13.2005 4.64258 12.916 4.42196 12.8347 4.10633C12.7543 3.79408 12.4707 3.57115 12.1429 3.57115H7.85718C7.52942 3.57115 7.24572 3.79408 7.16535 4.10633C7.08412 4.42196 6.79953 4.64258 6.47361 4.64258H4.82146C4.5256 4.64258 4.28575 4.88243 4.28575 5.17829V5.71401H5.00003H15ZM5.71432 7.14258V14.6426C5.71432 15.6288 6.51381 16.4283 7.50003 16.4283H12.5C13.4863 16.4283 14.2857 15.6288 14.2857 14.6426V7.14258H5.71432Z" fill="#FA4C56"/>
</svg>
