<svg width="20" height="21" viewBox="0 0 20.01 21.01" fill="none" xmlns="http://www.w3.org/2000/svg">
<path d="M4.99996 16.3333C4.99996 17.25 5.74996 18 6.66663 18H13.3333C14.25 18 15 17.25 15 16.3333V8C15 7.08333 14.25 6.33333 13.3333 6.33333H6.66663C5.74996 6.33333 4.99996 7.08333 4.99996 8V16.3333ZM15 3.83333H12.9166L12.325 3.24167C12.175 3.09167 11.9583 3 11.7416 3H8.25829C8.04163 3 7.82496 3.09167 7.67496 3.24167L7.08329 3.83333H4.99996C4.54163 3.83333 4.16663 4.20833 4.16663 4.66667C4.16663 5.125 4.54163 5.5 4.99996 5.5H15C15.4583 5.5 15.8333 5.125 15.8333 4.66667C15.8333 4.20833 15.4583 3.83333 15 3.83333Z" fill="CurrentColor"/>
</svg>
