<svg width="32" height="32" viewBox="0 0 32 32" fill="none" xmlns="http://www.w3.org/2000/svg">
<circle cx="16" cy="16" r="16" fill="#2F81FF"/>
<path d="M16 7C18.1963 7 19.9306 7.7857 21.5319 9.3065C23.1093 10.8047 24 12.8488 24 14.9856L23.9871 21.9643C23.8973 23.211 23.0707 24.134 21.8694 24.134C20.6682 24.134 20.3503 23.269 19.3229 23.4457C18.2955 23.6224 17.9098 25 16 25C14.0902 25 13.6664 23.6159 12.6771 23.4457C11.6497 23.269 11.3318 24.134 10.1306 24.134C8.97379 24.134 8.07308 23.2665 8.01285 21.9643L8 14.9856C8 12.8488 8.89071 10.8047 10.4681 9.3065C12.0027 7.84907 13.8037 7 16 7ZM14.3462 18.1481C13.9966 17.9126 13.5124 17.9603 13.22 18.2745C12.9034 18.6148 12.9319 19.139 13.2838 19.4454C13.4498 19.5899 13.7213 19.7833 14.0848 19.9732C15.5656 20.7466 17.2215 20.7466 18.7163 19.4454C19.0681 19.139 19.0967 18.6148 18.78 18.2745C18.4633 17.9341 17.9213 17.9065 17.5695 18.2128C16.6833 18.9843 15.7995 18.9843 14.8993 18.5141C14.6676 18.3931 14.5026 18.2755 14.4305 18.2128L14.3462 18.1481ZM12.5 13C11.6716 13 11 13.6716 11 14.5C11 15.3284 11.6716 16 12.5 16C13.3284 16 14 15.3284 14 14.5C14 13.6716 13.3284 13 12.5 13ZM18.2958 14.1025C18.0731 14.2103 17.9048 14.3214 17.7943 14.4106C17.4294 14.7051 17.3998 15.209 17.7282 15.5362C18.0313 15.8382 18.5335 15.884 18.896 15.6577L18.9835 15.5954C18.9965 15.5849 19.0544 15.5467 19.1405 15.505C19.4251 15.3672 19.6626 15.3535 19.9272 15.5296L20.0165 15.5954C20.3814 15.8899 20.9434 15.8633 21.2718 15.5362C21.6002 15.209 21.5706 14.7051 21.2057 14.4106C20.2729 13.6578 19.2141 13.6578 18.2958 14.1025Z" fill="white"/>
</svg>
