<?xml version="1.0" encoding="UTF-8"?>
<svg xmlns="http://www.w3.org/2000/svg" xmlns:xlink="http://www.w3.org/1999/xlink" width="36px" height="36px" viewBox="0 0 36 36" version="1.1">
<g id="surface1">
<path style=" stroke:none;fill-rule:evenodd;fill:rgb(81.568627%,84.705882%,89.019608%);fill-opacity:1;" d="M 28.0625 32.925781 C 25.191406 34.867188 21.726562 36 18 36 C 13.949219 36 10.207031 34.660156 7.199219 32.402344 C 2.828125 29.117188 0 23.890625 0 18 C 0 8.058594 8.058594 0 18 0 C 27.941406 0 36 8.058594 36 18 C 36 24.214844 32.851562 29.691406 28.0625 32.925781 Z M 18 18.898438 C 20.984375 18.898438 23.398438 16.28125 23.398438 13.050781 C 23.398438 9.820312 20.984375 7.199219 18 7.199219 C 15.015625 7.199219 12.601562 9.820312 12.601562 13.050781 C 12.601562 16.28125 15.015625 18.898438 18 18.898438 Z M 18 32.398438 C 21.890625 32.398438 25.421875 30.855469 28.015625 28.347656 C 26.410156 24.390625 22.53125 21.601562 18 21.601562 C 13.46875 21.601562 9.589844 24.390625 7.984375 28.347656 C 10.578125 30.855469 14.109375 32.398438 18 32.398438 Z M 18 32.398438 "/>
</g>
</svg>
