<svg width="32" height="32" viewBox="0 0 32.01 32.01" fill="none" xmlns="http://www.w3.org/2000/svg">
<path fill-rule="evenodd" clip-rule="evenodd" d="M24.9458 29.2675C22.3922 30.9926 19.3138 32 16 32C12.3981 32 9.07411 30.8098 6.4 28.8011C2.51376 25.8821 0 21.2346 0 16C0 7.16344 7.16344 0 16 0C24.8365 0 32 7.16344 32 16C32 21.5229 29.2018 26.3922 24.9458 29.2675ZM16 16.8C18.651 16.8 20.8 14.4718 20.8 11.6C20.8 8.72811 18.651 6.4 16 6.4C13.349 6.4 11.2 8.72811 11.2 11.6C11.2 14.4718 13.349 16.8 16 16.8ZM16 28.8C19.4592 28.8 22.5978 27.4278 24.9014 25.1981C23.4768 21.681 20.0282 19.2 16 19.2C11.9719 19.2 8.52318 21.681 7.09859 25.1981C9.40216 27.4278 12.5408 28.8 16 28.8Z" fill="CurrentColor"/>
</svg>
