<svg width="48" height="48" viewBox="0 0 50 50" fill="none" xmlns="http://www.w3.org/2000/svg">
<path fill-rule="evenodd" clip-rule="evenodd" d="M38.9778 45.7305C34.9878 48.426 30.1777 50 25 50C19.372 50 14.1783 48.1402 10 45.0017C3.92775 40.4408 0 33.179 0 25C0 11.1929 11.1929 0 25 0C38.807 0 50 11.1929 50 25C50 33.6295 45.6278 41.2378 38.9778 45.7305ZM25 26.25C29.1423 26.25 32.5 22.6122 32.5 18.125C32.5 13.6377 29.1423 10 25 10C20.8577 10 17.5 13.6377 17.5 18.125C17.5 22.6122 20.8577 26.25 25 26.25ZM25 45C30.405 45 35.309 42.856 38.9085 39.372C36.6825 33.8765 31.294 30 25 30C18.706 30 13.3175 33.8765 11.0916 39.372C14.6909 42.856 19.5951 45 25 45Z" fill="#D0D8E3"/>
</svg>
