<svg width="40" height="40" viewBox="0 0 40 40" fill="none" xmlns="http://www.w3.org/2000/svg">
  <rect width="40" height="40" rx="8" fill="currentColor" fill-opacity="0.2"/>
  <g transform="translate(11, 9.5)">
    <path fill-rule="evenodd" clip-rule="evenodd" d="M6.59285 0C4.49475 0 3.5698 0.184819 2.63097 0.686913C1.79508 1.13395 1.13395 1.79508 0.686912 2.63097C0.184818 3.5698 0 4.49475 0 6.59285V13.9786C0 16.0767 0.184818 17.0016 0.686912 17.9405C1.13395 18.7763 1.79508 19.4375 2.63097 19.8845C3.5698 20.3866 4.49475 20.5714 6.59285 20.5714H10.55C12.6481 20.5714 13.5731 20.3866 14.5119 19.8845C15.3478 19.4375 16.0089 18.7763 16.4559 17.9405C16.958 17.0016 17.1429 16.0767 17.1429 13.9786V8.87898C17.1429 8.19611 17.1191 7.88888 17.0382 7.53828C16.9582 7.19097 16.8282 6.87719 16.6392 6.575C16.4485 6.26995 16.2481 6.03588 15.7652 5.55301L11.5898 1.37766C11.107 0.894796 10.8729 0.694385 10.5679 0.50361C10.2657 0.314627 9.95189 0.184654 9.60458 0.104608C9.31148 0.0370566 9.0487 0.00934201 8.57143 0.00206767V0H6.59285ZM6.59285 1.71429C4.59147 1.71429 4.00576 1.89571 3.43942 2.19859C2.90228 2.48586 2.48586 2.90228 2.19859 3.43942C1.89571 4.00576 1.71429 4.59147 1.71429 6.59285V13.9786C1.71429 15.98 1.89571 16.5657 2.19859 17.132C2.48586 17.6691 2.90228 18.0856 3.43942 18.3728C4.00576 18.6757 4.59146 18.8571 6.59285 18.8571H10.55C12.5514 18.8571 13.1371 18.6757 13.7034 18.3728C14.2406 18.0856 14.657 17.6691 14.9443 17.132C15.2471 16.5657 15.4286 15.98 15.4286 13.9786V8.87898C15.4286 8.7613 15.4279 8.6598 15.4265 8.57106L10.7143 8.57143C9.53082 8.57143 8.57143 7.61204 8.57143 6.42857L8.5727 1.71639C8.52627 1.71563 8.47633 1.71509 8.42241 1.71475L6.59285 1.71429ZM10.3777 2.58985L10.2857 2.49857V6.42857C10.2857 6.63897 10.4373 6.81395 10.6372 6.85024L10.7143 6.85714L14.6463 6.85891C14.617 6.82928 14.5859 6.7981 14.553 6.76519L10.3777 2.58985ZM4.28571 15.4286C4.28571 14.9552 4.66947 14.5714 5.14286 14.5714H8.57143C9.04481 14.5714 9.42857 14.9552 9.42857 15.4286C9.42857 15.902 9.04481 16.2857 8.57143 16.2857H5.14286C4.66947 16.2857 4.28571 15.902 4.28571 15.4286ZM5.14286 11.1429C4.66947 11.1429 4.28571 11.5266 4.28571 12C4.28571 12.4734 4.66947 12.8571 5.14286 12.8571H11.1429C11.6162 12.8571 12 12.4734 12 12C12 11.5266 11.6162 11.1429 11.1429 11.1429H5.14286Z" fill="currentColor"/>
  </g>
</svg>
