<svg width="16" height="16" viewBox="0 0 16 16" fill="none" xmlns="http://www.w3.org/2000/svg">
<path d="M6.5 3C6.5 3.82843 5.82843 4.5 5 4.5C4.17157 4.5 3.5 3.82843 3.5 3C3.5 2.17157 4.17157 1.5 5 1.5C5.82843 1.5 6.5 2.17157 6.5 3Z" fill="#757D8B"/>
<path d="M6.5 8C6.5 8.82843 5.82843 9.5 5 9.5C4.17157 9.5 3.5 8.82843 3.5 8C3.5 7.17157 4.17157 6.5 5 6.5C5.82843 6.5 6.5 7.17157 6.5 8Z" fill="#757D8B"/>
<path d="M6.5 13C6.5 13.8284 5.82843 14.5 5 14.5C4.17157 14.5 3.5 13.8284 3.5 13C3.5 12.1716 4.17157 11.5 5 11.5C5.82843 11.5 6.5 12.1716 6.5 13Z" fill="#757D8B"/>
<path d="M12.5 3C12.5 3.82843 11.8284 4.5 11 4.5C10.1716 4.5 9.5 3.82843 9.5 3C9.5 2.17157 10.1716 1.5 11 1.5C11.8284 1.5 12.5 2.17157 12.5 3Z" fill="#757D8B"/>
<path d="M12.5 8C12.5 8.82843 11.8284 9.5 11 9.5C10.1716 9.5 9.5 8.82843 9.5 8C9.5 7.17157 10.1716 6.5 11 6.5C11.8284 6.5 12.5 7.17157 12.5 8Z" fill="#757D8B"/>
<path d="M12.5 13C12.5 13.8284 11.8284 14.5 11 14.5C10.1716 14.5 9.5 13.8284 9.5 13C9.5 12.1716 10.1716 11.5 11 11.5C11.8284 11.5 12.5 12.1716 12.5 13Z" fill="#757D8B"/>
</svg>
