<svg width="24" height="24" viewBox="0 0 24 24" fill="none" xmlns="http://www.w3.org/2000/svg">
<path fill-rule="evenodd" clip-rule="evenodd" d="M3.00005 14.3008C3.38665 14.3008 3.70005 14.6142 3.70005 15.0008V19.0008C3.70005 19.3456 3.83701 19.6762 4.08081 19.92C4.32461 20.1638 4.65527 20.3008 5.00005 20.3008H19C19.3448 20.3008 19.6755 20.1638 19.9193 19.92C20.1631 19.6762 20.3 19.3456 20.3 19.0008V15.0008C20.3 14.6142 20.6135 14.3008 21 14.3008C21.3866 14.3008 21.7001 14.6142 21.7001 15.0008V19.0008C21.7001 19.7169 21.4156 20.4036 20.9092 20.91C20.4029 21.4163 19.7161 21.7008 19 21.7008H5.00005C4.28396 21.7008 3.59721 21.4163 3.09086 20.91C2.58451 20.4036 2.30005 19.7169 2.30005 19.0008V15.0008C2.30005 14.6142 2.61345 14.3008 3.00005 14.3008Z" fill="currentColor"/>
<path fill-rule="evenodd" clip-rule="evenodd" d="M6.50507 9.50581C6.77844 9.23244 7.22166 9.23244 7.49502 9.50581L12 14.0108L16.5051 9.50581C16.7784 9.23244 17.2217 9.23244 17.495 9.50581C17.7684 9.77917 17.7684 10.2224 17.495 10.4958L12.495 15.4958C12.3637 15.627 12.1857 15.7008 12 15.7008C11.8144 15.7008 11.6363 15.627 11.5051 15.4958L6.50507 10.4958C6.23171 10.2224 6.23171 9.77917 6.50507 9.50581Z" fill="currentColor"/>
<path fill-rule="evenodd" clip-rule="evenodd" d="M12 2.30078C12.3866 2.30078 12.7 2.61418 12.7 3.00078V15.0008C12.7 15.3874 12.3866 15.7008 12 15.7008C11.6134 15.7008 11.3 15.3874 11.3 15.0008V3.00078C11.3 2.61418 11.6134 2.30078 12 2.30078Z" fill="currentColor"/>
</svg>
