<svg width="32" height="32" viewBox="0 0 32 32" fill="none" xmlns="http://www.w3.org/2000/svg">
<path d="M17.5 3.5C17.5 2.67157 16.8284 2 16 2C15.1716 2 14.5 2.67157 14.5 3.5V16.8787L10.0607 12.4393C9.47487 11.8536 8.52513 11.8536 7.93934 12.4393C7.35355 13.0251 7.35355 13.9749 7.93934 14.5607L14.9393 21.5607C15.2206 21.842 15.6022 22 16 22C16.3978 22 16.7794 21.842 17.0607 21.5607L24.0607 14.5607C24.6464 13.9749 24.6464 13.0251 24.0607 12.4393C23.4749 11.8536 22.5251 11.8536 21.9393 12.4393L17.5 16.8787V3.5Z" fill="white"/>
<path d="M5.5 25C4.67157 25 4 25.6716 4 26.5C4 27.3284 4.67157 28 5.5 28H26.5C27.3284 28 28 27.3284 28 26.5C28 25.6716 27.3284 25 26.5 25H5.5Z" fill="white"/>
</svg>
