<svg width="20" height="20" viewBox="0 0 20.01 20.01" fill="none" xmlns="http://www.w3.org/2000/svg">
<path fill-rule="evenodd" clip-rule="evenodd" d="M11.8827 6.23195L4.35174 13.7629C4.17983 13.9348 4.08325 14.1679 4.08325 14.4111L4.08325 15.8337C4.08325 15.8797 4.12056 15.917 4.16659 15.917H5.58917C5.83229 15.917 6.06545 15.8204 6.23735 15.6485L13.7683 8.11756L11.8827 6.23195ZM12.9433 5.17129L14.8289 7.0569L15.7717 6.1141C15.967 5.91883 15.967 5.60225 15.7717 5.40699L14.5932 4.22848C14.398 4.03322 14.0814 4.03322 13.8861 4.22848L12.9433 5.17129ZM3.29108 12.7022L12.8255 3.16782C13.6065 2.38677 14.8728 2.38677 15.6539 3.16782L16.8324 4.34633C17.6134 5.12738 17.6134 6.39371 16.8324 7.17476L7.29801 16.7092C6.8448 17.1624 6.23011 17.417 5.58917 17.417L4.16659 17.417C3.29214 17.417 2.58325 16.7081 2.58325 15.8337L2.58325 14.4111C2.58325 13.7701 2.83786 13.1554 3.29108 12.7022Z" fill="CurrentColor"/>
</svg>
