<svg width="20" height="20" viewBox="0 0 20.01 20.01" fill="none" xmlns="http://www.w3.org/2000/svg">
<path fill-rule="evenodd" clip-rule="evenodd" d="M7.1875 3.875C6.73877 3.875 6.375 4.23877 6.375 4.6875C6.375 5.13623 6.73877 5.5 7.1875 5.5C7.63623 5.5 8 5.13623 8 4.6875C8 4.23877 7.63623 3.875 7.1875 3.875ZM4.875 4.6875C4.875 3.41034 5.91034 2.375 7.1875 2.375C8.46466 2.375 9.5 3.41034 9.5 4.6875C9.5 5.96466 8.46466 7 7.1875 7C5.91034 7 4.875 5.96466 4.875 4.6875ZM12.8125 3.875C12.3638 3.875 12 4.23877 12 4.6875C12 5.13623 12.3638 5.5 12.8125 5.5C13.2612 5.5 13.625 5.13623 13.625 4.6875C13.625 4.23877 13.2612 3.875 12.8125 3.875ZM10.5 4.6875C10.5 3.41034 11.5353 2.375 12.8125 2.375C14.0897 2.375 15.125 3.41034 15.125 4.6875C15.125 5.96466 14.0897 7 12.8125 7C11.5353 7 10.5 5.96466 10.5 4.6875ZM3.4375 7.625C2.98877 7.625 2.625 7.98877 2.625 8.4375C2.625 8.88623 2.98877 9.25 3.4375 9.25C3.88623 9.25 4.25 8.88623 4.25 8.4375C4.25 7.98877 3.88623 7.625 3.4375 7.625ZM1.125 8.4375C1.125 7.16034 2.16034 6.125 3.4375 6.125C4.71466 6.125 5.75 7.16034 5.75 8.4375C5.75 9.71466 4.71466 10.75 3.4375 10.75C2.16034 10.75 1.125 9.71466 1.125 8.4375ZM16.5625 7.625C16.1138 7.625 15.75 7.98877 15.75 8.4375C15.75 8.88623 16.1138 9.25 16.5625 9.25C17.0112 9.25 17.375 8.88623 17.375 8.4375C17.375 7.98877 17.0112 7.625 16.5625 7.625ZM14.25 8.4375C14.25 7.16034 15.2853 6.125 16.5625 6.125C17.8397 6.125 18.875 7.16034 18.875 8.4375C18.875 9.71466 17.8397 10.75 16.5625 10.75C15.2853 10.75 14.25 9.71466 14.25 8.4375ZM7.85681 8.07942C8.47449 7.61423 9.22675 7.36264 10 7.36264C10.7733 7.36264 11.5255 7.61423 12.1432 8.07942C12.7609 8.54461 13.2104 9.19813 13.424 9.94131C13.6169 10.6128 14.0666 11.1812 14.6757 11.5235C15.3071 11.8687 15.8061 12.4138 16.0944 13.0732C16.3833 13.7342 16.4441 14.4725 16.2672 15.1719C16.0904 15.8712 15.6858 16.4919 15.1174 16.936C14.549 17.3801 13.8489 17.6225 13.1276 17.625L13.1255 17.625C12.6914 17.6253 12.2616 17.5394 11.8609 17.3724C11.271 17.1278 10.6386 17.0019 10 17.0019C9.36128 17.0019 8.72883 17.1279 8.13882 17.3725L8.14045 17.3718C7.73941 17.5392 7.30911 17.6253 6.87454 17.625L6.87244 17.625C6.15107 17.6225 5.45103 17.3801 4.88259 16.936C4.31415 16.4919 3.90963 15.8712 3.73276 15.1719C3.55589 14.4725 3.61671 13.7342 3.90565 13.0732C4.19393 12.4138 4.69294 11.8687 5.32435 11.5235C5.93336 11.1812 6.38309 10.6128 6.57604 9.94132C6.78958 9.19813 7.23914 8.54461 7.85681 8.07942ZM10 8.86264C9.55233 8.86264 9.11681 9.0083 8.75921 9.27762C8.40161 9.54694 8.14134 9.92529 8.01771 10.3556C7.71526 11.4082 7.00954 12.2989 6.05398 12.8341L6.04634 12.8383C5.70525 13.0242 5.43565 13.3181 5.28007 13.6741C5.12448 14.03 5.09173 14.4275 5.18697 14.8041C5.28221 15.1807 5.50003 15.5149 5.80611 15.754C6.11193 15.993 6.4885 16.1235 6.87658 16.125C7.11211 16.125 7.34531 16.0783 7.56267 15.9876L7.56431 15.9869C8.33644 15.6667 9.16412 15.5019 10 15.5019C10.8359 15.5019 11.6636 15.6667 12.4357 15.9869L12.4373 15.9876C12.6547 16.0783 12.8879 16.125 13.1234 16.125C13.5115 16.1235 13.8881 15.993 14.1939 15.754C14.5 15.5149 14.7178 15.1807 14.813 14.8041C14.9083 14.4275 14.8755 14.03 14.7199 13.6741C14.5644 13.3182 14.2948 13.0241 13.9537 12.8383L13.946 12.8341C12.9904 12.2989 12.2847 11.4082 11.9823 10.3556C11.8587 9.92529 11.5984 9.54694 11.2408 9.27762C10.8832 9.0083 10.4477 8.86264 10 8.86264Z" fill="CurrentColor"/>
</svg>
