<svg width="24" height="24" viewBox="0 0 24 24" fill="currentColor" xmlns="http://www.w3.org/2000/svg">
<path d="M10 16H11.19V13.94C11.1328 13.9054 11.0792 13.8652 11.03 13.82L9.32 12.1C9.21532 12.0104 9.1303 11.9 9.07027 11.776C9.01025 11.6519 8.97652 11.5168 8.9712 11.3791C8.96588 11.2413 8.98909 11.104 9.03936 10.9757C9.08964 10.8474 9.16589 10.7308 9.26335 10.6333C9.3608 10.5359 9.47735 10.4596 9.60568 10.4094C9.734 10.3591 9.87133 10.3359 10.0091 10.3412C10.1468 10.3465 10.2819 10.3803 10.406 10.4403C10.53 10.5003 10.6404 10.5853 10.73 10.69L11.98 11.94L13.3 10.62C13.3902 10.5287 13.4977 10.4562 13.6161 10.4067C13.7346 10.3572 13.8616 10.3318 13.99 10.3318C14.1184 10.3318 14.2454 10.3572 14.3639 10.4067C14.4823 10.4562 14.5898 10.5287 14.68 10.62C15.08 11.02 15.08 11.67 14.68 12.08L13 13.74C12.943 13.7975 12.8792 13.8479 12.81 13.89V16H14V15.85C13.9979 15.7143 14.0234 15.5797 14.0749 15.4542C14.1265 15.3287 14.2031 15.215 14.3 15.12C17.01 12.54 18.01 10.95 18.01 8.85C17.9889 7.27898 17.3452 5.78053 16.2203 4.6837C15.0953 3.58687 13.5811 2.98131 12.01 3C8.69 3 6 5.63 6 8.85C6 10.95 6.98 12.51 9.7 15.11C9.89 15.29 10 15.56 10 15.83V16ZM10 18V19C10 19.2652 10.1054 19.5196 10.2929 19.7071C10.4804 19.8946 10.7348 20 11 20H13C13.2652 20 13.5196 19.8946 13.7071 19.7071C13.8946 19.5196 14 19.2652 14 19V18H10ZM8 16.25C5.15 13.48 4 11.55 4 8.85C4 4.51 7.6 1 12 1C16.42 1 20.01 4.51 20.01 8.85C20.01 11.55 18.84 13.51 16 16.27V19C16 19.7956 15.6839 20.5587 15.1213 21.1213C14.5587 21.6839 13.7956 22 13 22H11C10.2044 22 9.44129 21.6839 8.87868 21.1213C8.31607 20.5587 8 19.7956 8 19V16.25Z" fill="currentColor"/>
</svg>
