<svg width="20" height="20" viewBox="0 0 20.01 20.01" fill="none" xmlns="http://www.w3.org/2000/svg">
<g clip-path="url(#clip0_1048_8610)">
<path fill-rule="evenodd" clip-rule="evenodd" d="M10 0.916992C10.4142 0.916992 10.75 1.25278 10.75 1.66699V2.50033C10.75 2.91454 10.4142 3.25033 10 3.25033C9.58581 3.25033 9.25002 2.91454 9.25002 2.50033V1.66699C9.25002 1.25278 9.58581 0.916992 10 0.916992ZM3.55294 3.55325C3.84584 3.26035 4.32071 3.26035 4.6136 3.55325L5.11368 4.05333C5.40658 4.34622 5.40658 4.8211 5.11368 5.11399C4.82079 5.40688 4.34592 5.40688 4.05302 5.11399L3.55294 4.61391C3.26005 4.32101 3.26005 3.84614 3.55294 3.55325ZM16.4473 3.55331C16.7401 3.84624 16.7401 4.32112 16.4472 4.61397L15.9469 5.11406C15.654 5.40691 15.1791 5.40685 14.8863 5.11392C14.5934 4.82099 14.5935 4.34612 14.8864 4.05326L15.3866 3.55318C15.6796 3.26032 16.1544 3.26038 16.4473 3.55331ZM10 5.75033C7.65281 5.75033 5.75002 7.65311 5.75002 10.0003C5.75002 12.3475 7.65281 14.2503 10 14.2503C12.3472 14.2503 14.25 12.3475 14.25 10.0003C14.25 7.65311 12.3472 5.75033 10 5.75033ZM4.25002 10.0003C4.25002 6.82469 6.82438 4.25033 10 4.25033C13.1757 4.25033 15.75 6.82469 15.75 10.0003C15.75 12.3128 14.385 14.3064 12.4167 15.2193V16.667C12.4167 18.0017 11.3347 19.0837 10 19.0837C8.66533 19.0837 7.58335 18.0017 7.58335 16.667V15.2193C5.61508 14.3064 4.25002 12.3128 4.25002 10.0003ZM9.08335 15.6777V16.667C9.08335 17.1733 9.49376 17.5837 10 17.5837C10.5063 17.5837 10.9167 17.1733 10.9167 16.667V15.6777C10.6182 15.7255 10.312 15.7503 10 15.7503C9.68804 15.7503 9.38186 15.7255 9.08335 15.6777ZM0.916687 10.0003C0.916687 9.58611 1.25247 9.25033 1.66669 9.25033H2.50002C2.91423 9.25033 3.25002 9.58611 3.25002 10.0003C3.25002 10.4145 2.91423 10.7503 2.50002 10.7503H1.66669C1.25247 10.7503 0.916687 10.4145 0.916687 10.0003ZM16.75 10.0003C16.75 9.58611 17.0858 9.25033 17.5 9.25033H18.3334C18.7476 9.25033 19.0834 9.58611 19.0834 10.0003C19.0834 10.4145 18.7476 10.7503 18.3334 10.7503H17.5C17.0858 10.7503 16.75 10.4145 16.75 10.0003Z" fill="CurrentColor"/>
</g>
<defs>
<clipPath id="clip0_1048_8610">
<rect width="20" height="20" fill="CurrentColor"/>
</clipPath>
</defs>
</svg>
