<svg width="20" height="20" viewBox="0 0 20.01 20.01" fill="none" xmlns="http://www.w3.org/2000/svg">
<path fill-rule="evenodd" clip-rule="evenodd" d="M8.03993 1.76032C8.44851 1.82842 8.72452 2.21484 8.65643 2.62342L8.10753 5.91678H13.2535L13.8435 2.37682C13.9116 1.96824 14.298 1.69223 14.7066 1.76032C15.1152 1.82842 15.3912 2.21484 15.3231 2.62342L14.7742 5.91678H17.0833C17.4975 5.91678 17.8333 6.25257 17.8333 6.66678C17.8333 7.081 17.4975 7.41678 17.0833 7.41678H14.5242L13.6631 12.5835H16.25C16.6642 12.5835 17 12.9192 17 13.3335C17 13.7477 16.6642 14.0835 16.25 14.0835H13.4131L12.8231 17.6234C12.755 18.032 12.3686 18.308 11.96 18.2399C11.5514 18.1718 11.2754 17.7854 11.3435 17.3768L11.8924 14.0835H6.74642L6.15643 17.6234C6.08833 18.032 5.70191 18.308 5.29333 18.2399C4.88476 18.1718 4.60874 17.7854 4.67684 17.3768L5.22573 14.0835H2.08331C1.6691 14.0835 1.33331 13.7477 1.33331 13.3335C1.33331 12.9192 1.6691 12.5835 2.08331 12.5835H5.47573L6.33684 7.41678H2.91665C2.50243 7.41678 2.16665 7.081 2.16665 6.66678C2.16665 6.25257 2.50243 5.91678 2.91665 5.91678H6.58684L7.17684 2.37682C7.24494 1.96824 7.63136 1.69223 8.03993 1.76032ZM7.85753 7.41678L6.99642 12.5835H12.1424L13.0035 7.41678H7.85753Z" fill="CurrentColor"/>
</svg>
