<svg width="20" height="20" viewBox="0 0 20.01 20.01" fill="none" xmlns="http://www.w3.org/2000/svg">
<path fill-rule="evenodd" clip-rule="evenodd" d="M12.1429 7.85501C12.1429 7.46044 12.4627 7.14058 12.8572 7.14058C13.6356 7.14058 14.3584 7.40233 14.8903 7.92C15.4253 8.44062 15.7143 9.16884 15.7143 9.99832C15.7143 10.3929 15.3945 10.7128 15 10.7128C14.6055 10.7128 14.2857 10.3929 14.2857 9.99832C14.2857 9.50882 14.1215 9.1654 13.8941 8.94411C13.6637 8.71986 13.315 8.56945 12.8572 8.56945C12.4627 8.56945 12.1429 8.24959 12.1429 7.85501Z" fill="CurrentColor"/>
<path fill-rule="evenodd" clip-rule="evenodd" d="M10.0826 2.22208C9.46711 2.83765 9.27285 3.74445 9.28636 4.58902C8.69022 4.39045 8.052 4.28286 7.38097 4.28286C3.94334 4.28286 1.42859 6.7337 1.42859 10.1412C1.42859 11.785 2.01698 13.8392 3.0028 15.4907C3.97104 17.1127 5.46753 18.5716 7.38097 18.5716C8.32823 18.5716 9.21017 18.3572 10.0001 17.9754C10.7903 18.3573 11.6718 18.5715 12.619 18.5716C14.5325 18.5716 16.029 17.1127 16.9972 15.4907C17.9831 13.8392 18.5714 11.785 18.5714 10.1412C18.5714 6.93282 16.342 4.57255 13.2119 4.30767C13.4337 3.87375 13.5185 3.41499 13.5513 3.06423C13.5998 2.54629 13.5348 2.04805 13.4604 1.53618C12.948 1.46362 12.451 1.39671 11.9327 1.44521C11.4093 1.49419 10.6454 1.65909 10.0826 2.22208ZM7.38097 5.71173C4.70749 5.71173 2.85716 7.54745 2.85716 10.1412C2.85716 11.4981 3.36004 13.3019 4.22938 14.7582C5.1163 16.244 6.23885 17.1427 7.38097 17.1427C8.13913 17.1427 8.83541 16.9648 9.4558 16.6506C9.79747 16.4775 10.2025 16.4775 10.5443 16.6505C11.1651 16.9649 11.8609 17.1427 12.6191 17.1427C13.7612 17.1427 14.8837 16.244 15.7707 14.7582C16.64 13.3019 17.1429 11.4981 17.1429 10.1412C17.1429 7.54745 15.2925 5.71173 12.6191 5.71173C11.8695 5.71173 11.165 5.88971 10.5457 6.20386C10.2038 6.37725 9.79838 6.37745 9.45632 6.20417C8.83532 5.88958 8.13908 5.71173 7.38097 5.71173ZM10.7225 4.2746C11.0837 4.24895 11.4984 4.17045 11.7645 3.90436C12.0305 3.63827 12.109 3.2234 12.1346 2.8622C11.7735 2.88785 11.3587 2.96635 11.0927 3.23244C10.8267 3.49853 10.7482 3.9134 10.7225 4.2746Z" fill="CurrentColor"/>
<path fill-rule="evenodd" clip-rule="evenodd" d="M12.8572 7.14058C12.4627 7.14058 12.1429 7.46044 12.1429 7.85501C12.1429 8.24959 12.4627 8.56945 12.8572 8.56945C13.315 8.56945 13.6637 8.71986 13.8941 8.94411C14.1215 9.1654 14.2857 9.50882 14.2857 9.99832C14.2857 10.3929 14.6055 10.7128 15 10.7128C15.3945 10.7128 15.7143 10.3929 15.7143 9.99832C15.7143 9.16884 15.4253 8.44062 14.8903 7.92C14.3584 7.40233 13.6356 7.14058 12.8572 7.14058Z" fill="CurrentColor"/>
</svg>
