<svg width="24" height="24" viewBox="0 0 24 24" fill="currentColor" xmlns="http://www.w3.org/2000/svg">
<path d="M16.375 5.33563C14.7668 5.33563 13.8585 5.68213 13.155 6.15288C13.6039 5.12738 14.702 3.58563 17.25 3.58563C17.4821 3.58563 17.7046 3.49344 17.8687 3.32935C18.0328 3.16525 18.125 2.94269 18.125 2.71063C18.125 2.47856 18.0328 2.256 17.8687 2.09191C17.7046 1.92781 17.4821 1.83563 17.25 1.83563C14.6941 1.83563 13.1996 3.03 12.3964 4.03363C12.3404 4.10188 12.2922 4.17538 12.2389 4.24713C11.7638 2.58813 10.9482 1 9.55612 1C9.00662 0.999127 8.36875 1.24763 7.625 1.83563C5.89862 3.20238 6.16288 4.39413 7.1805 5.354C4.65788 5.54913 1.5 7.41288 1.5 12.3278C1.5 16.337 5.84088 21.9606 9.375 21.9606C11.1031 21.9606 11.4496 21.5354 12 21.0856C12.5504 21.5354 12.8969 21.9606 14.625 21.9606C18.1591 21.9606 22.5 16.3449 22.5 12.3356C22.5 7.12675 18.9519 5.33563 16.375 5.33563ZM8.71175 3.20763C9.27262 2.76313 9.53687 2.75 9.55612 2.75C9.92887 2.89788 10.4093 3.97938 10.7435 5.42313C9.40738 4.87275 8.34513 4.24013 8.136 3.80788C8.18762 3.70988 8.34687 3.49638 8.71175 3.20763ZM14.625 20.2106C13.68 20.2106 13.5662 20.1153 13.2609 19.8589L13.1069 19.7311C12.7858 19.4669 12.3929 19.3356 11.9991 19.3356C11.6054 19.3356 11.2134 19.4669 10.8914 19.7311L10.7374 19.8589C10.4338 20.1144 10.32 20.2106 9.375 20.2106C6.91363 20.2106 3.25 15.4953 3.25 12.3278C3.25 7.23263 7.177 7.08563 7.625 7.08563C9.32163 7.08563 9.7985 7.49775 10.5886 8.18025L10.8713 8.42175C11.1866 8.68907 11.5866 8.83579 12 8.83579C12.4134 8.83579 12.8134 8.68907 13.1287 8.42175L13.4114 8.18025C14.2006 7.49775 14.6775 7.08563 16.375 7.08563C16.823 7.08563 20.75 7.23263 20.75 12.3356C20.75 15.5005 17.0864 20.2106 14.625 20.2106Z" fill="currentColor"/>
</svg>
