<svg width="20" height="20" viewBox="0 0 20.01 20.01" fill="none" xmlns="http://www.w3.org/2000/svg">
<path fill-rule="evenodd" clip-rule="evenodd" d="M4.16667 3.25C3.92355 3.25 3.69039 3.34658 3.51849 3.51849C3.34658 3.69039 3.25 3.92355 3.25 4.16667V11.9306C3.53816 11.8125 3.84919 11.75 4.16667 11.75H9.58333C9.78225 11.75 9.97301 11.829 10.1137 11.9697L10.7273 12.5833H16.2865L14.3292 8.66874C14.2236 8.4576 14.2236 8.20907 14.3292 7.99792L16.2865 4.08333H10.75V7.5C10.75 7.91421 10.4142 8.25 10 8.25C9.58579 8.25 9.25 7.91421 9.25 7.5V3.25H4.16667ZM10.7273 2.58333L10.1137 1.96967C9.97301 1.82902 9.78225 1.75 9.58333 1.75H4.16667C3.52573 1.75 2.91104 2.00461 2.45783 2.45783C2.00461 2.91104 1.75 3.52573 1.75 4.16667V17.5C1.75 17.9142 2.08579 18.25 2.5 18.25C2.91421 18.25 3.25 17.9142 3.25 17.5V14.1667C3.25 13.9236 3.34658 13.6904 3.51849 13.5185C3.69039 13.3466 3.92355 13.25 4.16667 13.25H9.27267L9.88634 13.8637C10.027 14.0043 10.2178 14.0833 10.4167 14.0833H17.5C17.7599 14.0833 18.0013 13.9487 18.138 13.7276C18.2746 13.5065 18.2871 13.2304 18.1708 12.9979L15.8385 8.33333L18.1708 3.66874C18.2871 3.43625 18.2746 3.16015 18.138 2.93904C18.0013 2.71792 17.7599 2.58333 17.5 2.58333H10.7273Z" fill="CurrentColor"/>
</svg>
