<svg width="24" height="24" viewBox="0 0 24 24" fill="currentColor" xmlns="http://www.w3.org/2000/svg">
<path d="M6.63 3.2308C8.76 4.3508 9.81 4.2208 12.03 3.1008L12.06 3.0708C14.86 1.6708 16.58 1.5008 19.49 3.1508C19.6445 3.23762 19.7731 3.36393 19.8627 3.5168C19.9523 3.66967 19.9997 3.8436 20 4.0208V13.2508C20.0007 13.4267 19.955 13.5996 19.8675 13.7522C19.78 13.9048 19.6539 14.0316 19.5017 14.1198C19.3496 14.208 19.1769 14.2546 19.001 14.2548C18.8251 14.2549 18.6523 14.2087 18.5 14.1208C15.81 12.6008 14.37 12.6908 11.88 13.9008C11.5504 14.0584 11.2204 14.2151 10.89 14.3708C9.49 14.9908 8.29 15.1808 7 14.8008V20.0008C7 20.266 6.89464 20.5204 6.70711 20.7079C6.51957 20.8954 6.26522 21.0008 6 21.0008C5.73478 21.0008 5.48043 20.8954 5.29289 20.7079C5.10536 20.5204 5 20.266 5 20.0008V4.0008C5.00124 3.81241 5.05567 3.62821 5.15701 3.4694C5.25836 3.3106 5.40251 3.18365 5.57285 3.10318C5.74319 3.02272 5.93279 2.992 6.11982 3.01458C6.30685 3.03716 6.4837 3.11211 6.63 3.2308ZM7 12.6608C8.05 13.1608 8.87 13.0808 10.08 12.5408C10.3943 12.4034 10.7044 12.2566 11.01 12.1008C13.57 10.8608 15.47 10.5708 18 11.6408V4.6208C16.1 3.6408 15.04 3.8108 12.97 4.8608L12.93 4.8808C10.63 6.0408 9.08 6.3808 7 5.5908V12.6608Z" fill="currentColor"/>
</svg>
