<svg width="20" height="20" viewBox="0 0 20.01 20.01" fill="none" xmlns="http://www.w3.org/2000/svg">
<path fill-rule="evenodd" clip-rule="evenodd" d="M10 3.04314C6.15767 3.04314 3.04283 6.15798 3.04283 10.0003C3.04283 13.8427 6.15767 16.9575 10 16.9575C13.8424 16.9575 16.9572 13.8427 16.9572 10.0003C16.9572 6.15798 13.8424 3.04314 10 3.04314ZM1.66669 10.0003C1.66669 5.39795 5.39765 1.66699 10 1.66699C14.6024 1.66699 18.3334 5.39795 18.3334 10.0003C18.3334 14.6027 14.6024 18.3337 10 18.3337C5.39765 18.3337 1.66669 14.6027 1.66669 10.0003ZM6.63611 7.70675C6.63611 7.11562 7.11531 6.63641 7.70644 6.63641C8.29757 6.63641 8.77678 7.11562 8.77678 7.70675C8.77678 8.29788 8.29757 8.77708 7.70644 8.77708C7.11531 8.77708 6.63611 8.29788 6.63611 7.70675ZM11.2233 7.70675C11.2233 7.11562 11.7025 6.63641 12.2936 6.63641C12.8847 6.63641 13.3639 7.11562 13.3639 7.70675C13.3639 8.29788 12.8847 8.77708 12.2936 8.77708C11.7025 8.77708 11.2233 8.29788 11.2233 7.70675Z" fill="CurrentColor"/>
<path fill-rule="evenodd" clip-rule="evenodd" d="M6.54632 11.2874C6.8875 11.0894 7.32462 11.2055 7.52266 11.5466C7.77452 11.9805 8.13593 12.3407 8.57072 12.5911C9.00551 12.8414 9.49842 12.9732 10.0001 12.9732C10.5019 12.9732 10.9948 12.8414 11.4296 12.5911C11.8643 12.3407 12.2258 11.9805 12.4776 11.5466C12.6756 11.2055 13.1128 11.0894 13.4539 11.2874C13.7951 11.4855 13.9112 11.9226 13.7131 12.2638C13.3357 12.9141 12.794 13.4539 12.1424 13.8291C11.4908 14.2043 10.7521 14.4018 10.0001 14.4018C9.24822 14.4018 8.50948 14.2043 7.85787 13.8291C7.20625 13.4539 6.6646 12.9141 6.28714 12.2638C6.0891 11.9226 6.20514 11.4855 6.54632 11.2874Z" fill="CurrentColor"/>
</svg>
