<svg width="20" height="20" viewBox="0 0 20 20" fill="currentColor" xmlns="http://www.w3.org/2000/svg">
<path d="M6.43787 12.2968C6.8235 11.9883 7.38506 12.0485 7.69683 12.4299C7.69864 12.432 7.70343 12.4375 7.7112 12.446C7.7281 12.4645 7.75879 12.4968 7.80315 12.5383C7.89222 12.6218 8.03384 12.7406 8.2271 12.8614C8.61005 13.1008 9.19701 13.3496 10.0001 13.3496C10.8032 13.3496 11.3901 13.1008 11.7731 12.8614C11.9664 12.7406 12.108 12.6218 12.1971 12.5383C12.2414 12.4968 12.2721 12.4645 12.289 12.446L12.3009 12.4327L12.3034 12.4299C12.6151 12.0485 13.1767 11.9883 13.5623 12.2968C13.9505 12.6073 14.0134 13.1737 13.7029 13.5618L13.0001 12.9996C13.7029 13.5618 13.7032 13.5615 13.7029 13.5618L13.7018 13.5632L13.7005 13.5648L13.6978 13.5681L13.6911 13.5763L13.673 13.5979C13.6588 13.6145 13.6403 13.6357 13.6175 13.6606C13.5719 13.7105 13.5088 13.7759 13.4281 13.8515C13.2672 14.0024 13.0338 14.1961 12.7271 14.3878C12.1101 14.7735 11.197 15.1496 10.0001 15.1496C8.80319 15.1496 7.89015 14.7735 7.2731 14.3878C6.96636 14.1961 6.73298 14.0024 6.57205 13.8515C6.49141 13.7759 6.42835 13.7105 6.38275 13.6606C6.35993 13.6357 6.34142 13.6145 6.3272 13.5979L6.30907 13.5763L6.3024 13.5681L6.29966 13.5648L6.29844 13.5632C6.29816 13.5629 6.29732 13.5618 7.0001 12.9996L6.29732 13.5618C5.98681 13.1737 6.04974 12.6073 6.43787 12.2968Z" fill="currentColor"/>
<path d="M8.25009 8.2496C8.25009 8.93996 7.69045 9.4996 7.00009 9.4996C6.30974 9.4996 5.75009 8.93996 5.75009 8.2496C5.75009 7.55925 6.30974 6.9996 7.00009 6.9996C7.69045 6.9996 8.25009 7.55925 8.25009 8.2496Z" fill="currentColor"/>
<path d="M13.0001 9.4996C13.6904 9.4996 14.2501 8.93996 14.2501 8.2496C14.2501 7.55925 13.6904 6.9996 13.0001 6.9996C12.3097 6.9996 11.7501 7.55925 11.7501 8.2496C11.7501 8.93996 12.3097 9.4996 13.0001 9.4996Z" fill="currentColor"/>
<path fill-rule="evenodd" clip-rule="evenodd" d="M10.0001 0.0996094C4.53248 0.0996094 0.100098 4.53199 0.100098 9.99961C0.100098 15.4672 4.53248 19.8996 10.0001 19.8996C15.4677 19.8996 19.9001 15.4672 19.9001 9.99961C19.9001 4.53199 15.4677 0.0996094 10.0001 0.0996094ZM1.9001 9.99961C1.9001 5.5261 5.52659 1.89961 10.0001 1.89961C14.4736 1.89961 18.1001 5.5261 18.1001 9.99961C18.1001 14.4731 14.4736 18.0996 10.0001 18.0996C5.52659 18.0996 1.9001 14.4731 1.9001 9.99961Z" fill="currentColor"/>
</svg>
