<svg width="20" height="20" viewBox="0 0 20.01 20.01" fill="none" xmlns="http://www.w3.org/2000/svg">
<path fill-rule="evenodd" clip-rule="evenodd" d="M13.7632 2.45833C14.7733 1.41507 16.4421 1.40157 17.4689 2.42836C18.4676 3.42701 18.4862 5.04033 17.5108 6.06173L15.3756 8.29763C15.2868 8.39069 15.2398 8.44027 15.2071 8.47864C15.1973 8.49014 15.1914 8.49765 15.1882 8.50186C15.186 8.5073 15.1845 8.51297 15.1836 8.51876C15.1841 8.524 15.1854 8.53346 15.1879 8.54835C15.1965 8.59805 15.2116 8.66466 15.2405 8.79005L16.5683 14.5436C16.572 14.56 16.576 14.5767 16.5799 14.5937C16.6241 14.7825 16.6763 15.0057 16.6588 15.233C16.6436 15.4301 16.5886 15.6221 16.4969 15.7973C16.3913 15.9993 16.2288 16.1609 16.0912 16.2976C16.0789 16.3099 16.0667 16.322 16.0548 16.3339L15.7492 16.6395C15.5341 16.8546 15.3404 17.0484 15.1695 17.1906C14.9939 17.3367 14.7628 17.4988 14.4643 17.5516C14.0689 17.6216 13.6621 17.5255 13.3396 17.2861C13.0963 17.1054 12.962 16.8571 12.8704 16.6479C12.7811 16.4443 12.6945 16.1843 12.5983 15.8958L11.3986 12.2965L9.61926 14.0759C9.5377 14.1574 9.49488 14.2005 9.4648 14.2339C9.45583 14.2438 9.4504 14.2503 9.44747 14.254C9.44516 14.2588 9.44336 14.264 9.44212 14.2692C9.44214 14.2739 9.44233 14.2823 9.44312 14.2957C9.44577 14.3406 9.45227 14.401 9.465 14.5156L9.60617 15.7861C9.60778 15.8006 9.60947 15.8154 9.61118 15.8305C9.63037 15.9991 9.65307 16.1986 9.62135 16.3975C9.5938 16.5702 9.53544 16.7366 9.44906 16.8887C9.3496 17.0638 9.20726 17.2053 9.08691 17.3251C9.07617 17.3358 9.06561 17.3463 9.05526 17.3566L8.9035 17.5084L8.88528 17.5266C8.71924 17.6927 8.56447 17.8475 8.42487 17.9646C8.27559 18.0899 8.08667 18.2226 7.84166 18.2865C7.50506 18.3742 7.14821 18.3389 6.83535 18.1868C6.60762 18.0762 6.4484 17.909 6.32658 17.7568C6.21266 17.6146 6.09123 17.4324 5.96098 17.237L4.74161 15.4079C4.71445 15.3672 4.70048 15.3463 4.68978 15.331C4.68663 15.3265 4.6846 15.3237 4.68348 15.3222C4.68178 15.3204 4.67999 15.3186 4.67812 15.3169C4.67661 15.3158 4.67381 15.3137 4.66932 15.3106C4.65405 15.2999 4.63318 15.2859 4.59243 15.2587L2.76334 14.0393C2.56793 13.9091 2.38576 13.7877 2.2435 13.6738C2.09138 13.552 1.92419 13.3927 1.81352 13.165C1.66149 12.8521 1.62616 12.4953 1.71388 12.1587C1.77773 11.9137 1.91045 11.7248 2.03573 11.5755C2.15289 11.4359 2.30771 11.2811 2.47379 11.115L2.49198 11.0968L2.64374 10.9451C2.65408 10.9347 2.66459 10.9242 2.67527 10.9134C2.79499 10.7931 2.93659 10.6507 3.11169 10.5513C3.26377 10.4649 3.43013 10.4065 3.60284 10.379C3.80171 10.3473 4.00121 10.37 4.16987 10.3892C4.18492 10.3909 4.19972 10.3926 4.21426 10.3942L5.48474 10.5353C5.59937 10.5481 5.65979 10.5546 5.70463 10.5572C5.718 10.558 5.72646 10.5582 5.73112 10.5582C5.73638 10.557 5.7415 10.5552 5.74638 10.5529C5.75001 10.5499 5.7565 10.5445 5.76645 10.5355C5.79981 10.5055 5.84292 10.4626 5.92448 10.3811L7.70383 8.60174L4.10461 7.402C3.81606 7.30584 3.55608 7.2192 3.35249 7.12998C3.14329 7.03831 2.89491 6.90403 2.71423 6.6607C2.47482 6.33828 2.37879 5.93147 2.44873 5.53602C2.50152 5.23758 2.66362 5.0064 2.80973 4.83084C2.95193 4.65999 3.14572 4.46623 3.3608 4.25118C3.36769 4.24429 3.3746 4.23738 3.38153 4.23045L3.66643 3.94555C3.67834 3.93364 3.69043 3.92148 3.70273 3.90911C3.83946 3.77156 4.00105 3.60901 4.20305 3.5034C4.37826 3.41179 4.57025 3.35673 4.76738 3.34155C4.99465 3.32405 5.21783 3.37625 5.40668 3.42042C5.42366 3.42439 5.44037 3.4283 5.45677 3.43209L11.1885 4.75478C11.3149 4.78396 11.3823 4.79925 11.4325 4.8079C11.4477 4.8105 11.4573 4.81176 11.4626 4.81234C11.4693 4.8113 11.4758 4.80938 11.4819 4.80664C11.4861 4.80325 11.4935 4.79696 11.5048 4.78656C11.5422 4.75197 11.5905 4.7025 11.6807 4.60928L13.7632 2.45833ZM16.4909 3.40639C16.0104 2.92594 15.2296 2.93226 14.7569 3.42041L12.6745 5.57136C12.6629 5.58326 12.6512 5.59542 12.6393 5.60778C12.5072 5.74505 12.3512 5.90716 12.1555 6.01503C11.9703 6.11711 11.7652 6.17774 11.5542 6.19274C11.3313 6.20859 11.1122 6.15736 10.9267 6.11398C10.91 6.11007 10.8936 6.10623 10.8774 6.1025L5.14576 4.77981C5.01708 4.75011 4.94859 4.73458 4.89749 4.72585C4.88217 4.72323 4.87242 4.72198 4.86702 4.7214C4.86113 4.72237 4.85538 4.72402 4.84987 4.72632C4.8456 4.72967 4.838 4.7359 4.82639 4.74624C4.78769 4.78072 4.73784 4.8302 4.64446 4.92358L4.35956 5.20848C4.11713 5.45091 3.96951 5.59951 3.87283 5.71566C3.83919 5.75608 3.82012 5.78305 3.81 5.79857C3.81069 5.8049 3.81216 5.81112 3.81437 5.81709C3.83036 5.82644 3.85949 5.84204 3.90765 5.86315C4.04606 5.9238 4.24456 5.9907 4.56981 6.09911L9.20278 7.64343C9.43016 7.71923 9.60209 7.90735 9.65715 8.14063C9.71222 8.3739 9.64258 8.61905 9.4731 8.78853L6.90251 11.3591C6.89217 11.3695 6.88166 11.38 6.87098 11.3908C6.75126 11.5111 6.60966 11.6535 6.43456 11.7529C6.28248 11.8393 6.11612 11.8977 5.94341 11.9252C5.74454 11.9569 5.54505 11.9342 5.37638 11.915C5.36134 11.9133 5.34653 11.9116 5.332 11.91L4.06151 11.7689C3.94688 11.7561 3.88646 11.7496 3.84162 11.747C3.82825 11.7462 3.81979 11.746 3.81513 11.746C3.80987 11.7472 3.80475 11.749 3.79987 11.7513C3.79624 11.7543 3.78975 11.7597 3.7798 11.7687C3.74644 11.7987 3.70333 11.8416 3.62177 11.9231L3.47 12.0749C3.27944 12.2654 3.16869 12.3771 3.0952 12.4646C3.07123 12.4932 3.05735 12.5123 3.04992 12.5233C3.04956 12.5307 3.0503 12.5382 3.05212 12.5455C3.06156 12.5548 3.07891 12.5708 3.10802 12.5941C3.19725 12.6655 3.32774 12.7533 3.55198 12.9028L5.35966 14.1079C5.36475 14.1113 5.36995 14.1147 5.37522 14.1183C5.43562 14.1584 5.50715 14.206 5.57425 14.2632C5.63274 14.3132 5.6872 14.3676 5.7371 14.4261C5.79437 14.4932 5.84194 14.5647 5.88211 14.6251C5.88561 14.6304 5.88906 14.6356 5.89246 14.6407L7.09757 16.4484C7.24707 16.6726 7.33481 16.8031 7.40625 16.8923C7.42956 16.9214 7.44555 16.9388 7.45486 16.9482C7.46212 16.95 7.46961 16.9508 7.47709 16.9504C7.48807 16.943 7.50715 16.9291 7.53572 16.9051C7.62327 16.8317 7.7349 16.7209 7.92547 16.5303L8.07723 16.3786C8.15879 16.297 8.20161 16.2539 8.23169 16.2205C8.24066 16.2106 8.24609 16.2041 8.24902 16.2005C8.25133 16.1956 8.25313 16.1905 8.25437 16.1852C8.25435 16.1806 8.25417 16.1721 8.25338 16.1587C8.25073 16.1139 8.24422 16.0535 8.23149 15.9388L8.09032 14.6684C8.08871 14.6538 8.08702 14.639 8.08531 14.624C8.06612 14.4553 8.04343 14.2558 8.07514 14.0569C8.10269 13.8842 8.16105 13.7179 8.24743 13.5658C8.34689 13.3907 8.48923 13.2491 8.60958 13.1294C8.62032 13.1187 8.63089 13.1082 8.64123 13.0978L11.2118 10.5272C11.3813 10.3578 11.6264 10.2881 11.8597 10.3432C12.093 10.3983 12.2811 10.5702 12.3569 10.7976L13.9012 15.4305C14.0097 15.7558 14.0765 15.9543 14.1372 16.0927C14.1583 16.1409 14.1739 16.17 14.1833 16.186C14.1892 16.1882 14.1955 16.1897 14.2018 16.1903C14.2173 16.1802 14.2443 16.1611 14.2847 16.1275C14.4008 16.0308 14.5494 15.8832 14.7919 15.6408L15.0768 15.3559C15.1702 15.2625 15.2196 15.2127 15.2541 15.174C15.2645 15.1623 15.2707 15.1547 15.274 15.1505C15.2763 15.145 15.278 15.1392 15.2789 15.1333C15.2784 15.1279 15.2771 15.1182 15.2745 15.1029C15.2658 15.0518 15.2502 14.9833 15.2205 14.8546L13.8928 9.10107C13.8891 9.0851 13.8853 9.06884 13.8815 9.05231C13.8384 8.86821 13.7875 8.65058 13.8031 8.42847C13.8166 8.23576 13.8682 8.04765 13.9549 7.87503C14.0549 7.67607 14.2097 7.51489 14.3407 7.37852C14.3524 7.36628 14.364 7.35424 14.3753 7.34239L16.5105 5.10649C16.9669 4.62857 16.9582 3.87368 16.4909 3.40639Z" fill="CurrentColor"/>
</svg>
