<svg width="24" height="24" viewBox="0 0 24 24" fill="currentColor" xmlns="http://www.w3.org/2000/svg">
<path fill-rule="evenodd" clip-rule="evenodd" d="M9.61048 3.59965L9.76074 3.59969H14.2392L14.3895 3.59965C15.5074 3.59919 16.2796 3.59887 16.9792 3.84017C17.5958 4.05283 18.1573 4.3999 18.6233 4.85625C19.1519 5.37406 19.497 6.06496 19.9966 7.06503L20.0637 7.19943L20.9038 8.87969H22.12C22.606 8.87969 23 9.27368 23 9.75969V10.0709C23 10.8918 22.4103 11.5327 21.68 11.678V15.0397H21.68V16.9757L21.68 16.9961L21.68 17.0392V18.8061L21.68 18.8252C21.6801 18.9186 21.6801 19.0348 21.6717 19.1378C21.6619 19.2583 21.6363 19.4359 21.5409 19.623C21.4186 19.8631 21.2234 20.0583 20.9833 20.1806C20.7962 20.2759 20.6186 20.3015 20.4982 20.3114C20.3951 20.3198 20.279 20.3197 20.1855 20.3197L20.1664 20.3197H19.6736L19.6545 20.3197C19.5611 20.3197 19.4449 20.3198 19.3419 20.3114C19.2214 20.3015 19.0438 20.2759 18.8567 20.1806C18.6166 20.0583 18.4214 19.8631 18.2991 19.623C18.2038 19.4359 18.1782 19.2583 18.1683 19.1378C18.1599 19.0348 18.16 18.9186 18.16 18.8252L18.16 18.8061V18.5597H5.84001V18.8061L5.84002 18.8252V18.8252C5.84006 18.9187 5.84011 19.0348 5.83169 19.1378C5.82185 19.2583 5.79626 19.4359 5.70094 19.623C5.5786 19.8631 5.3834 20.0583 5.1433 20.1806C4.95622 20.2759 4.77862 20.3015 4.65816 20.3114C4.55513 20.3198 4.43896 20.3197 4.34552 20.3197L4.32641 20.3197H3.83361L3.81451 20.3197C3.72106 20.3197 3.60489 20.3198 3.50186 20.3114C3.38141 20.3015 3.20381 20.2759 3.01672 20.1806C2.77663 20.0583 2.58142 19.8631 2.45909 19.623C2.36376 19.4359 2.33817 19.2583 2.32833 19.1378C2.31991 19.0348 2.31996 18.9186 2.32001 18.8252L2.32001 18.8061V17.1064L2.32001 17.0652L2.32001 17.0461V15.7297L2.31997 15.5994L2.31998 11.678C1.58965 11.5327 1 10.8918 1 10.0709V9.75969C1 9.27368 1.39399 8.87969 1.88 8.87969H3.09611L3.93623 7.19944L4.0034 7.06501L4.0034 7.06501C4.50292 6.06495 4.84801 5.37405 5.37669 4.85625C5.84263 4.3999 6.40419 4.05283 7.02074 3.84017C7.72031 3.59887 8.4926 3.59919 9.61048 3.59965ZM4.09504 16.363C4.08214 16.2051 4.08026 15.9995 4.08001 15.6813V14.1597H4.07998V11.5378C4.14278 11.5494 4.2203 11.5629 4.314 11.5777C4.59691 11.6223 5.02881 11.6796 5.65032 11.7361C6.8927 11.849 8.90005 11.9597 12 11.9597C15.0999 11.9597 17.1073 11.849 18.3497 11.7361C18.9712 11.6796 19.4031 11.6223 19.686 11.5777C19.7797 11.5629 19.8572 11.5494 19.92 11.5378V15.5677C19.92 15.9518 19.9193 16.187 19.9049 16.363C19.8982 16.445 19.8898 16.4946 19.8827 16.5247C19.8793 16.539 19.8765 16.5478 19.8748 16.5526C19.8732 16.5572 19.8722 16.5591 19.872 16.5594C19.8298 16.6422 19.7625 16.7095 19.6797 16.7517C19.6795 16.7519 19.6783 16.7525 19.6758 16.7534L19.6729 16.7545C19.6681 16.7562 19.6593 16.7591 19.645 16.7624C19.6149 16.7695 19.5653 16.7779 19.4833 16.7846C19.3073 16.799 19.0721 16.7997 18.688 16.7997H5.31198C4.92782 16.7997 4.69263 16.799 4.51666 16.7846C4.43469 16.7779 4.3851 16.7695 4.35498 16.7624C4.34065 16.7591 4.33184 16.7562 4.32707 16.7545C4.32249 16.7529 4.32057 16.7519 4.32022 16.7517C4.23743 16.7095 4.17012 16.6422 4.12793 16.5594C4.12775 16.5591 4.12678 16.5572 4.12514 16.5526C4.12344 16.5478 4.12061 16.539 4.11724 16.5247C4.11015 16.4946 4.10173 16.445 4.09504 16.363ZM19.4155 9.83856L18.4895 7.98653C17.8959 6.79933 17.6827 6.39862 17.3918 6.11363C17.1122 5.83981 16.7753 5.63158 16.4053 5.50398C16.0203 5.37117 15.5665 5.35969 14.2392 5.35969H9.76074C8.43342 5.35969 7.97966 5.37117 7.59463 5.50398C7.2247 5.63158 6.88776 5.83981 6.6082 6.11363C6.31722 6.39862 6.10402 6.79933 5.51043 7.98653L4.58441 9.83856C4.58577 9.83877 4.58713 9.83899 4.58849 9.8392C4.82808 9.87703 5.22117 9.9298 5.80967 9.9833C6.98729 10.0904 8.93994 10.1997 12 10.1997C15.0601 10.1997 17.0127 10.0904 18.1903 9.9833C18.7788 9.9298 19.1719 9.87703 19.4115 9.8392C19.4129 9.83899 19.4142 9.83878 19.4155 9.83856ZM18.2691 15.0329C18.7514 14.9726 19.0935 14.5328 19.0332 14.0505C18.9729 13.5683 18.5331 13.2262 18.0508 13.2865L16.2908 13.5065C15.8086 13.5668 15.4665 14.0066 15.5268 14.4888C15.5871 14.9711 16.0269 15.3132 16.5091 15.2529L18.2691 15.0329ZM4.96681 14.0505C4.90653 14.5328 5.24861 14.9726 5.73086 15.0329L7.49086 15.2529C7.97312 15.3132 8.41294 14.9711 8.47322 14.4888C8.5335 14.0066 8.19142 13.5668 7.70917 13.5065L5.94917 13.2865C5.46691 13.2262 5.02709 13.5683 4.96681 14.0505Z" fill="currentColor"/>
</svg>
