<svg width="18" height="18" viewBox="0 0 18 18" fill="none" xmlns="http://www.w3.org/2000/svg">
<path d="M11.2649 6.8024C11.5707 6.49662 12.0663 6.49662 12.3721 6.8024C12.6779 7.10818 12.6779 7.60383 12.3721 7.90961L8.77061 11.5111C8.46483 11.8169 7.96918 11.8169 7.66339 11.5111L5.62713 9.47561C5.32154 9.16995 5.32174 8.67419 5.62713 8.3684C5.93291 8.06262 6.42933 8.06262 6.73511 8.3684L8.217 9.85029L11.2649 6.8024Z" fill="#818C99"/>
<path fill-rule="evenodd" clip-rule="evenodd" d="M10.9873 1.875C11.7279 1.87499 12.3313 1.87477 12.821 1.91476C13.3263 1.95605 13.7793 2.04396 14.2011 2.25885C14.8641 2.59666 15.4033 3.13587 15.7411 3.79886C15.956 4.22069 16.0439 4.6737 16.0852 5.17905C16.1252 5.6687 16.125 6.2721 16.125 7.01268V10.9873C16.125 11.7279 16.1252 12.3313 16.0852 12.821C16.0439 13.3263 15.956 13.7793 15.7411 14.2011C15.4033 14.8641 14.8641 15.4033 14.2011 15.7411C13.7793 15.956 13.3263 16.0439 12.821 16.0852C12.3313 16.1252 11.7279 16.125 10.9873 16.125H7.01268C6.2721 16.125 5.6687 16.1252 5.17905 16.0852C4.6737 16.0439 4.22069 15.956 3.79886 15.7411C3.13587 15.4033 2.59666 14.8641 2.25885 14.2011C2.04396 13.7793 1.95605 13.3263 1.91476 12.821C1.87477 12.3313 1.87499 11.7279 1.875 10.9873V7.01268C1.87499 6.2721 1.87477 5.6687 1.91476 5.17905C1.95605 4.6737 2.04396 4.22069 2.25885 3.79886C2.59666 3.13587 3.13587 2.59666 3.79886 2.25885C4.22069 2.04396 4.6737 1.95605 5.17905 1.91476C5.6687 1.87477 6.2721 1.87499 7.01268 1.875H10.9873ZM7.0425 3.441C6.26214 3.441 5.72368 3.44128 5.30598 3.47541C4.8976 3.5088 4.67349 3.57064 4.50922 3.65434C4.14117 3.84196 3.84196 4.14117 3.65434 4.50922C3.57064 4.67349 3.5088 4.8976 3.47541 5.30598C3.44128 5.72368 3.441 6.26214 3.441 7.0425V10.9575C3.441 11.7379 3.44128 12.2763 3.47541 12.694C3.5088 13.1024 3.57064 13.3265 3.65434 13.4908C3.84196 13.8588 4.14117 14.158 4.50922 14.3457C4.67349 14.4294 4.8976 14.4912 5.30598 14.5246C5.72368 14.5587 6.26214 14.559 7.0425 14.559H10.9575C11.7379 14.559 12.2763 14.5587 12.694 14.5246C13.1024 14.4912 13.3265 14.4294 13.4908 14.3457C13.8588 14.158 14.158 13.8588 14.3457 13.4908C14.4294 13.3265 14.4912 13.1024 14.5246 12.694C14.5587 12.2763 14.559 11.7379 14.559 10.9575V7.0425C14.559 6.26214 14.5587 5.72368 14.5246 5.30598C14.4912 4.8976 14.4294 4.67349 14.3457 4.50922C14.158 4.14117 13.8588 3.84196 13.4908 3.65434C13.3265 3.57064 13.1024 3.5088 12.694 3.47541C12.2763 3.44128 11.7379 3.441 10.9575 3.441H7.0425Z" fill="#818C99"/>
</svg>
