<svg width="25" height="24" viewBox="0 0 25 24" fill="none" xmlns="http://www.w3.org/2000/svg">
<path d="M12.5 5C18.5 5 22.5 10.6 22.5 12C22.5 13.4 18.5 19 12.5 19C6.5 19 2.5 13.4 2.5 12C2.5 10.6 6.5 5 12.5 5ZM12.5 7C9.73858 7 7.5 9.23858 7.5 12C7.5 14.7614 9.73858 17 12.5 17C15.2614 17 17.5 14.7614 17.5 12C17.5 9.23858 15.2614 7 12.5 7ZM12.501 9.5C13.8817 9.5 15.001 10.6193 15.001 12C15.001 13.3807 13.8817 14.5 12.501 14.5C11.1202 14.5 10.001 13.3807 10.001 12C10.001 10.6193 11.1202 9.5 12.501 9.5Z" fill="CurrentColor"/>
</svg>
