<svg width="40" height="40" viewBox="0 0 40 40" fill="none" xmlns="http://www.w3.org/2000/svg" style="color: #5159F6;">
  <rect width="40" height="40" rx="8" fill="currentColor" fill-opacity="0.2"/>
  <path fill-rule="evenodd" clip-rule="evenodd" d="M18.0216 9.71436C15.9235 9.71436 14.9985 9.89917 14.0597 10.4013C13.2238 10.8483 12.5627 11.5094 12.1156 12.3453C11.6135 13.2842 11.4287 14.2091 11.4287 16.3072V23.6929C11.4287 25.791 11.6135 26.716 12.1156 27.6548C12.5627 28.4907 13.2238 29.1518 14.0597 29.5989C14.9985 30.101 15.9235 30.2858 18.0216 30.2858H21.9787C24.0768 30.2858 25.0018 30.101 25.9406 29.5989C26.7765 29.1518 27.4376 28.4907 27.8847 27.6548C28.3867 26.716 28.5716 25.791 28.5716 23.6929V18.5933C28.5716 17.9105 28.5478 17.6032 28.467 17.2526C28.3869 16.9053 28.2569 16.5915 28.068 16.2894C27.8772 15.9843 27.6768 15.7502 27.1939 15.2674L23.0186 11.092C22.5357 10.6092 22.3016 10.4087 21.9966 10.218C21.6944 10.029 21.3806 9.89901 21.0333 9.81896C20.7402 9.75141 20.4774 9.7237 20.0001 9.71642V9.71436H18.0216ZM18.0216 11.4286C16.0202 11.4286 15.4345 11.6101 14.8681 11.9129C14.331 12.2002 13.9146 12.6166 13.6273 13.1538C13.3244 13.7201 13.143 14.3058 13.143 16.3072V23.6929C13.143 25.6943 13.3244 26.28 13.6273 26.8464C13.9146 27.3835 14.331 27.7999 14.8681 28.0872C15.4345 28.3901 16.0202 28.5715 18.0216 28.5715H21.9787C23.9801 28.5715 24.5658 28.3901 25.1321 28.0872C25.6693 27.7999 26.0857 27.3835 26.373 26.8464C26.6759 26.28 26.8573 25.6943 26.8573 23.6929V18.5933C26.8573 18.4757 26.8566 18.3742 26.8552 18.2854L22.143 18.2858C20.9595 18.2858 20.0001 17.3264 20.0001 16.1429L20.0014 11.4307C19.955 11.43 19.905 11.4294 19.8511 11.4291L18.0216 11.4286ZM21.8064 12.3042L21.7144 12.2129V16.1429C21.7144 16.3533 21.866 16.5283 22.066 16.5646L22.143 16.5715L26.075 16.5733C26.0457 16.5436 26.0146 16.5125 25.9817 16.4795L21.8064 12.3042ZM15.7144 25.1429C15.7144 24.6695 16.0982 24.2858 16.5716 24.2858H20.0001C20.4735 24.2858 20.8573 24.6695 20.8573 25.1429C20.8573 25.6163 20.4735 26.0001 20.0001 26.0001H16.5716C16.0982 26.0001 15.7144 25.6163 15.7144 25.1429ZM16.5716 20.8572C16.0982 20.8572 15.7144 21.241 15.7144 21.7144C15.7144 22.1877 16.0982 22.5715 16.5716 22.5715H22.5716C23.045 22.5715 23.4287 22.1877 23.4287 21.7144C23.4287 21.241 23.045 20.8572 22.5716 20.8572H16.5716Z" fill="currentColor"/>
</svg>