<svg width="19" height="19" viewBox="0 0 19 19" fill="none" xmlns="http://www.w3.org/2000/svg">
<path d="M9.16699 0C14.2295 0.000176264 18.333 4.10449 18.333 9.16699C18.3328 14.2293 14.2293 18.3328 9.16699 18.333C4.10449 18.333 0.000176268 14.2295 0 9.16699C0 4.10438 4.10438 0 9.16699 0ZM13.957 5.9043C13.6316 5.57903 13.1037 5.57892 12.7783 5.9043L7.6377 11.043L5.55371 8.95898C5.22837 8.63429 4.70125 8.63418 4.37598 8.95898C4.05083 9.28438 4.05079 9.81232 4.37598 10.1377L7.04883 12.8115C7.37417 13.1369 7.90208 13.1367 8.22754 12.8115L13.957 7.08203C14.2821 6.75666 14.2821 6.22967 13.957 5.9043Z" fill="currentColor"/>
</svg>
