<svg width="20" height="20" viewBox="0 0 20.01 20.01" fill="none" xmlns="http://www.w3.org/2000/svg">
<path fill-rule="evenodd" clip-rule="evenodd" d="M3.43751 11.7812C3.43751 11.3153 3.81526 10.9375 4.28126 10.9375H8.21875C8.68474 10.9375 9.0625 11.3153 9.0625 11.7812V15.7188C9.0625 16.1847 8.68474 16.5625 8.21875 16.5625C7.75276 16.5625 7.375 16.1847 7.375 15.7188V13.8182L3.94037 17.2529C3.61087 17.5824 3.07663 17.5824 2.74713 17.2529C2.41762 16.9234 2.41762 16.3891 2.74713 16.0596L6.18176 12.625H4.28126C3.81526 12.625 3.43751 12.2472 3.43751 11.7812Z" fill="white"/>
<path fill-rule="evenodd" clip-rule="evenodd" d="M17.2529 2.74713C17.5824 3.07663 17.5824 3.61087 17.2529 3.94037L13.8182 7.375H15.717C16.183 7.375 16.5608 7.75276 16.5608 8.21875C16.5608 8.68474 16.183 9.0625 15.717 9.0625H11.7812C11.3153 9.0625 10.9375 8.68474 10.9375 8.21875V4.28126C10.9375 3.81526 11.3153 3.43751 11.7812 3.43751C12.2472 3.43751 12.625 3.81526 12.625 4.28126V6.18176L16.0596 2.74713C16.3891 2.41762 16.9234 2.41762 17.2529 2.74713Z" fill="white"/>
</svg>
