<svg width="20" height="20" viewBox="0 0 20.01 20.01" fill="none" xmlns="http://www.w3.org/2000/svg">
<path fill-rule="evenodd" clip-rule="evenodd" d="M11.875 3.34375C11.875 2.87776 12.2527 2.5 12.7187 2.5H16.6562C17.1222 2.5 17.5 2.87776 17.5 3.34375V7.28126C17.5 7.74725 17.1222 8.12501 16.6562 8.12501C16.1903 8.12501 15.8125 7.74725 15.8125 7.28126V5.38074L12.3779 8.81538C12.0484 9.14488 11.5141 9.14488 11.1846 8.81538C10.8551 8.48587 10.8551 7.95164 11.1846 7.62213L14.6193 4.1875H12.7187C12.2527 4.1875 11.875 3.80974 11.875 3.34375Z" fill="white"/>
<path fill-rule="evenodd" clip-rule="evenodd" d="M8.81538 11.1846C9.14488 11.5141 9.14488 12.0484 8.81538 12.3779L5.38074 15.8125H7.27954C7.74553 15.8125 8.12329 16.1903 8.12329 16.6562C8.12329 17.1222 7.74553 17.5 7.27954 17.5H3.34375C2.87776 17.5 2.5 17.1222 2.5 16.6562V12.7188C2.5 12.2528 2.87776 11.875 3.34375 11.875C3.80974 11.875 4.1875 12.2528 4.1875 12.7188V14.6193L7.62213 11.1846C7.95164 10.8551 8.48587 10.8551 8.81538 11.1846Z" fill="white"/>
</svg>
