<svg width="18" height="18" viewBox="0 0 18.01 18.01" fill="none" xmlns="http://www.w3.org/2000/svg">
<g id="italic">
<path id="Vector" fill-rule="evenodd" clip-rule="evenodd" d="M9.98368 3.19937H8.0002C7.55837 3.19937 7.2002 3.55755 7.2002 3.99937C7.2002 4.4412 7.55837 4.79937 8.0002 4.79937H9.02435L7.34435 13.1994H6.0002C5.55837 13.1994 5.2002 13.5575 5.2002 13.9994C5.2002 14.4412 5.55837 14.7994 6.0002 14.7994H7.98538C7.99585 14.7996 8.0063 14.7996 8.01671 14.7994H10.0002C10.442 14.7994 10.8002 14.4412 10.8002 13.9994C10.8002 13.5575 10.442 13.1994 10.0002 13.1994H8.97604L10.656 4.79937H12.0002C12.442 4.79937 12.8002 4.4412 12.8002 3.99937C12.8002 3.55755 12.442 3.19937 12.0002 3.19937H10.015C10.0045 3.19917 9.99409 3.19917 9.98368 3.19937Z" fill="CurrentColor"/>
</g>
</svg>
