<svg width="20" height="21" viewBox="0 0 20 21" fill="none" xmlns="http://www.w3.org/2000/svg">
<path d="M9.45748 9.68047H2.42631C1.95668 9.68047 1.56663 10.0424 1.56663 10.5002C1.56663 10.9579 1.95668 11.3199 2.42631 11.3199H9.45748L7.8978 12.7975C7.55949 13.118 7.55949 13.6399 7.8978 13.9604C8.23304 14.278 8.77445 14.278 9.1097 13.9604L12.1478 11.0823L12.1479 11.0822L12.154 11.0763L12.154 11.0763C12.3061 10.9295 12.4014 10.7271 12.4021 10.5026L12.4021 10.5002L12.4021 10.4977C12.4018 10.3868 12.3783 10.281 12.3361 10.1846M9.45748 9.68047L12.3361 10.1846M9.45748 9.68047L7.8978 8.20287C7.55949 7.88237 7.55949 7.36038 7.8978 7.03988C8.23304 6.72228 8.77445 6.72228 9.1097 7.03988L12.1478 9.91807M9.45748 9.68047L12.1478 9.91807M12.3361 10.1846C12.3361 10.1846 12.3361 10.1846 12.3361 10.1847L12.2447 10.2246L12.3361 10.1846ZM12.1478 9.91807L12.0791 9.99075L12.1479 9.91815L12.1478 9.91807ZM10.7828 18.5168H12.7905H12.7945C13.6145 18.5168 14.2817 18.5168 14.8234 18.4749C15.3828 18.4316 15.8832 18.3396 16.3491 18.1147C17.0822 17.7608 17.6792 17.1957 18.0537 16.4994C18.292 16.0562 18.3895 15.5803 18.4353 15.0491C18.4796 14.5353 18.4796 13.9026 18.4796 13.1263V13.1219V7.87845V7.87407C18.4796 7.09767 18.4796 6.46503 18.4353 5.95127C18.3895 5.42007 18.292 4.94411 18.0537 4.50094C17.6792 3.80463 17.0822 3.2395 16.3491 2.88565C15.8832 2.66076 15.3828 2.56871 14.8234 2.52541C14.2818 2.48348 13.6146 2.48349 12.7945 2.4835L12.7906 2.4835H12.7905H10.7828C10.3132 2.4835 9.92311 2.84546 9.92311 3.30319C9.92311 3.76092 10.3132 4.12289 10.7828 4.12289H12.758C13.623 4.12289 14.2204 4.12352 14.6842 4.15942C15.1382 4.19456 15.3883 4.25941 15.5724 4.34827C15.9829 4.54642 16.3156 4.86209 16.5238 5.24914C16.6166 5.42175 16.6847 5.65673 16.7217 6.08567C16.7596 6.52431 16.7602 7.08947 16.7602 7.90925V13.0911C16.7602 13.9109 16.7596 14.476 16.7217 14.9147C16.6847 15.3436 16.6166 15.5786 16.5238 15.7512C16.3156 16.1382 15.9829 16.4539 15.5724 16.6521C15.3883 16.7409 15.1382 16.8058 14.6842 16.8409C14.2204 16.8768 13.623 16.8774 12.758 16.8774H10.7828C10.3132 16.8774 9.92311 17.2394 9.92311 17.6971C9.92311 18.1549 10.3132 18.5168 10.7828 18.5168Z" fill="CurrentColor" stroke="CurrentColor" stroke-width="0.2"/>
</svg>
