<svg width="42" height="42" viewBox="0 0 42 42" fill="none" xmlns="http://www.w3.org/2000/svg">
<rect width="42" height="42" rx="6" fill="CurrentColor"/>
<rect x="0.25" y="0.25" width="41.5" height="41.5" rx="5.75" stroke="black" stroke-opacity="0.1" stroke-width="0.5"/>
<g clip-path="url(#clip0)">
<path d="M20.3136 20.973C20.5607 21.4573 20.3684 22.0501 19.8842 22.2972C19.3999 22.5443 18.807 22.352 18.5599 21.8678C17.7905 20.3598 18.0684 18.5098 19.284 17.2942L21.3722 15.206C22.9099 13.6683 25.403 13.6683 26.9407 15.206C28.4784 16.7437 28.4784 19.2368 26.9407 20.7745C26.5562 21.1589 25.933 21.1589 25.5486 20.7745C25.1641 20.39 25.1641 19.7668 25.5486 19.3824C26.3174 18.6135 26.3174 17.367 25.5486 16.5981C24.7797 15.8293 23.5332 15.8293 22.7643 16.5981L20.6761 18.6863C20.0683 19.2942 19.9292 20.2197 20.3136 20.973ZM21.836 21.1707C21.5889 20.6865 21.7812 20.0936 22.2654 19.8465C22.7497 19.5994 23.3426 19.7917 23.5897 20.276C24.3591 21.784 24.0812 23.6339 22.8656 24.8496L20.7774 26.9377C19.2397 28.4754 16.7466 28.4754 15.2089 26.9377C13.6712 25.4001 13.6712 22.907 15.2089 21.3693C15.5934 20.9849 16.2166 20.9849 16.601 21.3693C16.9855 21.7537 16.9855 22.377 16.601 22.7614C15.8322 23.5302 15.8322 24.7768 16.601 25.5456C17.3699 26.3145 18.6164 26.3145 19.3853 25.5456L21.4735 23.4574C22.0813 22.8496 22.2204 21.924 21.836 21.1707Z" fill="#95A6FF"/>
</g>
<defs>
<clipPath id="clip0">
<rect width="15.75" height="15.75" fill="white" transform="translate(13.125 13.125)"/>
</clipPath>
</defs>
</svg>
