<svg width="20" height="20" viewBox="0 0 20 20" fill="none" xmlns="http://www.w3.org/2000/svg">
<path fill-rule="evenodd" clip-rule="evenodd" d="M17.7784 8.51594C17.1421 8.95254 16.3717 9.20801 15.5417 9.20801C13.3556 9.20801 11.5834 7.4358 11.5834 5.24967C11.5834 4.19857 11.9931 3.24316 12.6615 2.53441C11.8385 2.24208 10.9527 2.08301 10.0299 2.08301C5.67418 2.08301 2.14315 5.62742 2.14315 9.99967C2.14315 11.3588 2.48433 12.6379 3.0854 13.7553L2.11751 16.8735C1.94269 17.4367 2.46849 17.9659 3.03004 17.792L6.073 16.8493C7.23609 17.5278 8.58781 17.9163 10.0299 17.9163C14.3857 17.9163 17.9167 14.372 17.9167 9.99967C17.9167 9.49254 17.8692 8.99656 17.7784 8.51594Z" fill="CurrentColor"/>
<circle cx="15.5417" cy="5.25" r="1.875" fill="CurrentColor" stroke="CurrentColor"/>
</svg>
