<svg width="20" height="20" viewBox="0 0 20.01 20.01" fill="none" xmlns="http://www.w3.org/2000/svg">
<path fill-rule="evenodd" clip-rule="evenodd" d="M6.46865 1.75H13.5315C14.2049 1.74999 14.7556 1.74998 15.2031 1.78655C15.6664 1.8244 16.0848 1.90514 16.4755 2.10423C17.0871 2.41582 17.5842 2.913 17.8958 3.52453C18.0949 3.91527 18.1757 4.33367 18.2135 4.79693C18.2501 5.2445 18.2501 5.7952 18.2501 6.46858V11.0314C18.2501 11.7048 18.2501 12.2555 18.2135 12.7031C18.1757 13.1663 18.0949 13.5847 17.8958 13.9755C17.5842 14.587 17.0871 15.0842 16.4755 15.3958C16.0848 15.5949 15.6664 15.6756 15.2031 15.7134C14.7556 15.75 14.2049 15.75 13.5315 15.75H11.4032C10.8531 15.75 10.6821 15.7535 10.5252 15.7857C10.3707 15.8174 10.2213 15.8699 10.0808 15.9416C9.93825 16.0145 9.80248 16.1185 9.37293 16.4622L7.36338 18.0698C7.20898 18.1934 7.05572 18.316 6.92183 18.4045C6.79327 18.4895 6.55636 18.6327 6.25132 18.6331C5.89602 18.6335 5.55992 18.4719 5.33826 18.1942C5.14797 17.9558 5.11179 17.6814 5.09785 17.5279C5.08333 17.368 5.08336 17.1718 5.08339 16.974L5.0834 15.7455C4.72523 15.7367 4.4282 15.7114 4.1589 15.6393C3.03735 15.3387 2.16132 14.4627 1.8608 13.3412C1.74951 12.9258 1.74973 12.4445 1.75003 11.7746C1.75005 11.7392 1.75006 11.7032 1.75006 11.6667L1.75006 6.46858C1.75005 5.7952 1.75005 5.2445 1.78661 4.79693C1.82446 4.33367 1.9052 3.91527 2.10429 3.52453C2.41588 2.913 2.91307 2.41582 3.52459 2.10423C3.91533 1.90514 4.33373 1.8244 4.79699 1.78655C5.24456 1.74998 5.79527 1.74999 6.46865 1.75ZM4.91914 3.28157C4.54864 3.31184 4.34962 3.36735 4.20558 3.44074C3.8763 3.60852 3.60858 3.87623 3.4408 4.20552C3.36741 4.34956 3.3119 4.54858 3.28163 4.91908C3.25065 5.29833 3.25006 5.78756 3.25006 6.5V11.6667C3.25006 12.4899 3.25651 12.7544 3.30969 12.9529C3.47151 13.5568 3.94322 14.0286 4.54713 14.1904C4.74563 14.2436 5.01013 14.25 5.8334 14.25C6.24761 14.25 6.5834 14.5858 6.5834 15V16.7729L8.43589 15.2909C8.4537 15.2766 8.47127 15.2626 8.48862 15.2487C8.84377 14.9644 9.10324 14.7566 9.39842 14.6058C9.65919 14.4726 9.93677 14.3752 10.2236 14.3164C10.5483 14.2497 10.8807 14.2498 11.3356 14.25C11.3579 14.25 11.3804 14.25 11.4032 14.25H13.5001C14.2125 14.25 14.7017 14.2494 15.081 14.2184C15.4515 14.1882 15.6505 14.1327 15.7945 14.0593C16.1238 13.8915 16.3915 13.6238 16.5593 13.2945C16.6327 13.1504 16.6882 12.9514 16.7185 12.5809C16.7495 12.2017 16.7501 11.7124 16.7501 11V6.5C16.7501 5.78756 16.7495 5.29833 16.7185 4.91908C16.6882 4.54858 16.6327 4.34956 16.5593 4.20552C16.3915 3.87623 16.1238 3.60852 15.7945 3.44074C15.6505 3.36735 15.4515 3.31184 15.081 3.28157C14.7017 3.25058 14.2125 3.25 13.5001 3.25H6.50006C5.78762 3.25 5.2984 3.25058 4.91914 3.28157ZM5.0834 7.08333C5.0834 6.66912 5.41918 6.33333 5.8334 6.33333H10.0001C10.4143 6.33333 10.7501 6.66912 10.7501 7.08333C10.7501 7.49755 10.4143 7.83333 10.0001 7.83333H5.8334C5.41918 7.83333 5.0834 7.49755 5.0834 7.08333ZM5.0834 10C5.0834 9.58579 5.41918 9.25 5.8334 9.25H12.5001C12.9143 9.25 13.2501 9.58579 13.2501 10C13.2501 10.4142 12.9143 10.75 12.5001 10.75H5.8334C5.41918 10.75 5.0834 10.4142 5.0834 10Z" fill="currentColor"/>
</svg>
