<svg width="20" height="20" viewBox="0 0 20.01 20.01" fill="none" xmlns="http://www.w3.org/2000/svg">
<path d="M18.2501 7.18879V11.0317C18.2501 11.705 18.2501 12.2557 18.2135 12.7033C18.1757 13.1666 18.0949 13.585 17.8958 13.9757C17.5842 14.5872 17.0871 15.0844 16.4755 15.396C16.0848 15.5951 15.6664 15.6758 15.2031 15.7137C14.7556 15.7503 14.2049 15.7503 13.5316 15.7502H11.4032C10.8531 15.7502 10.6821 15.7538 10.5252 15.786C10.3707 15.8177 10.2213 15.8701 10.0808 15.9418C9.93825 16.0147 9.80248 16.1188 9.37293 16.4624L7.36338 18.0701C7.20898 18.1936 7.05572 18.3163 6.92183 18.4048C6.79327 18.4898 6.55636 18.633 6.25132 18.6333C5.89602 18.6337 5.55992 18.4722 5.33826 18.1945C5.14797 17.9561 5.11179 17.6816 5.09785 17.5281C5.08333 17.3683 5.08336 17.172 5.08339 16.9742L5.0834 15.7457C4.72523 15.7369 4.4282 15.7117 4.1589 15.6395C3.03735 15.339 2.16132 14.463 1.8608 13.3414C1.74951 12.9261 1.74973 12.4447 1.75003 11.7748L1.75006 6.46883C1.75005 5.79545 1.75005 5.24474 1.78661 4.79718C1.82446 4.33391 1.9052 3.91552 2.10429 3.52478C2.41588 2.91325 2.91307 2.41606 3.52459 2.10447C3.91533 1.90538 4.33373 1.82465 4.79699 1.7868C5.24455 1.75023 5.79526 1.75024 6.46863 1.75024H12.8114C12.6207 2.21415 12.5113 2.72006 12.5009 3.25025H6.50006C5.78762 3.25025 5.2984 3.25083 4.91914 3.28181C4.54864 3.31209 4.34962 3.36759 4.20558 3.44098C3.8763 3.60876 3.60858 3.87648 3.4408 4.20576C3.36741 4.3498 3.3119 4.54882 3.28163 4.91932C3.25065 5.29858 3.25006 5.7878 3.25006 6.50024V11.6669C3.25006 12.4902 3.25651 12.7547 3.30969 12.9532C3.47151 13.5571 3.94322 14.0288 4.54713 14.1906C4.74563 14.2438 5.01013 14.2502 5.8334 14.2502C6.24761 14.2502 6.5834 14.586 6.5834 15.0002V16.7731L8.48862 15.2489C8.84376 14.9646 9.10325 14.7569 9.39842 14.6061C9.65919 14.4728 9.93677 14.3755 10.2236 14.3166C10.5483 14.25 10.8807 14.2501 11.3356 14.2502L13.5001 14.2502C14.2125 14.2502 14.7017 14.2497 15.081 14.2187C15.4515 14.1884 15.6505 14.1329 15.7945 14.0595C16.1238 13.8917 16.3915 13.624 16.5593 13.2947C16.6327 13.1507 16.6882 12.9517 16.7185 12.5812C16.7495 12.2019 16.7501 11.7127 16.7501 11.0002V7.49935C17.2802 7.48894 17.7862 7.37951 18.2501 7.18879Z" fill="currentColor"/>
<path d="M5.8334 6.33358C5.41918 6.33358 5.0834 6.66936 5.0834 7.08358C5.0834 7.49779 5.41918 7.83358 5.8334 7.83358H10.0001C10.4143 7.83358 10.7501 7.49779 10.7501 7.08358C10.7501 6.66936 10.4143 6.33358 10.0001 6.33358H5.8334Z" fill="currentColor"/>
<path d="M5.8334 9.25025C5.41918 9.25025 5.0834 9.58603 5.0834 10.0002C5.0834 10.4145 5.41918 10.7502 5.8334 10.7502H12.5001C12.9143 10.7502 13.2501 10.4145 13.2501 10.0002C13.2501 9.58603 12.9143 9.25025 12.5001 9.25025H5.8334Z" fill="currentColor"/>
<path d="M19.1667 3.3335C19.1667 4.71421 18.0474 5.8335 16.6667 5.8335C15.286 5.8335 14.1667 4.71421 14.1667 3.3335C14.1667 1.95278 15.286 0.833496 16.6667 0.833496C18.0474 0.833496 19.1667 1.95278 19.1667 3.3335Z" fill="currentColor"/>
</svg>
