<svg width="48" height="48" viewBox="0 0 48.01 48.01" fill="none" xmlns="http://www.w3.org/2000/svg">
<g id="message">
<path id="Icon" fill-rule="evenodd" clip-rule="evenodd" d="M15.5245 4.2002H32.4753C34.0914 4.20018 35.4131 4.20016 36.4872 4.28792C37.5991 4.37876 38.6032 4.57252 39.541 5.05035C41.0086 5.79816 42.2019 6.99141 42.9497 8.45907C43.4275 9.39685 43.6213 10.401 43.7121 11.5128C43.7999 12.587 43.7999 13.9087 43.7999 15.5248V26.4756C43.7999 28.0917 43.7999 29.4134 43.7121 30.4876C43.6213 31.5994 43.4275 32.6035 42.9497 33.5413C42.2019 35.009 41.0086 36.2022 39.541 36.95C38.6032 37.4279 37.5991 37.6216 36.4872 37.7125C35.4131 37.8002 34.0914 37.8002 32.4753 37.8002H27.3674C26.0471 37.8002 25.6366 37.8087 25.2602 37.886C24.8895 37.962 24.5307 38.0879 24.1937 38.26C23.8515 38.4349 23.5257 38.6847 22.4947 39.5094L17.6718 43.3678C17.3013 43.6643 16.9334 43.9587 16.6121 44.1711C16.3035 44.3751 15.735 44.7188 15.0029 44.7196C14.1502 44.7205 13.3435 44.3328 12.8115 43.6664C12.3548 43.0942 12.268 42.4355 12.2345 42.0672C12.1997 41.6835 12.1998 41.2124 12.1999 40.7378L12.1999 37.7893C11.3403 37.7683 10.6274 37.7076 9.98107 37.5344C7.28935 36.8132 5.18688 34.7107 4.46564 32.019C4.19853 31.0221 4.19905 29.8669 4.19978 28.2592C4.19982 28.1742 4.19986 28.0878 4.19986 28.0002L4.19986 15.5248C4.19984 13.9087 4.19982 12.587 4.28758 11.5128C4.37842 10.401 4.57219 9.39685 5.05001 8.45907C5.79782 6.99141 6.99107 5.79816 8.45873 5.05035C9.39651 4.57252 10.4007 4.37876 11.5125 4.28792C12.5866 4.20016 13.9083 4.20018 15.5245 4.2002ZM11.8056 7.87596C10.9164 7.94861 10.4388 8.08183 10.0931 8.25797C9.30282 8.66064 8.6603 9.30316 8.25763 10.0934C8.08149 10.4391 7.94828 10.9168 7.87563 11.806C7.80126 12.7162 7.79986 13.8903 7.79986 15.6002V28.0002C7.79986 29.976 7.81532 30.6108 7.94297 31.0872C8.33133 32.5366 9.46343 33.6687 10.9128 34.0571C11.3892 34.1847 12.024 34.2002 13.9999 34.2002C14.994 34.2002 15.7999 35.0061 15.7999 36.0002V40.2551L20.2458 36.6983C20.2886 36.6641 20.3308 36.6303 20.3724 36.597C21.2248 35.9146 21.8475 35.4161 22.5559 35.0542C23.1818 34.7344 23.848 34.5007 24.5364 34.3595C25.3157 34.1995 26.1134 34.1998 27.2052 34.2002C27.2586 34.2002 27.3126 34.2002 27.3674 34.2002H32.3999C34.1097 34.2002 35.2839 34.1988 36.1941 34.1244C37.0833 34.0518 37.5609 33.9186 37.9066 33.7424C38.6969 33.3398 39.3394 32.6972 39.7421 31.907C39.9182 31.5613 40.0514 31.0836 40.1241 30.1944C40.1985 29.2842 40.1999 28.1101 40.1999 26.4002V15.6002C40.1999 13.8903 40.1985 12.7162 40.1241 11.806C40.0514 10.9168 39.9182 10.4391 39.7421 10.0934C39.3394 9.30316 38.6969 8.66064 37.9066 8.25797C37.5609 8.08183 37.0833 7.94861 36.1941 7.87596C35.2839 7.8016 34.1097 7.8002 32.3999 7.8002H15.5999C13.89 7.8002 12.7159 7.8016 11.8056 7.87596ZM12.1999 17.0002C12.1999 16.0061 13.0057 15.2002 13.9999 15.2002H23.9999C24.994 15.2002 25.7999 16.0061 25.7999 17.0002C25.7999 17.9943 24.994 18.8002 23.9999 18.8002H13.9999C13.0057 18.8002 12.1999 17.9943 12.1999 17.0002ZM12.1999 24.0002C12.1999 23.0061 13.0057 22.2002 13.9999 22.2002H29.9999C30.994 22.2002 31.7999 23.0061 31.7999 24.0002C31.7999 24.9943 30.994 25.8002 29.9999 25.8002H13.9999C13.0057 25.8002 12.1999 24.9943 12.1999 24.0002Z" fill="CurrentColor"/>
</g>
</svg>
