<svg width="18" height="18" viewBox="0 0 18.01 18.01" fill="none" xmlns="http://www.w3.org/2000/svg">
<g id="Mono">
<path id="M" d="M4.97945 14.7534C4.81507 14.9178 4.61233 15 4.37123 15C4.13014 15 3.92192 14.9178 3.74658 14.7534C3.58219 14.5781 3.5 14.3699 3.5 14.1288V3.87123C3.5 3.63014 3.58219 3.4274 3.74658 3.26301C3.92192 3.08767 4.13014 3 4.37123 3C4.95205 3 5.37397 3.25753 5.63699 3.7726L8.87534 10.0521C8.87534 10.063 8.88082 10.0685 8.89178 10.0685C8.90274 10.0685 8.90822 10.063 8.90822 10.0521L12.1301 3.80548C12.4041 3.26849 12.8425 3 13.4452 3C13.6973 3 13.911 3.08767 14.0863 3.26301C14.2616 3.43836 14.3493 3.65205 14.3493 3.90411V14.0959C14.3493 14.3479 14.2616 14.5616 14.0863 14.737C13.911 14.9123 13.6973 15 13.4452 15C13.1932 15 12.9795 14.9123 12.8041 14.737C12.6288 14.5616 12.5411 14.3479 12.5411 14.0959V6.13973C12.5411 6.12877 12.5356 6.12329 12.5247 6.12329C12.5137 6.12329 12.5082 6.12877 12.5082 6.13973L10.0753 10.9726C9.82329 11.4658 9.42877 11.7123 8.89178 11.7123C8.35479 11.7123 7.96027 11.4658 7.70822 10.9726L5.27534 6.13973C5.27534 6.12877 5.26986 6.12329 5.2589 6.12329C5.24795 6.12329 5.24247 6.12877 5.24247 6.13973V14.1288C5.24247 14.3699 5.15479 14.5781 4.97945 14.7534Z" fill="CurrentColor"/>
</g>
</svg>
