<svg width="4" height="14" viewBox="0 0 4 14" fill="none" xmlns="http://www.w3.org/2000/svg">
<path d="M0.532164 11.0117C0.88694 10.6569 1.2963 10.4795 1.76023 10.4795C2.22417 10.4795 2.63353 10.6569 2.9883 11.0117C3.34308 11.3665 3.52047 11.7758 3.52047 12.2398C3.52047 12.7037 3.34308 13.1131 2.9883 13.4678C2.63353 13.8226 2.22417 14 1.76023 14C1.2963 14 0.88694 13.8226 0.532164 13.4678C0.177388 13.1131 0 12.7037 0 12.2398C0 11.7758 0.177388 11.3665 0.532164 11.0117ZM0.532164 5.77193C0.88694 5.41715 1.2963 5.23977 1.76023 5.23977C2.22417 5.23977 2.63353 5.41715 2.9883 5.77193C3.34308 6.12671 3.52047 6.53606 3.52047 7C3.52047 7.46394 3.34308 7.87329 2.9883 8.22807C2.63353 8.58285 2.22417 8.76023 1.76023 8.76023C1.2963 8.76023 0.88694 8.58285 0.532164 8.22807C0.177388 7.87329 0 7.46394 0 7C0 6.53606 0.177388 6.12671 0.532164 5.77193ZM2.9883 2.9883C2.63353 3.34308 2.22417 3.52047 1.76023 3.52047C1.2963 3.52047 0.88694 3.34308 0.532164 2.9883C0.177388 2.63353 0 2.22417 0 1.76023C0 1.2963 0.177388 0.88694 0.532164 0.532164C0.88694 0.177388 1.2963 0 1.76023 0C2.22417 0 2.63353 0.177388 2.9883 0.532164C3.34308 0.88694 3.52047 1.2963 3.52047 1.76023C3.52047 2.22417 3.34308 2.63353 2.9883 2.9883Z" fill="#9B9DA8"/>
</svg>
