<svg width="16" height="16" viewBox="0 0 16 16" fill="none" xmlns="http://www.w3.org/2000/svg">
<path d="M9.25855 14.3008C9.13069 14.5212 8.94716 14.7042 8.72635 14.8313C8.50554 14.9585 8.25519 15.0255 8.00037 15.0255C7.74555 15.0255 7.4952 14.9585 7.27439 14.8313C7.05357 14.7042 6.87005 14.5212 6.74219 14.3008" stroke="CurrentColor" stroke-width="1.4" stroke-linecap="round" stroke-linejoin="round"/>
<path d="M12.8214 9.00746C12.4979 7.82303 12.3436 6.59876 12.3632 5.37109" stroke="CurrentColor" stroke-width="1.4" stroke-linecap="round" stroke-linejoin="round"/>
<path d="M3.82623 4.10547C3.69988 4.51537 3.63613 4.94199 3.63714 5.37092C3.63714 10.4618 1.45532 11.9164 1.45532 11.9164H11.6371" stroke="CurrentColor" stroke-width="1.4" stroke-linecap="round" stroke-linejoin="round"/>
<path d="M12.3647 5.37011C12.3659 4.57961 12.1523 3.80364 11.7467 3.12509C11.3412 2.44653 10.759 1.89088 10.0622 1.51749C9.36547 1.14409 8.58037 0.96698 7.79079 1.00507C7.00121 1.04316 6.2368 1.29502 5.57922 1.73375" stroke="CurrentColor" stroke-width="1.4" stroke-linecap="round" stroke-linejoin="round"/>
<path d="M1 1L15 15" stroke="CurrentColor" stroke-width="1.4" stroke-linecap="round" stroke-linejoin="round"/>
</svg>
