<svg width="20" height="20" viewBox="0 0 20.01 20.01" fill="none" xmlns="http://www.w3.org/2000/svg">
<path d="M10.2456 1.75C13.695 1.75 16.1698 4.56639 16.1698 8.22036V9.59461C16.1698 9.79109 16.3358 10.0515 16.7888 10.5188C16.8469 10.5788 16.9016 10.6344 17.021 10.7553C17.9499 11.6975 18.3175 12.2402 18.3175 13.1135C18.3175 13.4953 18.273 13.793 18.0875 14.1497C17.6956 14.9036 16.8648 15.3237 15.6227 15.3237L13.9803 15.3246C13.4397 17.3285 12.15 18.4167 10.242 18.4167C8.31368 18.4167 7.01689 17.3051 6.48673 15.2602L6.50322 15.3237H4.86136C3.58305 15.3237 2.74326 14.8922 2.3681 14.1119C2.20405 13.7706 2.1665 13.4937 2.1665 13.1135C2.1665 12.2402 2.53409 11.6975 3.46298 10.7553C3.58246 10.6344 3.63716 10.5788 3.69525 10.5188C4.14823 10.0515 4.31425 9.79109 4.31425 9.59461V8.22036C4.31425 4.56781 6.79507 1.75 10.2456 1.75ZM12.3605 15.3253H8.12351C8.51521 16.3963 9.19029 16.8703 10.242 16.8703C11.2937 16.8703 11.9688 16.3963 12.3605 15.3253ZM10.2456 3.29637C7.69605 3.29637 5.86062 5.38112 5.86062 8.22036V9.59461C5.86062 10.327 5.52605 10.8518 4.80566 11.5951C4.74271 11.66 4.6833 11.7204 4.56414 11.841C3.9225 12.4918 3.71288 12.8013 3.71288 13.1135C3.71288 13.2785 3.72452 13.3643 3.76178 13.4418C3.85396 13.6336 4.13375 13.7774 4.86136 13.7774H15.6227C16.3272 13.7774 16.6135 13.6326 16.7155 13.4365C16.758 13.3547 16.7711 13.2666 16.7711 13.1135C16.7711 12.8013 16.5615 12.4918 15.9199 11.841C15.8007 11.7204 15.7413 11.66 15.6784 11.5951C14.958 10.8518 14.6234 10.327 14.6234 9.59461V8.22036C14.6234 5.37913 12.7933 3.29637 10.2456 3.29637Z" fill="currentColor"/>
</svg>
