<svg width="16" height="16" viewBox="0 0 16.01 16.01" fill="none" xmlns="http://www.w3.org/2000/svg">
<path fill-rule="evenodd" clip-rule="evenodd" d="M8.00008 3.73366C5.64367 3.73366 3.73341 5.64391 3.73341 8.00033C3.73341 10.3567 5.64367 12.267 8.00008 12.267C10.3565 12.267 12.2667 10.3567 12.2667 8.00033C12.2667 5.64391 10.3565 3.73366 8.00008 3.73366ZM2.66675 8.00033C2.66675 5.05481 5.05456 2.66699 8.00008 2.66699C10.9456 2.66699 13.3334 5.05481 13.3334 8.00033C13.3334 10.9458 10.9456 13.3337 8.00008 13.3337C5.05456 13.3337 2.66675 10.9458 2.66675 8.00033ZM8.00008 4.66699C8.29463 4.66699 8.53341 4.90577 8.53341 5.20033V7.46699H10.8001C11.0946 7.46699 11.3334 7.70577 11.3334 8.00033C11.3334 8.29488 11.0946 8.53366 10.8001 8.53366H8.00008C7.70553 8.53366 7.46675 8.29488 7.46675 8.00033V5.20033C7.46675 4.90577 7.70553 4.66699 8.00008 4.66699Z" fill="CurrentColor"/>
</svg>
