<svg width="24" height="24" viewBox="0 0 24 24" fill="none" xmlns="http://www.w3.org/2000/svg">
<path d="M13.2865 2.8047C13.4431 2.02155 14.4093 1.729 14.9741 2.29374L21.7063 9.02592C22.271 9.59065 21.9784 10.5569 21.1953 10.7135L19.1948 11.1136C19.125 11.1276 19.061 11.1619 19.0107 11.2121L15.8107 14.4121C15.7499 14.4729 15.7129 14.5535 15.7063 14.6392L15.3207 19.6517C15.264 20.3896 14.6198 20.9417 13.8819 20.885C13.563 20.8604 13.2633 20.7226 13.0372 20.4965L8.97748 16.4361L3.70703 21.7071C3.31653 22.0976 2.68339 22.0976 2.29288 21.7071C1.93492 21.3492 1.90508 20.7873 2.20339 20.3954L2.29288 20.293L7.5631 15.0217L3.50354 10.9628C3.01513 10.4744 2.98257 9.70278 3.40585 9.17661L3.50354 9.0678C3.72972 8.84162 4.02935 8.70381 4.34828 8.67928L9.36082 8.2937C9.44654 8.28711 9.52707 8.25007 9.58786 8.18928L12.7879 4.98928C12.8381 4.939 12.8724 4.87497 12.8864 4.80524L13.2865 2.8047ZM14.8806 5.0285L14.8474 5.19746C14.7561 5.65435 14.5315 6.07396 14.202 6.40343L11.002 9.60343C10.6037 10.0018 10.0759 10.2445 9.51421 10.2877L5.93205 10.5627L13.4362 18.0668L13.7123 14.4858C13.7501 13.9943 13.9406 13.5288 14.2546 13.1532L14.3966 12.998L17.5966 9.79798C17.926 9.46851 18.3457 9.24394 18.8025 9.15256L18.9704 9.11833L14.8806 5.0285Z" fill="CurrentColor"/>
</svg>
