<svg width="20" height="21" viewBox="0 0 20.01 21.01" fill="none" xmlns="http://www.w3.org/2000/svg">
<path d="M7.4022 14.2166L3.04564 18.5732C2.31954 19.2993 1.2304 18.2102 1.95649 17.4841L6.31306 13.1275L2.80893 9.62337C2.39539 9.20982 2.39539 8.53934 2.80893 8.1258C2.98767 7.94705 3.22446 7.83815 3.4765 7.81876L7.73391 7.49127C7.82556 7.48422 7.91167 7.44461 7.97666 7.37962L10.6946 4.66169C10.7483 4.60793 10.785 4.53947 10.7999 4.46492L11.1397 2.76576C11.2604 2.1626 12.0045 1.93728 12.4395 2.37222L18.1575 8.09022C18.5924 8.52516 18.3671 9.26934 17.7639 9.38997L16.0648 9.72981C15.9902 9.74472 15.9218 9.78136 15.868 9.83511L13.1501 12.553C13.0851 12.618 13.0455 12.7041 13.0384 12.7958L12.7109 17.0532C12.6661 17.6363 12.157 18.0727 11.5739 18.0278C11.3219 18.0084 11.0851 17.8995 10.9063 17.7208L7.4022 14.2166ZM11.5027 12.6777C11.5379 12.2194 11.736 11.7889 12.0609 11.4639L14.7789 8.74597C15.0477 8.47719 15.39 8.29398 15.7627 8.21944L16.0508 8.16182L12.3679 4.47891L12.3103 4.76699C12.2357 5.13973 12.0525 5.48205 11.7837 5.75083L9.06581 8.46876C8.74082 8.79375 8.3103 8.99176 7.85205 9.02701L4.63808 9.27424L11.2555 15.8916L11.5027 12.6777Z" fill="CurrentColor"/>
</svg>
