<svg width="18" height="18" viewBox="0 0 18 18" fill="none" xmlns="http://www.w3.org/2000/svg">
<path d="M10.0694 1.33856C10.2 0.68593 11.0052 0.442133 11.4758 0.912749L17.0859 6.5229C17.5566 6.99351 17.3128 7.79872 16.6601 7.92924L14.993 8.26267C14.9349 8.27429 14.8816 8.30285 14.8397 8.34474L12.173 11.0114C12.1223 11.0621 12.0915 11.1292 12.086 11.2006L11.7647 15.3777C11.7174 15.9926 11.1805 16.4527 10.5657 16.4054C10.2999 16.385 10.0502 16.2702 9.8617 16.0817L6.47863 12.698L2.08659 17.0906C1.76117 17.416 1.23355 17.416 0.90813 17.0906C0.609825 16.7923 0.584967 16.3241 0.833554 15.9974L0.90813 15.9121L5.29998 11.5194L1.91701 8.13699C1.51 7.72998 1.48287 7.08695 1.83561 6.64847L1.91701 6.55781C2.10549 6.36932 2.35519 6.25448 2.62096 6.23404L6.79808 5.91272C6.86951 5.90722 6.93662 5.87636 6.98728 5.8257L9.65395 3.15903C9.69585 3.11714 9.72441 3.06377 9.73603 3.00567L10.0694 1.33856Z" fill="currentColor"/>
</svg>
