<svg width="20" height="20" viewBox="0 0 20.01 20.01" fill="none" xmlns="http://www.w3.org/2000/svg">
    <path d="M10.0001 3.77783C10.4296 3.77783 10.7778 4.12606 10.7778 4.55561V9.22228L15.4445 9.22228C15.8741 9.22228 16.2223 9.5705 16.2223 10.0001C16.2223 10.4296 15.8741 10.7778 15.4445 10.7778L10.7778 10.7778L10.7778 15.4445C10.7778 15.8741 10.4296 16.2223 10.0001 16.2223C9.5705 16.2223 9.22228 15.8741 9.22228 15.4445L9.2215 10.7778L4.55561 10.7778C4.12606 10.7778 3.77783 10.4296 3.77783 10.0001C3.77783 9.5705 4.12606 9.22228 4.55561 9.22228L9.2215 9.22228L9.22227 4.55561C9.22227 4.12606 9.5705 3.77783 10.0001 3.77783Z" fill="currentColor"/>
</svg>