<svg width="18" height="18" viewBox="0 0 18 18" fill="none" xmlns="http://www.w3.org/2000/svg">
<path d="M4.5 6.00037C5.32843 6.00037 6 6.67194 6 7.50037V13.5004C6 14.3288 5.32843 15.0004 4.5 15.0004C3.67157 15.0004 3 14.3288 3 13.5004V7.50037C3 6.67194 3.67157 6.00037 4.5 6.00037ZM13.5 8.25037C14.3284 8.25037 15 8.92194 15 9.75037V13.5004C15 14.3288 14.3284 15.0004 13.5 15.0004C12.6716 15.0004 12 14.3288 12 13.5004V9.75037C12 8.92194 12.6716 8.25037 13.5 8.25037ZM9 1.50037C9.82843 1.50037 10.5 2.17194 10.5 3.00037V13.5004C10.5 14.3288 9.82843 15.0004 9 15.0004C8.17157 15.0004 7.5 14.3288 7.5 13.5004V3.00037C7.5 2.17194 8.17157 1.50037 9 1.50037Z" fill="#818C99"/>
</svg>
