<svg width="15" height="14" viewBox="0 0 15 14" fill="none" xmlns="http://www.w3.org/2000/svg">
<path d="M11.8459 10.3889V10.5185L11.9353 10.4044C12.5729 9.59025 12.9689 8.61335 13.0782 7.58504C13.1875 6.55673 13.0057 5.5184 12.5534 4.58844C12.1012 3.65847 11.3967 2.8743 10.5204 2.32532C9.64404 1.77634 8.63108 1.48465 7.59698 1.48351C6.56288 1.48236 5.54926 1.77181 4.6717 2.31884C3.79414 2.86588 3.08795 3.64849 2.63364 4.57745C2.17933 5.50641 1.99519 6.54433 2.1022 7.57288C2.20922 8.60143 2.6031 9.57921 3.23892 10.3947L3.2685 10.4327L3.30755 10.4046C4.55256 9.50914 6.0403 9.0132 7.57357 8.9825C9.10845 8.96371 10.7103 9.53512 11.8459 10.3889ZM10.7859 11.4924H10.944L10.8072 11.4008C9.85246 10.7621 8.73137 10.4174 7.58271 10.4094H7.58236C6.44557 10.4094 5.22416 10.8232 4.35796 11.391L4.29742 11.4307L4.35597 11.4733C5.29187 12.1537 6.41885 12.521 7.57597 12.5228C8.72769 12.5245 9.85063 12.164 10.7859 11.4924ZM7.58247 13.95C6.66978 13.9481 5.7664 13.7665 4.9239 13.4155C4.08141 13.0645 3.31629 12.551 2.67225 11.9043C1.37154 10.5983 0.642925 8.82904 0.646694 6.98579C0.650464 5.14254 1.38631 3.37628 2.69235 2.07557C3.99839 0.774859 5.76764 0.0462451 7.61089 0.0500146C9.45414 0.053784 11.2204 0.789628 12.5211 2.09567C13.8218 3.40171 14.5504 5.17096 14.5467 7.01421C14.5429 8.85746 13.8071 10.6237 12.501 11.9244C11.195 13.2251 9.42572 13.9538 7.58247 13.95ZM9.92553 4.59317C10.053 4.90088 10.1186 5.23068 10.1186 5.56374C10.1186 6.23639 9.85138 6.88149 9.37575 7.35712C8.90011 7.83275 8.25501 8.09996 7.58236 8.09996C6.90972 8.09996 6.26462 7.83275 5.78898 7.35712C5.31335 6.88149 5.04614 6.23639 5.04614 5.56374C5.04614 5.23068 5.11174 4.90088 5.2392 4.59317C5.36666 4.28546 5.55347 4.00587 5.78898 3.77036C6.02449 3.53485 6.30408 3.34803 6.61179 3.22057C6.9195 3.09311 7.2493 3.02751 7.58236 3.02751C7.91543 3.02751 8.24523 3.09311 8.55294 3.22057C8.86064 3.34803 9.14024 3.53485 9.37575 3.77036C9.61126 4.00587 9.79807 4.28546 9.92553 4.59317ZM6.79797 4.77934C6.58993 4.98738 6.47306 5.26953 6.47306 5.56374C6.47306 5.85794 6.58993 6.1401 6.79797 6.34813C7.006 6.55617 7.28816 6.67304 7.58236 6.67304C7.87657 6.67304 8.15872 6.55617 8.36676 6.34813C8.57479 6.1401 8.69167 5.85794 8.69167 5.56374C8.69167 5.26953 8.57479 4.98738 8.36676 4.77934C8.15872 4.57131 7.87657 4.45444 7.58236 4.45444C7.28816 4.45444 7.006 4.57131 6.79797 4.77934Z" fill="#676A7C" stroke="white" stroke-width="0.1"/>
</svg>
