<svg width="24" height="24" viewBox="0 0 24 24" fill="none" xmlns="http://www.w3.org/2000/svg">
<path d="M19.5215 4V8.9565" stroke="#4F6AFF" stroke-width="1.3" stroke-linecap="round" stroke-linejoin="round"/>
<path d="M17.0433 6.47852H21.9998" stroke="#4F6AFF" stroke-width="1.3" stroke-linecap="round" stroke-linejoin="round"/>
<path d="M7.95654 13.9141C7.95654 13.9141 9.19567 15.9793 11.2609 15.9793C13.3261 15.9793 14.5652 13.9141 14.5652 13.9141" stroke="#4F6AFF" stroke-width="1.3" stroke-linecap="round" stroke-linejoin="round"/>
<path d="M8.78253 9.7832H8.78953" stroke="#4F6AFF" stroke-width="2" stroke-linecap="round" stroke-linejoin="round"/>
<path d="M13.7391 9.7832H13.7461" stroke="#4F6AFF" stroke-width="2" stroke-linecap="round" stroke-linejoin="round"/>
<path d="M19.5217 12.2608C19.5217 14.0106 18.9661 15.7152 17.9349 17.1289C16.9038 18.5426 15.4504 19.5924 13.7842 20.1268C12.1181 20.6613 10.3252 20.653 8.66412 20.1029C7.00303 19.5529 5.55949 18.4896 4.54159 17.0664C3.5237 15.6431 2.98402 13.9334 3.00036 12.1837C3.0167 10.434 3.58821 8.73466 4.63251 7.33066C5.67681 5.92666 7.13995 4.89053 8.81102 4.37162C10.4821 3.8527 12.2748 3.87781 13.9307 4.44333" stroke="#4F6AFF" stroke-width="1.3" stroke-linecap="round"/>
</svg>
