<svg width="32" height="32" viewBox="0 0 32.01 32.01" fill="none" xmlns="http://www.w3.org/2000/svg">
<circle cx="16" cy="16" r="16" fill="CurrentColor"/>
<path d="M12.875 10.375C12.875 8.64911 14.2741 7.25 16 7.25C17.7259 7.25 19.125 8.64911 19.125 10.375V15.375C19.125 17.1009 17.7259 18.5 16 18.5C14.2741 18.5 12.875 17.1009 12.875 15.375V10.375Z" fill="white"/>
<path d="M15.2188 22.4062C15.2188 21.9748 15.5685 21.625 16 21.625C16.4315 21.625 16.7812 21.9748 16.7812 22.4062V23.9688C16.7812 24.4002 16.4315 24.75 16 24.75C15.5685 24.75 15.2188 24.4002 15.2188 23.9688V22.4062Z" fill="white"/>
<path d="M23.5 14.9062C23.5 15.3377 23.1502 15.6875 22.7188 15.6875C22.2873 15.6875 21.9375 15.3377 21.9375 14.9062C21.9375 14.4748 22.2873 14.125 22.7188 14.125C23.1502 14.125 23.5 14.4748 23.5 14.9062Z" fill="white"/>
<path d="M10.0625 14.9062C10.0625 15.3377 9.71272 15.6875 9.28125 15.6875C8.84978 15.6875 8.5 15.3377 8.5 14.9062C8.5 14.4748 8.84978 14.125 9.28125 14.125C9.71272 14.125 10.0625 14.4748 10.0625 14.9062Z" fill="white"/>
<path d="M16 22.25C20.1421 22.25 23.5 18.8921 23.5 14.75H21.9375C21.9375 18.0292 19.2792 20.6875 16 20.6875C12.7208 20.6875 10.0625 18.0292 10.0625 14.75H8.5C8.5 18.8921 11.8579 22.25 16 22.25Z" fill="white"/>
</svg>
