<svg width="18" height="18" viewBox="0 0 18 18" fill="none" xmlns="http://www.w3.org/2000/svg">
<path fill-rule="evenodd" clip-rule="evenodd" d="M7.76515 1.36327C8.08285 1.04558 8.59794 1.04558 8.91563 1.36327L10.8945 3.3421C11.2122 3.6598 11.2122 4.17489 10.8945 4.49259L8.91563 6.47142C8.59794 6.78912 8.08285 6.78912 7.76515 6.47142C7.44746 6.15374 7.44745 5.63868 7.7651 5.32098L8.30844 4.77713C5.80623 5.11474 3.87704 7.25903 3.87704 9.85383C3.87704 12.6832 6.17066 14.9768 9 14.9768C11.8293 14.9768 14.123 12.6832 14.123 9.85383C14.123 8.57621 13.6546 7.37365 12.8205 6.44073C12.521 6.10579 12.5498 5.5915 12.8847 5.29204C13.2197 4.99257 13.734 5.02133 14.0334 5.35627C15.1317 6.58466 15.75 8.17224 15.75 9.85383C15.75 13.5817 12.7279 16.6038 9 16.6038C5.27208 16.6038 2.25 13.5817 2.25 9.85383C2.25 6.33405 4.94398 3.44355 8.38257 3.1317L7.76515 2.51376C7.44745 2.19606 7.44745 1.68097 7.76515 1.36327Z" fill="#818C99"/>
</svg>
