<svg width="20" height="20" viewBox="0 0 20.01 20.01" fill="none" xmlns="http://www.w3.org/2000/svg">
<path fill-rule="evenodd" clip-rule="evenodd" d="M6.36366 3.63666C6.65656 3.92956 6.65656 4.40443 6.36366 4.69732L4.31066 6.75033H13.75C16.2353 6.75033 18.25 8.76504 18.25 11.2503C18.25 13.7356 16.2353 15.7503 13.75 15.7503H10C9.58579 15.7503 9.25 15.4145 9.25 15.0003C9.25 14.5861 9.58579 14.2503 10 14.2503H13.75C15.4069 14.2503 16.75 12.9072 16.75 11.2503C16.75 9.59347 15.4069 8.25033 13.75 8.25033H4.31066L6.36366 10.3033C6.65656 10.5962 6.65656 11.0711 6.36366 11.364C6.07077 11.6569 5.5959 11.6569 5.303 11.364L1.96967 8.03066C1.67678 7.73776 1.67678 7.26289 1.96967 6.97L5.303 3.63666C5.5959 3.34377 6.07077 3.34377 6.36366 3.63666Z" fill="CurrentColor"/>
</svg>
