<svg width="18" height="18" viewBox="0 0 18 18" fill="none" xmlns="http://www.w3.org/2000/svg">
<path fill-rule="evenodd" clip-rule="evenodd" d="M6.62318 1.50006H11.3768C11.8872 1.49889 12.2851 1.66012 12.6512 2.02792L15.9721 5.34888C16.3339 5.70896 16.5012 6.10428 16.5 6.62323V11.3769C16.5012 11.8958 16.3339 12.2912 15.9721 12.6512L12.6512 15.9722C12.2911 16.3339 11.8958 16.5012 11.3768 16.5H6.62317C6.10422 16.5012 5.7089 16.3339 5.34882 15.9722L2.02786 12.6512C1.66612 12.2912 1.49882 11.8958 1.50001 11.3769V6.62323C1.49882 6.10428 1.66612 5.70896 2.02786 5.34888L5.34882 2.02792C5.71493 1.66012 6.11277 1.49889 6.62318 1.50006ZM6.28621 3.01907L3.01901 6.28627C2.88286 6.42242 2.86369 6.46949 2.86369 6.66124V11.3389C2.86369 11.5287 2.88283 11.5777 3.01901 11.7138L6.28621 14.981C6.4218 15.1166 6.46863 15.1364 6.66119 15.1364H11.3388C11.5306 15.1364 11.5778 15.1171 11.7138 14.981L14.981 11.7138C15.117 11.5778 15.1363 11.528 15.1363 11.3389V6.66124C15.1363 6.46889 15.1166 6.42185 14.981 6.28627L11.7138 3.01907C11.5773 2.88254 11.5303 2.86374 11.3388 2.86374H6.66119C6.46883 2.86374 6.41993 2.88534 6.28621 3.01907ZM9.75757 12.0303C9.75757 12.4487 9.41839 12.7879 9 12.7879C8.5816 12.7879 8.24243 12.4487 8.24243 12.0303C8.24243 11.6119 8.5816 11.2728 9 11.2728C9.41839 11.2728 9.75757 11.6119 9.75757 12.0303ZM9.68181 5.89401C9.68181 5.51746 9.37655 5.2122 9 5.2122C8.62344 5.2122 8.31818 5.51746 8.31818 5.89401V9.8334C8.31818 10.2099 8.62344 10.5152 9 10.5152C9.37655 10.5152 9.68181 10.2099 9.68181 9.8334V5.89401Z" fill="currentColor"/>
</svg>
