<svg width="18" height="18" viewBox="0 0 18 18" fill="none" xmlns="http://www.w3.org/2000/svg">
<path d="M10.9983 1.875C11.7436 1.87499 12.3485 1.87492 12.8389 1.91498C13.3446 1.9563 13.7944 2.04359 14.2121 2.25635C14.6161 2.46222 14.974 2.74364 15.2677 3.08211C15.5384 3.39403 15.505 3.86622 15.1931 4.13698C14.8812 4.40769 14.409 4.37428 14.1383 4.0624C13.97 3.86844 13.7647 3.70751 13.5332 3.58955C13.3615 3.50208 13.1306 3.43956 12.7174 3.40579C12.2955 3.37132 11.7523 3.37043 10.9683 3.37043H7.03173C6.24774 3.37043 5.70455 3.37132 5.28258 3.40579C4.86944 3.43956 4.6385 3.50208 4.46682 3.58955C4.08912 3.78202 3.78202 4.08912 3.58955 4.46682C3.50208 4.6385 3.43956 4.86944 3.40579 5.28258C3.37132 5.70455 3.37043 6.24774 3.37043 7.03173V10.9683C3.37043 11.7523 3.37132 12.2955 3.40579 12.7174C3.43956 13.1306 3.50208 13.3615 3.58955 13.5332C3.78202 13.9109 4.08912 14.218 4.46682 14.4104C4.6385 14.4979 4.86944 14.5604 5.28258 14.5942C5.70455 14.6287 6.24774 14.6296 7.03173 14.6296H10.9683C11.7523 14.6296 12.2955 14.6287 12.7174 14.5942C13.1306 14.5604 13.3615 14.4979 13.5332 14.4104C13.9109 14.218 14.218 13.9109 14.4104 13.5332C14.493 13.3712 14.5532 13.1557 14.5881 12.7835C14.6266 12.3723 14.9918 12.07 15.403 12.1085C15.8141 12.1471 16.1164 12.5116 16.0781 12.9227C16.034 13.3941 15.9448 13.8173 15.7436 14.2121C15.4078 14.8713 14.8713 15.4078 14.2121 15.7436C13.7944 15.9564 13.3446 16.0437 12.8389 16.085C12.3485 16.1251 11.7436 16.125 10.9983 16.125H7.00174C6.25643 16.125 5.6515 16.1251 5.1611 16.085C4.65543 16.0437 4.20559 15.9564 3.78792 15.7436C3.12869 15.4078 2.59225 14.8713 2.25635 14.2121C2.04359 13.7944 1.9563 13.3446 1.91498 12.8389C1.87492 12.3485 1.87499 11.7436 1.875 10.9983V7.00174C1.87499 6.25643 1.87492 5.6515 1.91498 5.1611C1.9563 4.65543 2.04359 4.20559 2.25635 3.78792C2.59225 3.12869 3.12869 2.59225 3.78792 2.25635C4.20559 2.04359 4.65543 1.9563 5.1611 1.91498C5.6515 1.87492 6.25643 1.87499 7.00174 1.875H10.9983Z" fill="#818C99"/>
<path d="M15.3777 5.81155C15.7906 5.81176 16.125 6.1467 16.125 6.55965V8.21269C16.125 9.49525 15.0856 10.5352 13.8031 10.5354H8.40644L9.59894 11.691C9.89562 11.9784 9.90326 12.4515 9.61585 12.7482C9.32848 13.0448 8.85537 13.0524 8.55868 12.7651L6.03913 10.3247C5.89371 10.1839 5.81157 9.98977 5.81155 9.78731C5.81154 9.58483 5.89371 9.39077 6.03913 9.24988L8.55868 6.80953C8.85529 6.52216 9.32841 6.52918 9.61585 6.82567C9.90328 7.12235 9.89562 7.59619 9.59894 7.88362L8.40644 9.03921H13.8031C14.2594 9.039 14.6295 8.66909 14.6296 8.21269V6.55965C14.6296 6.14657 14.9646 5.81155 15.3777 5.81155Z" fill="#818C99"/>
</svg>
