<svg width="32" height="32" viewBox="0 0 32 32" fill="none" xmlns="http://www.w3.org/2000/svg">
<path d="M13.1442 2.6665C18.9307 2.6665 23.6217 7.35598 23.6217 13.1407C23.6217 15.518 22.8294 17.7104 21.4945 19.4683L28.9155 26.8956C29.4732 27.4537 29.4726 28.358 28.9144 28.9154C28.3561 29.4729 27.4515 29.4723 26.8938 28.9143L19.4737 21.4884C17.7153 22.823 15.5222 23.615 13.1442 23.615C7.35767 23.615 2.66675 18.9255 2.66675 13.1407C2.66675 7.35598 7.35767 2.6665 13.1442 2.6665ZM13.1442 5.52296C8.93582 5.52296 5.52421 8.93353 5.52421 13.1407C5.52421 17.3479 8.93582 20.7585 13.1442 20.7585C17.3526 20.7585 20.7642 17.3479 20.7642 13.1407C20.7642 8.93353 17.3526 5.52296 13.1442 5.52296Z" fill="#0DBD8B"/>
</svg>
