<svg width="20" height="20" viewBox="0 0 18 18" fill="none" xmlns="http://www.w3.org/2000/svg">
<path d="M7.25 0C11.2541 0 14.5 3.24594 14.5 7.25C14.5 8.89122 13.9547 10.4051 13.0353 11.6202L17.2071 15.7929C17.5976 16.1834 17.5976 16.8166 17.2071 17.2071C16.8166 17.5976 16.1834 17.5976 15.7929 17.2071L11.6202 13.0353C10.4051 13.9547 8.89122 14.5 7.25 14.5C3.24594 14.5 0 11.2541 0 7.25C0 3.24594 3.24594 0 7.25 0ZM7.25 2C4.3505 2 2 4.3505 2 7.25C2 10.1495 4.3505 12.5 7.25 12.5C10.1495 12.5 12.5 10.1495 12.5 7.25C12.5 4.3505 10.1495 2 7.25 2Z" fill="#818C99"/>
</svg>
