<svg width="20" height="20" viewBox="0 0 20 20" fill="none" xmlns="http://www.w3.org/2000/svg">
<path fill-rule="evenodd" clip-rule="evenodd" d="M4.42131 5.44101C4.16699 5.94014 4.16699 6.59354 4.16699 7.90033V12.1003C4.16699 13.4071 4.16699 14.0605 4.42131 14.5596C4.64501 14.9987 5.00197 15.3556 5.44101 15.5793C5.94014 15.8337 6.59354 15.8337 7.90033 15.8337H12.1003C13.4071 15.8337 14.0605 15.8337 14.5596 15.5793C14.9987 15.3556 15.3556 14.9987 15.5793 14.5596C15.8337 14.0605 15.8337 13.4071 15.8337 12.1003V7.90033C15.8337 6.59354 15.8337 5.94014 15.5793 5.44101C15.3556 5.00197 14.9987 4.64501 14.5596 4.42131C14.0605 4.16699 13.4071 4.16699 12.1003 4.16699H7.90033C6.59354 4.16699 5.94014 4.16699 5.44101 4.42131C5.00197 4.64501 4.64501 5.00197 4.42131 5.44101Z" fill="#FA4C56"/>
</svg>
