<svg width="18" height="18" viewBox="0 0 18.01 18.01" fill="none" xmlns="http://www.w3.org/2000/svg">
<g id="strikethrough">
<g id="Vector">
<path fill-rule="evenodd" clip-rule="evenodd" d="M8.56512 4.76553C9.60828 4.66217 10.5521 5.05257 11.0124 5.90409C11.2093 6.26847 11.6644 6.40419 12.0288 6.20722C12.3932 6.01025 12.5289 5.55518 12.3319 5.19079C11.5109 3.67208 9.89223 3.12669 8.41722 3.27284C5.91275 3.521 4.83572 5.53801 5.27335 7.20388C5.50126 8.07143 6.01133 8.62646 6.61513 8.99963H11.4498C11.2992 8.92103 11.1453 8.85382 10.9925 8.79533C10.4786 8.5986 9.88755 8.46983 9.35866 8.35462C9.25103 8.33117 9.1459 8.30827 9.0446 8.28548C7.70239 7.98362 6.94776 7.67403 6.72413 6.82276C6.52779 6.07537 6.95175 4.92539 8.56512 4.76553ZM12.9374 10.9996H11.38C11.5752 11.4973 11.5297 12.0068 11.2672 12.3922C10.9824 12.8103 10.3244 13.2496 8.98965 13.2496C6.91828 13.2496 6.30525 12.1315 6.22791 11.8218C6.12755 11.4199 5.72041 11.1755 5.31854 11.2759C4.91667 11.3762 4.67224 11.7834 4.7726 12.1852C5.02758 13.2062 6.27556 14.7496 8.98965 14.7496C10.6459 14.7496 11.8571 14.1908 12.507 13.2366C12.9733 12.5519 13.0891 11.7506 12.9374 10.9996Z" fill="CurrentColor"/>
<path fill-rule="evenodd" clip-rule="evenodd" d="M2.7002 8.99963C2.7002 8.55781 3.05837 8.19963 3.5002 8.19963H14.5002C14.942 8.19963 15.3002 8.55781 15.3002 8.99963C15.3002 9.44146 14.942 9.79963 14.5002 9.79963H3.5002C3.05837 9.79963 2.7002 9.44146 2.7002 8.99963Z" fill="CurrentColor"/>
</g>
</g>
</svg>
