<svg width="22" height="12" viewBox="0 0 22 12" fill="none" xmlns="http://www.w3.org/2000/svg">
<path d="M15.7071 0.292893C16.0676 0.653377 16.0953 1.22061 15.7903 1.6129L15.7071 1.70711L5.70711 11.7071C5.34662 12.0676 4.77939 12.0953 4.3871 11.7903L4.29289 11.7071L0.292893 7.70711C-0.0976311 7.31658 -0.0976311 6.68342 0.292893 6.29289C0.653377 5.93241 1.22061 5.90468 1.6129 6.2097L1.70711 6.29289L5 9.585L14.2929 0.292893C14.6834 -0.0976311 15.3166 -0.0976311 15.7071 0.292893ZM21.7071 0.292893C22.0676 0.653377 22.0953 1.22061 21.7903 1.6129L21.7071 1.70711L11.7071 11.7071C11.3166 12.0976 10.6834 12.0976 10.2929 11.7071C9.93241 11.3466 9.90468 10.7794 10.2097 10.3871L10.2929 10.2929L20.2929 0.292893C20.6834 -0.0976311 21.3166 -0.0976311 21.7071 0.292893Z" fill="#2F81FF"/>
</svg>
