<svg width="18" height="18" viewBox="0 0 18.01 18.01" fill="none" xmlns="http://www.w3.org/2000/svg">
<g id="Underline">
<g id="Vector">
<path d="M13 9C13 11.7895 11.6316 13.1842 8.89474 13.1842C6.1579 13.1842 4.78947 11.7895 4.78947 9V2.38421C4.78947 2.1421 4.87368 1.93684 5.04211 1.76842C5.22105 1.58947 5.43158 1.5 5.67368 1.5C5.91579 1.5 6.12105 1.58947 6.28947 1.76842C6.46842 1.93684 6.5579 2.1421 6.5579 2.38421V9.07895C6.5579 10.0053 6.74737 10.6789 7.12632 11.1C7.51579 11.5211 8.11579 11.7316 8.92632 11.7316C9.73684 11.7316 10.3316 11.5211 10.7105 11.1C11.1 10.6789 11.2947 10.0053 11.2947 9.07895V2.35263C11.2947 2.12105 11.3789 1.92105 11.5474 1.75263C11.7158 1.58421 11.9158 1.5 12.1474 1.5C12.3789 1.5 12.5789 1.58421 12.7474 1.75263C12.9158 1.92105 13 2.12105 13 2.35263V9Z" fill="CurrentColor"/>
<path fill-rule="evenodd" clip-rule="evenodd" d="M4 15.7105C4 15.2745 4.35346 14.9211 4.78947 14.9211H13.2105C13.6465 14.9211 14 15.2745 14 15.7105C14 16.1465 13.6465 16.5 13.2105 16.5H4.78947C4.35346 16.5 4 16.1465 4 15.7105Z" fill="CurrentColor"/>
</g>
</g>
</svg>
