<svg width="20" height="20" viewBox="0 0 20.01 20.01" fill="none" xmlns="http://www.w3.org/2000/svg">
<path fill-rule="evenodd" clip-rule="evenodd" d="M10.2456 1.75C13.8215 1.75 16.1698 4.71035 16.1698 8.22036V9.59461C16.1698 9.80912 16.2953 10.0569 16.6667 10.4465C17.0734 10.8732 17.5395 11.2494 17.8705 11.7429C18.1434 12.15 18.3282 12.6389 18.3168 13.1939C18.308 13.6209 17.9548 13.9599 17.5278 13.9511C17.1009 13.9423 16.7619 13.5891 16.7707 13.1622C16.7851 12.462 15.9713 11.9582 15.5474 11.5135C15.1399 11.0859 14.6234 10.4526 14.6234 9.59461V8.22036C14.6234 5.37512 12.7898 3.29637 10.2456 3.29637C9.37964 3.29637 8.62675 3.5271 7.99203 3.9281C7.63101 4.15617 7.15347 4.0484 6.9254 3.68739C6.69733 3.32638 6.8051 2.84883 7.16611 2.62076C8.04697 2.06427 9.09863 1.75 10.2456 1.75Z" fill="currentColor"/>
<path fill-rule="evenodd" clip-rule="evenodd" d="M13.9803 15.3246C13.4397 17.3285 12.15 18.4167 10.242 18.4167C8.33374 18.4167 7.04394 17.3281 6.50352 15.3237H4.86136C3.58305 15.3237 2.74326 14.8922 2.3681 14.1119C2.20405 13.7706 2.1665 13.4937 2.1665 13.1135C2.1665 12.0029 2.97571 11.2612 3.69525 10.5188C4.14823 10.0515 4.31425 9.79109 4.31425 9.59461C4.31425 8.31189 4.28183 7.04414 4.70493 5.81143L2.7366 3.8431C2.43465 3.54115 2.43465 3.0516 2.7366 2.74965C3.03855 2.4477 3.5281 2.4477 3.83005 2.74965L17.7474 16.667C18.0494 16.969 18.0494 17.4585 17.7474 17.7605C17.4455 18.0624 16.9559 18.0624 16.654 17.7605L14.218 15.3245L13.9803 15.3246ZM8.12351 15.3253H12.3605C11.9688 16.3963 11.2937 16.8703 10.242 16.8703C9.19029 16.8703 8.51521 16.3963 8.12351 15.3253ZM5.86062 9.59461C5.86062 8.75585 5.80895 7.90108 5.96609 7.07259L12.6709 13.7774H4.86136C4.13375 13.7774 3.85396 13.6336 3.76178 13.4418C3.47392 12.8431 4.2093 12.2009 4.56414 11.841C5.18447 11.213 5.86062 10.5373 5.86062 9.59461Z" fill="currentColor"/>
</svg>
