<svg width="24" height="24" viewBox="0 0 24 24" fill="none" xmlns="http://www.w3.org/2000/svg">
<path d="M5.27109 2.75975L5.37349 2.84924L21.1499 18.6257C21.5404 19.0162 21.5404 19.6493 21.1499 20.0398C20.792 20.3977 20.2302 20.4276 19.8382 20.1293L19.7358 20.0398L15.6077 15.9119L15.3202 19.6518C15.2634 20.3896 14.6193 20.9418 13.8814 20.885C13.5625 20.8605 13.2628 20.7227 13.0367 20.4965L8.97718 16.4363L3.70697 21.7072C3.31647 22.0976 2.68336 22.0976 2.29287 21.7072C1.93492 21.3492 1.90509 20.7874 2.20338 20.3954L2.29287 20.2931L7.56286 15.022L3.50347 10.9633C3.01508 10.4749 2.98252 9.70332 3.40579 9.17717L3.50347 9.06837C3.72964 8.8422 4.02926 8.7044 4.34818 8.67987L8.08726 8.39143L3.95939 4.26334C3.5689 3.87284 3.5689 3.23973 3.95939 2.84924C4.31734 2.49129 4.87916 2.46146 5.27109 2.75975ZM9.91741 10.2217C9.78585 10.2553 9.65088 10.2777 9.51389 10.2882L5.93189 10.5632L13.4357 18.0671L13.7118 14.4861C13.7223 14.3491 13.7447 14.2142 13.7783 14.0826L9.91741 10.2217ZM14.8716 2.20717L14.9694 2.29346L21.7074 9.02622C22.2426 9.56107 22.0082 10.4556 21.318 10.6822L21.1915 10.7151L19.1584 11.1103L19.0997 11.1402L18.508 11.7339C18.1182 12.1251 17.4851 12.1262 17.0939 11.7364C16.7353 11.3791 16.7045 10.8173 17.0022 10.4248L17.0915 10.3223L17.6842 9.72751C17.9485 9.46312 18.2774 9.27445 18.6233 9.1817L18.9619 9.11026L14.88 5.03061L14.8473 5.19753C14.7826 5.56282 14.6229 5.90349 14.3843 6.18751L14.2585 6.32465L13.6718 6.90696C13.2799 7.29598 12.6468 7.29361 12.2577 6.90166C11.9011 6.54238 11.8734 5.98045 12.1732 5.58964L12.263 5.48758L12.8473 4.90764L12.8559 4.89414L12.8818 4.82902L13.2817 2.80682C13.4282 2.06613 14.2989 1.76259 14.8716 2.20717Z" fill="CurrentColor"/>
</svg>
