<svg width="20" height="21" viewBox="0 0 20.01 21.01" fill="none" xmlns="http://www.w3.org/2000/svg">
<path d="M8.74078 6.61575L9.82992 7.70489L12.8245 10.7006L13.9142 11.7892L17.4719 15.348C17.7726 15.6488 17.7726 16.1364 17.4719 16.4372C17.1711 16.7379 16.6835 16.7379 16.3827 16.4372L13.0172 13.0717L12.7109 17.0535C12.6661 17.6366 12.157 18.0729 11.5739 18.0281C11.3219 18.0087 11.0851 17.8998 10.9063 17.721L7.4022 14.2169L3.04564 18.5735C2.31954 19.2995 1.2304 18.2104 1.95649 17.4843L6.31306 13.1277L2.80893 9.62361C2.39539 9.21007 2.39539 8.53958 2.80893 8.12604C2.98767 7.9473 3.22446 7.83839 3.4765 7.819L7.45825 7.51271L4.06049 4.11496C3.75974 3.8142 3.75974 3.32657 4.06049 3.02582C4.36125 2.72506 4.84888 2.72506 5.14964 3.02582L8.74017 6.61635L8.74078 6.61575ZM10.3745 4.98203L10.6946 4.66193C10.7483 4.60818 10.785 4.53971 10.7999 4.46517L11.1397 2.766C11.2604 2.16284 12.0045 1.93752 12.4395 2.37247L18.1575 8.09046C18.5924 8.52541 18.3671 9.26959 17.7639 9.39022L16.0648 9.73005C15.9902 9.74496 15.9218 9.7816 15.868 9.83536L15.5479 10.1555C15.2472 10.4562 14.7595 10.4562 14.4588 10.1555C14.158 9.8547 14.158 9.36707 14.4588 9.06632L14.7789 8.74621C15.0477 8.47744 15.39 8.29423 15.7627 8.21968L16.0508 8.16206L12.3679 4.47915L12.3103 4.76724C12.2357 5.13997 12.0525 5.48229 11.7837 5.75107L11.4636 6.07117C11.1629 6.37193 10.6752 6.37193 10.3745 6.07117C10.0737 5.77042 10.0737 5.28279 10.3745 4.98203ZM8.70066 8.75512C8.44477 8.90985 8.15444 9.00399 7.85205 9.02725L4.63808 9.27448L11.2555 15.8919L11.5027 12.6779C11.526 12.3755 11.6201 12.0852 11.7748 11.8293L8.70066 8.75512Z" fill="CurrentColor"/>
</svg>
