<svg width="20" height="20" viewBox="0 0 20 20" fill="none" xmlns="http://www.w3.org/2000/svg">
<rect width="20" height="20" rx="10" fill="CurrentColor"/>
<path d="M10.0041 16.0865C8.8735 16.0865 7.88672 15.858 7.04371 15.4008C6.20069 14.9437 5.54939 14.2948 5.08979 13.4543C4.63019 12.6137 4.40039 11.6331 4.40039 10.5123V10.1068C4.40039 8.99099 4.64002 8.00052 5.11928 7.13539C5.59855 6.27025 6.27197 5.59806 7.13956 5.1188C8.00715 4.63953 8.99885 4.3999 10.1147 4.3999H10.1737C11.2158 4.3999 12.1485 4.61495 12.9718 5.04506C13.7952 5.47517 14.4391 6.06994 14.9036 6.8294C15.3681 7.58885 15.6004 8.45028 15.6004 9.41373V9.78239C15.6004 10.4411 15.4923 11.0236 15.276 11.5299C15.0597 12.0362 14.7574 12.4306 14.3691 12.7133C13.9807 12.9959 13.5334 13.1372 13.0271 13.1372C12.57 13.1372 12.1767 13.0414 11.8474 12.8497C11.5181 12.658 11.3214 12.4073 11.2575 12.0976H11.1838C11.1297 12.2893 11.0216 12.465 10.8594 12.6248C10.6972 12.7845 10.4993 12.9099 10.2658 13.0008C10.0323 13.0918 9.7878 13.1372 9.53219 13.1372C9.12911 13.1372 8.77766 13.0389 8.47781 12.8423C8.17796 12.6457 7.94694 12.3655 7.78472 12.0017C7.62251 11.638 7.5414 11.2079 7.5414 10.7114V9.9741C7.5414 9.49237 7.62374 9.0721 7.78841 8.71327C7.95308 8.35443 8.18902 8.07917 8.49624 7.88746C8.80346 7.69575 9.16352 7.5999 9.57643 7.5999C9.94018 7.5999 10.2597 7.68961 10.535 7.86903C10.8102 8.04844 10.9921 8.28316 11.0806 8.57317H11.1396V8.38147C11.1396 8.18485 11.1936 8.02878 11.3018 7.91327C11.4099 7.79775 11.5574 7.73999 11.7442 7.73999C11.926 7.73999 12.0711 7.79775 12.1792 7.91327C12.2873 8.02878 12.3414 8.18485 12.3414 8.38147V11.3308C12.3414 11.5815 12.4176 11.7818 12.57 11.9317C12.7224 12.0816 12.9214 12.1566 13.1672 12.1566C13.4277 12.1566 13.6563 12.0558 13.8529 11.8543C14.0495 11.6527 14.2007 11.3664 14.3064 10.9953C14.4121 10.6242 14.4649 10.1904 14.4649 9.69391V9.45059C14.4649 8.67885 14.2818 7.98823 13.9156 7.3787C13.5494 6.76918 13.0406 6.29238 12.3893 5.94829C11.738 5.6042 10.9995 5.43216 10.1737 5.43216H10.1147C9.22005 5.43216 8.42866 5.62878 7.74048 6.02202C7.05231 6.41527 6.51775 6.96948 6.1368 7.68469C5.75584 8.3999 5.56537 9.22202 5.56537 10.1511V10.4681C5.56537 11.3922 5.7497 12.202 6.11836 12.8976C6.48703 13.5931 7.0093 14.1289 7.68518 14.505C8.36107 14.881 9.14877 15.069 10.0483 15.069H10.1073C10.4416 15.069 10.8569 15.0322 11.3534 14.9584C11.6139 14.924 11.7835 14.9068 11.8621 14.9068C12.0047 14.9068 12.1227 14.9498 12.2161 15.0358C12.3095 15.1219 12.3562 15.2312 12.3562 15.364C12.3562 15.4967 12.3168 15.6097 12.2382 15.7031C12.1595 15.7965 12.0465 15.8629 11.899 15.9022C11.4222 16.0251 10.8127 16.0865 10.0704 16.0865H10.0041ZM8.82435 10.5418C8.82435 11.0383 8.91898 11.4156 9.10822 11.6736C9.29747 11.9317 9.57643 12.0607 9.94509 12.0607C10.3088 12.0607 10.5866 11.9366 10.7783 11.6884C10.97 11.4401 11.0658 11.0801 11.0658 10.6082V10.011C11.0658 9.57839 10.9638 9.23677 10.7598 8.98608C10.5558 8.73538 10.2793 8.61004 9.93035 8.61004C9.58134 8.61004 9.30976 8.74153 9.1156 9.00451C8.92143 9.26749 8.82435 9.63492 8.82435 10.1068V10.5418Z" fill="white"/>
</svg>
