<svg width="32" height="32" viewBox="0 0 32 32" fill="none" xmlns="http://www.w3.org/2000/svg">
<path fill-rule="evenodd" clip-rule="evenodd" d="M14.5 20.5C14.5 21.3284 15.1716 22 16 22C16.8284 22 17.5 21.3284 17.5 20.5L17.5 7.12132L21.9393 11.5607C22.5251 12.1464 23.4749 12.1464 24.0607 11.5607C24.6464 10.9749 24.6464 10.0251 24.0607 9.43934L17.0607 2.43934C16.7794 2.15804 16.3978 2 16 2C15.6022 2 15.2206 2.15804 14.9393 2.43934L7.93934 9.43934C7.35355 10.0251 7.35355 10.9749 7.93934 11.5607C8.52512 12.1464 9.47487 12.1464 10.0607 11.5607L14.5 7.12132L14.5 20.5ZM5.5 25C4.67157 25 4 25.6716 4 26.5C4 27.3284 4.67157 28 5.5 28H26.5C27.3284 28 28 27.3284 28 26.5C28 25.6716 27.3284 25 26.5 25H5.5Z" fill="white"/>
</svg>
