<svg width="24" height="24" viewBox="0 0 20 20" fill="none" xmlns="http://www.w3.org/2000/svg">
<path d="M13.7497 10.6247C15.6614 10.6247 19.1663 11.339 19.1663 14.1961C19.1663 15.4461 18.8477 15.6247 18.2105 15.6247L13.1353 15.6254C13.267 15.2178 13.333 14.7398 13.333 14.1961C13.333 12.7604 12.8069 11.6405 11.9398 10.8113C12.5924 10.6775 13.2299 10.6247 13.7497 10.6247ZM6.24967 10.6247C8.16144 10.6247 11.6663 11.339 11.6663 14.1961C11.6663 15.4461 11.3477 15.6247 10.7105 15.6247H1.78889C1.15164 15.6247 0.833008 15.4461 0.833008 14.1961C0.833008 11.339 4.33791 10.6247 6.24967 10.6247ZM6.24967 4.37469C7.63092 4.37469 8.74967 5.49344 8.74967 6.87469C8.74967 8.25594 7.63092 9.37469 6.24967 9.37469C4.86842 9.37469 3.74967 8.25594 3.74967 6.87469C3.74967 5.49344 4.86842 4.37469 6.24967 4.37469ZM13.7497 4.37469C15.1309 4.37469 16.2497 5.49344 16.2497 6.87469C16.2497 8.25594 15.1309 9.37469 13.7497 9.37469C12.3684 9.37469 11.2497 8.25594 11.2497 6.87469C11.2497 5.49344 12.3684 4.37469 13.7497 4.37469Z" fill="#818C99"/>
</svg>
