<svg width="24" height="24" viewBox="0 0 24 24" fill="none" xmlns="http://www.w3.org/2000/svg">
<path fill-rule="evenodd" clip-rule="evenodd" d="M13.5781 19.9271C14.1247 19.8189 14.6553 20.1745 14.7637 20.721C14.8718 21.2677 14.5164 21.7994 13.9697 21.9075C13.3319 22.0337 12.6731 22.0989 12 22.0989C11.3269 22.0989 10.6681 22.0337 10.0303 21.9075C9.48356 21.7994 9.12818 21.2677 9.23633 20.721C9.34468 20.1745 9.87531 19.8189 10.4219 19.9271C10.9315 20.0279 11.459 20.0814 12 20.0814C12.541 20.0814 13.0685 20.0279 13.5781 19.9271Z" fill="#818C99"/>
<path fill-rule="evenodd" clip-rule="evenodd" d="M3.87891 16.2122C4.34199 15.9022 4.96925 16.0255 5.2793 16.4886C5.5744 16.9294 5.91121 17.3402 6.28516 17.7142C6.6591 18.0881 7.06994 18.4249 7.51074 18.72C7.9738 19.0301 8.09714 19.6573 7.78711 20.1204C7.47706 20.5833 6.85072 20.7076 6.3877 20.3978C5.8371 20.0292 5.32501 19.6075 4.8584 19.1409C4.39179 18.6743 3.97017 18.1622 3.60156 17.6116C3.29171 17.1486 3.41601 16.5223 3.87891 16.2122Z" fill="#818C99"/>
<path fill-rule="evenodd" clip-rule="evenodd" d="M18.7207 16.4886C19.0308 16.0255 19.658 15.9022 20.1211 16.2122C20.584 16.5223 20.7083 17.1486 20.3984 17.6116C20.0298 18.1622 19.6082 18.6743 19.1416 19.1409C18.675 19.6075 18.1629 20.0292 17.6123 20.3978C17.1493 20.7076 16.5229 20.5833 16.2129 20.1204C15.9029 19.6573 16.0262 19.0301 16.4893 18.72C16.9301 18.4249 17.3409 18.0881 17.7148 17.7142C18.0888 17.3402 18.4256 16.9294 18.7207 16.4886Z" fill="#818C99"/>
<path fill-rule="evenodd" clip-rule="evenodd" d="M12.7168 7.61652C13.096 7.61652 13.4201 7.74392 13.6494 7.97687C13.8786 8.20994 14.0049 8.54061 14.0049 8.93097V15.22C14.0049 15.5779 13.9112 15.872 13.7197 16.0765C13.5272 16.2819 13.2492 16.3841 12.9121 16.3841C12.5719 16.3841 12.2928 16.2805 12.0996 16.0745C11.9073 15.8693 11.8125 15.5753 11.8125 15.22V9.77179L11.3037 10.1136L11.3018 10.1155C10.979 10.3186 10.7887 10.39 10.5596 10.39C10.103 10.3899 9.76475 10.0565 9.76465 9.60187C9.76465 9.25866 9.97792 8.9658 10.3516 8.73273L11.3457 8.07452L11.3467 8.07355C11.8334 7.76424 12.2847 7.61655 12.7168 7.61652Z" fill="#818C99"/>
<path fill-rule="evenodd" clip-rule="evenodd" d="M2.0918 10.0296C2.19994 9.48289 2.73161 9.12751 3.27832 9.23566C3.82478 9.344 4.18038 9.87464 4.07227 10.4212C3.97146 10.9308 3.91797 11.4584 3.91797 11.9993C3.91797 12.5403 3.97146 13.0678 4.07227 13.5775C4.18038 14.124 3.82478 14.6547 3.27832 14.763C2.73161 14.8711 2.19995 14.5158 2.0918 13.9691C1.96564 13.3312 1.90039 12.6724 1.90039 11.9993C1.90039 11.3262 1.96564 10.6675 2.0918 10.0296Z" fill="#818C99"/>
<path fill-rule="evenodd" clip-rule="evenodd" d="M20.7217 9.23566C21.2684 9.12751 21.8001 9.48289 21.9082 10.0296C22.0344 10.6675 22.0996 11.3262 22.0996 11.9993C22.0996 12.6724 22.0344 13.3312 21.9082 13.9691C21.8001 14.5158 21.2684 14.8711 20.7217 14.763C20.1752 14.6547 19.8196 14.124 19.9277 13.5775C20.0285 13.0678 20.082 12.5403 20.082 11.9993C20.082 11.4584 20.0285 10.9308 19.9277 10.4212C19.8196 9.87464 20.1752 9.344 20.7217 9.23566Z" fill="#818C99"/>
<path fill-rule="evenodd" clip-rule="evenodd" d="M6.3877 3.60089C6.85072 3.29104 7.47706 3.41534 7.78711 3.87823C8.09714 4.34132 7.9738 4.96857 7.51074 5.27863C7.06994 5.57373 6.6591 5.91054 6.28516 6.28448C5.91121 6.65843 5.5744 7.06927 5.2793 7.51007C4.96925 7.97313 4.34199 8.09646 3.87891 7.78644C3.41601 7.47639 3.29171 6.85005 3.60156 6.38702C3.97017 5.83643 4.39179 5.32434 4.8584 4.85773C5.32501 4.39111 5.8371 3.9695 6.3877 3.60089Z" fill="#818C99"/>
<path fill-rule="evenodd" clip-rule="evenodd" d="M16.2129 3.87823C16.5229 3.41534 17.1493 3.29104 17.6123 3.60089C18.1629 3.9695 18.675 4.39112 19.1416 4.85773C19.6082 5.32434 20.0298 5.83643 20.3984 6.38702C20.7083 6.85005 20.584 7.47639 20.1211 7.78644C19.658 8.09646 19.0308 7.97313 18.7207 7.51007C18.4256 7.06927 18.0888 6.65843 17.7148 6.28448C17.3409 5.91054 16.9301 5.57373 16.4893 5.27863C16.0262 4.96857 15.9029 4.34132 16.2129 3.87823Z" fill="#818C99"/>
<path fill-rule="evenodd" clip-rule="evenodd" d="M12 1.89972C12.6731 1.89972 13.3319 1.96496 13.9697 2.09113C14.5164 2.19927 14.8718 2.73094 14.7637 3.27765C14.6553 3.82411 14.1247 4.17971 13.5781 4.07159C13.0685 3.97079 12.541 3.9173 12 3.9173C11.459 3.9173 10.9315 3.97079 10.4219 4.07159C9.87531 4.17971 9.34467 3.82411 9.23633 3.27765C9.12818 2.73094 9.48356 2.19927 10.0303 2.09113C10.6681 1.96496 11.3269 1.89972 12 1.89972Z" fill="#818C99"/>
</svg>
