<svg width="20" height="20" viewBox="0 0 20 20" fill="none" xmlns="http://www.w3.org/2000/svg">
<path fill-rule="evenodd" clip-rule="evenodd" d="M8.39084 1.90699C8.91189 1.80392 9.45002 1.75 10 1.75C10.55 1.75 11.0881 1.80392 11.6092 1.90699C12.0155 1.98737 12.2797 2.38194 12.1994 2.78828C12.119 3.19462 11.7244 3.45886 11.3181 3.37848C10.8924 3.29427 10.4517 3.25 10 3.25C9.54827 3.25 9.10762 3.29427 8.68193 3.37848C8.27559 3.45886 7.88102 3.19462 7.80064 2.78828C7.72026 2.38194 7.98451 1.98737 8.39084 1.90699ZM6.45613 3.34601C6.68656 3.69021 6.59434 4.15604 6.25014 4.38647C5.88199 4.63294 5.53932 4.91474 5.22703 5.22703C4.91474 5.53932 4.63294 5.88199 4.38647 6.25014C4.15604 6.59434 3.69021 6.68656 3.34601 6.45613C3.00181 6.22569 2.90959 5.75986 3.14002 5.41566C3.44112 4.96591 3.7852 4.54754 4.16637 4.16637C4.54754 3.7852 4.96591 3.44112 5.41566 3.14002C5.75986 2.90959 6.22569 3.00181 6.45613 3.34601ZM13.5439 3.34601C13.7743 3.00181 14.2401 2.90959 14.5843 3.14002C15.0341 3.44112 15.4525 3.7852 15.8336 4.16637C16.2148 4.54754 16.5589 4.96591 16.86 5.41566C17.0904 5.75986 16.9982 6.22569 16.654 6.45613C16.3098 6.68656 15.844 6.59434 15.6135 6.25014C15.3671 5.88199 15.0853 5.53932 14.773 5.22703C14.4607 4.91474 14.118 4.63294 13.7499 4.38647C13.4057 4.15604 13.3134 3.69021 13.5439 3.34601ZM17.2117 7.80064C17.6181 7.72026 18.0126 7.98451 18.093 8.39084C18.1961 8.91189 18.25 9.45002 18.25 10C18.25 10.55 18.1961 11.0881 18.093 11.6092C18.0126 12.0155 17.6181 12.2797 17.2117 12.1994C16.8054 12.119 16.5411 11.7244 16.6215 11.3181C16.7057 10.8924 16.75 10.4517 16.75 10C16.75 9.54827 16.7057 9.10762 16.6215 8.68193C16.5411 8.27559 16.8054 7.88102 17.2117 7.80064ZM2.78828 7.80064C3.19462 7.88102 3.45886 8.27559 3.37848 8.68193C3.29427 9.10762 3.25 9.54827 3.25 10C3.25 10.4517 3.29427 10.8924 3.37848 11.3181C3.45886 11.7244 3.19462 12.119 2.78828 12.1994C2.38194 12.2797 1.98737 12.0155 1.90699 11.6092C1.80392 11.0881 1.75 10.55 1.75 10C1.75 9.45002 1.80392 8.91189 1.90699 8.39085C1.98737 7.98451 2.38194 7.72026 2.78828 7.80064ZM3.34601 13.5439C3.69021 13.3134 4.15604 13.4057 4.38647 13.7499C4.63294 14.118 4.91474 14.4607 5.22703 14.773C5.53932 15.0853 5.88199 15.3671 6.25014 15.6135C6.59434 15.844 6.68656 16.3098 6.45613 16.654C6.22569 16.9982 5.75986 17.0904 5.41566 16.86C4.96591 16.5589 4.54754 16.2148 4.16637 15.8336C3.7852 15.4525 3.44112 15.0341 3.14002 14.5843C2.90959 14.2401 3.00181 13.7743 3.34601 13.5439ZM16.654 13.5439C16.9982 13.7743 17.0904 14.2401 16.86 14.5843C16.5589 15.0341 16.2148 15.4525 15.8336 15.8336C15.4525 16.2148 15.0341 16.5589 14.5843 16.86C14.2401 17.0904 13.7743 16.9982 13.5439 16.654C13.3134 16.3098 13.4057 15.844 13.7499 15.6135C14.118 15.3671 14.4607 15.0853 14.773 14.773C15.0853 14.4607 15.3671 14.118 15.6135 13.7499C15.844 13.4057 16.3098 13.3134 16.654 13.5439ZM7.80064 17.2117C7.88102 16.8054 8.27559 16.5411 8.68193 16.6215C9.10762 16.7057 9.54827 16.75 10 16.75C10.4517 16.75 10.8924 16.7057 11.3181 16.6215C11.7244 16.5411 12.119 16.8054 12.1994 17.2117C12.2797 17.6181 12.0155 18.0126 11.6092 18.093C11.0881 18.1961 10.55 18.25 10 18.25C9.45002 18.25 8.91189 18.1961 8.39084 18.093C7.98451 18.0126 7.72026 17.6181 7.80064 17.2117Z" fill="#818C99"/>
<path d="M9.92782 12.6575C9.92782 13.2158 10.2244 13.5348 10.7524 13.5348C11.2752 13.5348 11.5719 13.2207 11.5719 12.6575V7.46867C11.5719 6.86057 11.1797 6.4668 10.5915 6.4668C10.2546 6.4668 9.89765 6.58144 9.50549 6.83066L8.68599 7.37397C8.38935 7.55839 8.23853 7.77771 8.23853 8.02195C8.23853 8.35092 8.47985 8.59018 8.81168 8.59018C8.97759 8.59018 9.11836 8.54033 9.3798 8.37585L9.90771 8.02195H9.92782V12.6575Z" fill="#818C99"/>
</svg>
