<svg width="24" height="24" viewBox="0 0 24 24" fill="none" xmlns="http://www.w3.org/2000/svg">
<path d="M11.0003 4.07078V2.05078C8.99029 2.25078 7.16029 3.05078 5.68029 4.26078L7.10029 5.69078C8.21029 4.83078 9.54029 4.25078 11.0003 4.07078ZM5.69029 7.10078L4.26029 5.68078C3.05029 7.16078 2.25029 8.99078 2.05029 11.0008H4.07029C4.25029 9.54078 4.83029 8.21078 5.69029 7.10078ZM2.05029 13.0008C2.25029 15.0108 3.05029 16.8408 4.26029 18.3208L5.69029 16.8908C4.83029 15.7908 4.25029 14.4608 4.07029 13.0008H2.05029ZM11.0003 21.9508V19.9308C9.54029 19.7508 8.21029 19.1708 7.10029 18.3108L5.68029 19.7408C7.16029 20.9508 9.00029 21.7508 11.0003 21.9508ZM13.0503 2.05078C18.0803 2.58078 22.0003 6.84078 22.0003 12.0008C22.0003 17.1608 18.0803 21.4208 13.0503 21.9508V19.9308C16.9703 19.4108 20.0003 16.0508 20.0003 12.0008C20.0003 7.95078 16.9703 4.59078 13.0503 4.07078V2.05078Z" fill="#0DBD8B"/>
<path d="M11.9138 15.1896C11.9138 15.8595 12.2698 16.2423 12.9032 16.2423C13.5307 16.2423 13.8867 15.8655 13.8867 15.1896V8.96299C13.8867 8.23327 13.4161 7.76074 12.7102 7.76074C12.306 7.76074 11.8776 7.89831 11.407 8.19738L10.4236 8.84935C10.0677 9.07066 9.88666 9.33384 9.88666 9.62692C9.88666 10.0217 10.1763 10.3088 10.5744 10.3088C10.7735 10.3088 10.9425 10.249 11.2562 10.0516L11.8897 9.62692H11.9138V15.1896Z" fill="#0DBD8B"/>
</svg>
