<svg width="16" height="16" viewBox="0 0 16 16" fill="none" xmlns="http://www.w3.org/2000/svg">
<path d="M7.33337 2.71385V1.36719C5.99337 1.50052 4.77337 2.03385 3.7867 2.84052L4.73337 3.79385C5.47337 3.22052 6.36003 2.83385 7.33337 2.71385ZM3.79337 4.73385L2.84003 3.78719C2.03337 4.77385 1.50003 5.99385 1.3667 7.33385H2.71337C2.83337 6.36052 3.22003 5.47385 3.79337 4.73385ZM1.3667 8.66719C1.50003 10.0072 2.03337 11.2272 2.84003 12.2139L3.79337 11.2605C3.22003 10.5272 2.83337 9.64052 2.71337 8.66719H1.3667ZM7.33337 14.6339V13.2872C6.36003 13.1672 5.47337 12.7805 4.73337 12.2072L3.7867 13.1605C4.77337 13.9672 6.00003 14.5005 7.33337 14.6339ZM8.70003 1.36719C12.0534 1.72052 14.6667 4.56052 14.6667 8.00052C14.6667 11.4405 12.0534 14.2805 8.70003 14.6339V13.2872C11.3134 12.9405 13.3334 10.7005 13.3334 8.00052C13.3334 5.30052 11.3134 3.06052 8.70003 2.71385V1.36719Z" fill="#818C99"/>
<path d="M7.94238 10.1264C7.94238 10.573 8.17968 10.8282 8.602 10.8282C9.0203 10.8282 9.25761 10.577 9.25761 10.1264V5.97533C9.25761 5.48885 8.94388 5.17383 8.4733 5.17383C8.20381 5.17383 7.91824 5.26554 7.60452 5.46492L6.94891 5.89957C6.71161 6.04711 6.59094 6.22256 6.59094 6.41795C6.59094 6.68113 6.784 6.87253 7.04946 6.87253C7.18219 6.87253 7.29481 6.83266 7.50396 6.70107L7.92629 6.41795H7.94238V10.1264Z" fill="#818C99"/>
</svg>
