<svg width="40" height="40" viewBox="0 0 40 40" fill="none" xmlns="http://www.w3.org/2000/svg">
<rect width="40" height="40" rx="8" fill="#F3F5F7"/>
<circle cx="20" cy="20" r="14" fill="#0DBD8B"/>
<path d="M17.9744 15C18.3311 15 18.4604 15.0371 18.5907 15.1069C18.7211 15.1766 18.8234 15.2789 18.8931 15.4093C18.9629 15.5396 19 15.6689 19 16.0256V23.9744C19 24.3311 18.9629 24.4604 18.8931 24.5907C18.8234 24.7211 18.7211 24.8234 18.5907 24.8931C18.4604 24.9629 18.3311 25 17.9744 25H17.0256C16.6689 25 16.5396 24.9629 16.4093 24.8931C16.2789 24.8234 16.1766 24.7211 16.1069 24.5907C16.0371 24.4604 16 24.3311 16 23.9744V16.0256C16 15.6689 16.0371 15.5396 16.1069 15.4093C16.1766 15.2789 16.2789 15.1766 16.4093 15.1069C16.5396 15.0371 16.6689 15 17.0256 15H17.9744ZM22.9744 15C23.3311 15 23.4604 15.0371 23.5907 15.1069C23.7211 15.1766 23.8234 15.2789 23.8931 15.4093C23.9629 15.5396 24 15.6689 24 16.0256V23.9744C24 24.3311 23.9629 24.4604 23.8931 24.5907C23.8234 24.7211 23.7211 24.8234 23.5907 24.8931C23.4604 24.9629 23.3311 25 22.9744 25H22.0256C21.6689 25 21.5396 24.9629 21.4093 24.8931C21.2789 24.8234 21.1766 24.7211 21.1069 24.5907C21.0371 24.4604 21 24.3311 21 23.9744V16.0256C21 15.6689 21.0371 15.5396 21.1069 15.4093C21.1766 15.2789 21.2789 15.1766 21.4093 15.1069C21.5396 15.0371 21.6689 15 22.0256 15H22.9744Z" fill="white"/>
</svg>
