<svg width="20" height="20" viewBox="0 0 20.01 20.01" fill="none" xmlns="http://www.w3.org/2000/svg">
<path d="M4.7626 2.74605L16.4182 14.4044C16.7436 14.7299 16.7436 15.2575 16.4182 15.5829C16.1178 15.8833 15.6452 15.9064 15.3183 15.6523L15.2397 15.5829L12.5003 12.8425V16.6667C12.5003 17.094 12.1786 17.4463 11.7642 17.4944L11.667 17.5C11.1324 17.5 10.6188 17.2924 10.2344 16.921L5.65877 12.5H3.33366C2.41318 12.5 1.66699 11.7538 1.66699 10.8333V9.16667C1.66699 8.24619 2.41318 7.5 3.33366 7.5H5.63783L6.41283 6.75333L3.58415 3.92463C3.25874 3.59915 3.25877 3.0715 3.58422 2.74605C3.90962 2.42065 4.4372 2.42065 4.7626 2.74605ZM11.667 2.5C12.1272 2.5 12.5003 2.8731 12.5003 3.33333V8.13333L8.81199 4.445L10.2332 3.07783C10.5799 2.74417 11.0308 2.54306 11.5073 2.50617L11.667 2.5Z" fill="white"/>
</svg>
