<svg width="20" height="20" viewBox="0 0 20.01 20.01" fill="none" xmlns="http://www.w3.org/2000/svg">
<path d="M11.667 2.5C12.1272 2.5 12.5003 2.8731 12.5003 3.33333V16.6667C12.5003 17.1269 12.1272 17.5 11.667 17.5C11.1324 17.5 10.6188 17.2924 10.2344 16.921L5.65877 12.5H3.33366C2.41318 12.5 1.66699 11.7538 1.66699 10.8333V9.16667C1.66699 8.24619 2.41318 7.5 3.33366 7.5H5.63783L10.2332 3.07783C10.6185 2.7071 11.1323 2.5 11.667 2.5ZM16.1537 5.28596C16.4466 4.99306 16.9215 4.99306 17.2144 5.28596C19.8179 7.88945 19.8179 12.1106 17.2144 14.714C16.9215 15.0069 16.4466 15.0069 16.1537 14.714C15.8608 14.4212 15.8608 13.9463 16.1537 13.6534C18.1714 11.6357 18.1714 8.36433 16.1537 6.34662C15.8608 6.05372 15.8608 5.57885 16.1537 5.28596ZM14.0324 7.40727C14.3253 7.11438 14.8002 7.11438 15.0931 7.40727C16.525 8.83919 16.525 11.1608 15.0931 12.5927C14.8002 12.8856 14.3253 12.8856 14.0324 12.5927C13.7395 12.2998 13.7395 11.825 14.0324 11.5321C14.8785 10.6859 14.8785 9.31407 14.0324 8.46793C13.7395 8.17504 13.7395 7.70017 14.0324 7.40727Z" fill="white"/>
</svg>
