<svg width="20" height="20" viewBox="0 0 20 20" fill="none" xmlns="http://www.w3.org/2000/svg">
<path d="M11.7236 1.32861C12.1732 1.32868 12.5379 1.69261 12.5381 2.14209C12.5381 2.59177 12.1733 2.95648 11.7236 2.95654H10.8145V4.23096C12.141 4.37938 13.3592 4.88595 14.3701 5.65186L14.5742 5.81201L14.582 5.81787L14.5811 5.81885L15.5928 6.82666L15.6006 6.8335L15.5996 6.83447C16.6263 8.08452 17.2432 9.68437 17.2432 11.4282C17.2432 15.4283 14.0001 18.6714 10 18.6714C6.00001 18.6712 2.75781 15.4282 2.75781 11.4282C2.75781 7.70357 5.56898 4.63691 9.18555 4.23193V2.95654H8.27734C7.82763 2.95654 7.46289 2.59181 7.46289 2.14209C7.46312 1.69256 7.82777 1.32861 8.27734 1.32861H11.7236Z" fill="#818C99" stroke="#818C99" stroke-width="0.2"/>
<path fill-rule="evenodd" clip-rule="evenodd" d="M10.0155 7.78784C10.4841 7.78784 10.864 8.16772 10.864 8.63633V11.4574L13.3437 12.3873C13.7825 12.5519 14.0048 13.0409 13.8402 13.4797C13.6757 13.9185 13.1866 14.1408 12.7479 13.9762L9.71755 12.8399C9.38639 12.7157 9.16699 12.3991 9.16699 12.0454V8.63633C9.16699 8.16772 9.54687 7.78784 10.0155 7.78784Z" fill="white"/>
</svg>
